<svg xmlns="http://www.w3.org/2000/svg" width="6.131" height="12.137" viewBox="0 0 6.131 12.137">
  <style>
	.cls-1{
		fill: #274871;
	}
  </style>
  <path id="XMLID_835_" class='cls-1' d="M76.9,6.464h1.33v5.477a.2.2,0,0,0,.2.2h2.256a.2.2,0,0,0,.2-.2V6.49h1.529a.2.2,0,0,0,.194-.173L82.833,4.3a.2.2,0,0,0-.194-.218H80.877V2.818c0-.381.205-.574.61-.574h1.152a.2.2,0,0,0,.2-.2V.2a.2.2,0,0,0-.2-.2h-1.66a3.042,3.042,0,0,0-1.989.75A2.086,2.086,0,0,0,78.3,2.6V4.082H76.9a.2.2,0,0,0-.2.2V6.268A.2.2,0,0,0,76.9,6.464Z" transform="translate(-76.703)"/>
</svg>
