<svg id="facebook-svgrepo-com" xmlns="http://www.w3.org/2000/svg" width="7.837" height="15.514" viewBox="0 0 7.837 15.514">
  <defs>
    <style>
      .cls-1 {
        fill: #a3a3a3;
      }
    </style>
  </defs>
  <path id="XMLID_835_" class="cls-1" d="M76.953,8.263h1.7v7a.25.25,0,0,0,.25.25h2.883a.25.25,0,0,0,.25-.25V8.3h1.955a.25.25,0,0,0,.249-.222l.3-2.577a.25.25,0,0,0-.249-.279H82.038V3.6c0-.487.262-.734.779-.734H84.29a.25.25,0,0,0,.25-.25V.252A.25.25,0,0,0,84.29,0H82.261l-.093,0a3.888,3.888,0,0,0-2.542.958,2.666,2.666,0,0,0-.887,2.37V5.218H76.953a.25.25,0,0,0-.25.25V8.013A.25.25,0,0,0,76.953,8.263Z" transform="translate(-76.703)"/>
</svg>
