<svg xmlns="http://www.w3.org/2000/svg" width="35.789" height="27.149" viewBox="0 0 35.789 27.149">
  <defs>
    <style>
      .cls-1, .cls-2 {
        fill: none;
        stroke: #fff;
        stroke-width: 0.75px;
      }

      .cls-1 {
        stroke-linecap: round;
        stroke-linejoin: round;
      }

      .cls-2 {
        stroke-miterlimit: 10;
      }
    </style>
  </defs>
  <g id="Group_128" data-name="Group 128" transform="translate(-618.585 -354.992)">
    <g id="Group_127" data-name="Group 127" transform="translate(618.954 355.367)">
      <g id="Group_126" data-name="Group 126" transform="translate(8.021)">
        <path id="Path_535" data-name="Path 535" class="cls-1" d="M657.212,359.406a4.039,4.039,0,0,0-7.371-2.283,4.039,4.039,0,0,0-7.371,2.283c0,.056,0,.112,0,.167s0,.111,0,.167c0,4.144,7.3,8.988,7.364,8.988s7.377-4.844,7.377-8.988c0-.056,0-.112,0-.167S657.212,359.463,657.212,359.406Z" transform="translate(-642.47 -355.367)"/>
      </g>
      <path id="Path_536" data-name="Path 536" class="cls-2" d="M651.175,396.035c-1.566-.917-3.541-2.1-4.181-2.62-1.248-1.005-2-1.915-3-2.563s-1.848-.788-3.888-.784c-1.812,0-2.7.48-4.809.9-2.29.459-4.492.013-6.674.474a4.854,4.854,0,0,0-2.008.965c-.908-.955-2.141-2.214-3.144-3.068a9.2,9.2,0,0,0-2.223-1.611c-.495-.2-1.957-.384-2.253.259-.163.355.261.666.5.925,1.916,2.1,3.9,4.146,6.018,6.047,1.961,1.762,4.376,3.421,7.161,3.421,1.944,0,4.961-.255,9.084-.314a8.05,8.05,0,0,1,5.575,2.118Z" transform="translate(-618.954 -376.569)"/>
      <path id="Path_537" data-name="Path 537" class="cls-1" d="M665.335,400.878c-1.568-.918-3.457-2.068-4.1-2.585-1.248-1.005-2-1.915-3-2.563s-1.848-.788-3.888-.784c-1.812,0-2.7.48-4.809.9-2.29.459-4.492.013-6.674.474a4.622,4.622,0,0,0-2.117,1.089c-.518.733.205,1.441.949,1.441h.295s5.8,0,7.859-.044,1.92.486,1.92.486" transform="translate(-633.196 -381.447)"/>
      <path id="Path_538" data-name="Path 538" class="cls-1" d="M626.61,392.41c-.908-.955-2.141-2.214-3.144-3.068a9.2,9.2,0,0,0-2.223-1.611c-.495-.2-1.957-.384-2.253.259-.163.355.261.666.5.925,1.916,2.1,3.9,4.146,6.018,6.047,1.961,1.762,4.376,3.421,7.161,3.421,1.944,0,4.961-.255,9.084-.314a7.823,7.823,0,0,1,5.549,2.1" transform="translate(-618.954 -376.569)"/>
      <path id="Path_539" data-name="Path 539" class="cls-1" d="M628.837,389.5c1,.854,2.236,2.113,3.144,3.068a4.478,4.478,0,0,1,1.68-.876c-.01-.01-3.478-3.451-4.8-3.8-1.159-.309-1.649.135-1.754.252A13.577,13.577,0,0,1,628.837,389.5Z" transform="translate(-624.325 -376.722)"/>
      <path id="Path_540" data-name="Path 540" class="cls-1" d="M706.948,411.209a.5.5,0,0,1,.027.708l-5.221,5.63a.5.5,0,0,1-.708.027l-1.253-1.161a.5.5,0,0,1-.026-.708l5.22-5.63a.5.5,0,0,1,.708-.027Z" transform="translate(-672.115 -391.31)"/>
    </g>
    <path id="Path_541" data-name="Path 541" class="cls-1" d="M670.032,368.785c-.379,2.909-4.921,6.489-6.48,7.57" transform="translate(-29.387 -8.841)"/>
  </g>
</svg>
