<svg xmlns="http://www.w3.org/2000/svg" width="353.509" height="367.935" viewBox="0 0 353.509 367.935">
  <defs>
    <style>
      .cls-1 {
        opacity: 0.35;
      }

      .cls-2 {
        fill: #68d8b1;
      }
    </style>
  </defs>
  <g id="Group_38" data-name="Group 38" class="cls-1" transform="matrix(0.996, 0.087, -0.087, 0.996, 29.712, 0)">
    <path id="Path_16" data-name="Path 16" class="cls-2" d="M0,2.87,14.7,1.435,12.827,0Z" transform="translate(178.214 149.32)"/>
    <path id="Path_17" data-name="Path 17" class="cls-2" d="M0,0,1.882.853,8.849,0Z" transform="translate(186.053 151.768)"/>
    <path id="Path_18" data-name="Path 18" class="cls-2" d="M1.4,3.865l5.091,7.6L0,0Z" transform="translate(168.707 188.181)"/>
    <path id="Path_19" data-name="Path 19" class="cls-2" d="M0,0,5.131,4.1,8.2,8.606H9.414L4.707,2.051Z" transform="translate(215.342 235.991)"/>
    <path id="Path_20" data-name="Path 20" class="cls-2" d="M4.1,2.458l5.82.622L0,0Z" transform="translate(220.815 218.429)"/>
    <path id="Path_21" data-name="Path 21" class="cls-2" d="M0,0,.1.343C.314.322.559.314.8.314Z" transform="translate(180.642 261.127)"/>
    <path id="Path_22" data-name="Path 22" class="cls-2" d="M.008,0,0,0Z" transform="translate(186.698 264.03)"/>
    <path id="Path_23" data-name="Path 23" class="cls-2" d="M2.266,2.474,3.046,0,0,3.65c.731-.425,1.482-.817,2.266-1.176" transform="translate(192.349 290.857)"/>
    <path id="Path_24" data-name="Path 24" class="cls-2" d="M3.928,4.21l.086.155a21.328,21.328,0,0,1-.9-2.948A27.378,27.378,0,0,1,0,0L.053.033C3.523,2.364,3.928,4.21,3.928,4.21" transform="translate(162.242 230.129)"/>
    <path id="Path_25" data-name="Path 25" class="cls-2" d="M0,0,.347.653l.221.2C.372.563.18.282,0,0" transform="translate(169.766 241.194)"/>
    <path id="Path_26" data-name="Path 26" class="cls-2" d="M0,0V.006L.022.04,0,0" transform="translate(153.01 218.348)"/>
    <path id="Path_27" data-name="Path 27" class="cls-2" d="M0,0,.245.359.233.3,0,0" transform="translate(155.251 221.691)"/>
    <path id="Path_28" data-name="Path 28" class="cls-2" d="M15.782,9.187A19.3,19.3,0,0,1,14.234,7.06C11.364,5.864,4.7,1.266,3.369.229A21.836,21.836,0,0,1,0,0L.074.163,11.086,5.847Z" transform="translate(192.363 260.689)"/>
    <path id="Path_29" data-name="Path 29" class="cls-2" d="M0,.011.005.006,0,0V.011" transform="translate(192.07 279.57)"/>
    <path id="Path_30" data-name="Path 30" class="cls-2" d="M0,0A13.917,13.917,0,0,1,1.6,1.7l.637.11Z" transform="translate(207.404 256.909)"/>
    <path id="Path_31" data-name="Path 31" class="cls-2" d="M.572,2.7.176,0,0,3.164c.176-.147.36-.3.572-.465" transform="translate(188.792 294.667)"/>
    <path id="Path_32" data-name="Path 32" class="cls-2" d="M0,.78C.221.559.494.343.731.123L.649,0Z" transform="translate(202.064 274.785)"/>
    <path id="Path_33" data-name="Path 33" class="cls-2" d="M6.387,10.384l5.055,3.356C9.776,12.348,7.963,9.383,4.876,7.1A12.722,12.722,0,0,1,.6,0C.691,1.49-.024,4.634,0,5.606a19.51,19.51,0,0,1,6.386,4.777" transform="translate(96.329 213.364)"/>
    <path id="Path_34" data-name="Path 34" class="cls-2" d="M1.094,2.266A6.26,6.26,0,0,0,.139,0C.09.012.045.033,0,.049A11.322,11.322,0,0,1,1.111,2.4l-.016-.131" transform="translate(95.269 211.198)"/>
    <path id="Path_35" data-name="Path 35" class="cls-2" d="M.759.163.49,0,0,.8C.237.584.5.376.759.163" transform="translate(200.03 254.92)"/>
    <path id="Path_36" data-name="Path 36" class="cls-2" d="M.147,0,0,.237.1.38C.114.253.127.131.147,0" transform="translate(196.564 262.507)"/>
    <path id="Path_37" data-name="Path 37" class="cls-2" d="M0,0" transform="translate(210.919 271.071)"/>
    <path id="Path_38" data-name="Path 38" class="cls-2" d="M.176,0C.114.012.057.028,0,.045L.155.053.176.1V0" transform="translate(189.706 252.934)"/>
    <path id="Path_39" data-name="Path 39" class="cls-2" d="M1.278,1.756,1.825,2,0,0A12.1,12.1,0,0,1,1.278,1.756" transform="translate(154.794 300.375)"/>
    <path id="Path_40" data-name="Path 40" class="cls-2" d="M.053.723A1.528,1.528,0,0,1,.188.5C.118.335.061.172,0,0Z" transform="translate(124.024 264.712)"/>
    <path id="Path_41" data-name="Path 41" class="cls-2" d="M.106.408.825,0C.547.114.253.237,0,.335Z" transform="translate(113.512 269.385)"/>
    <path id="Path_42" data-name="Path 42" class="cls-2" d="M0,.894.216,0,.172.012Z" transform="translate(184.312 293.858)"/>
    <path id="Path_43" data-name="Path 43" class="cls-2" d="M0,.188C.012.127.016.061.028,0L0,.131Z" transform="translate(183.581 299.419)"/>
    <path id="Path_44" data-name="Path 44" class="cls-2" d="M.016.241.053,0,0,.233Z" transform="translate(180.553 317.234)"/>
    <path id="Path_45" data-name="Path 45" class="cls-2" d="M0,.408C.049.278.082.13.126,0L.057.151Z" transform="translate(181.853 309.664)"/>
    <path id="Path_46" data-name="Path 46" class="cls-2" d="M4.712,2.156,4.618,0,0,7.774,4.712,4.582c-.02-.265.021-2.136,0-2.425" transform="translate(118.498 271.2)"/>
    <path id="Path_47" data-name="Path 47" class="cls-2" d="M0,0C.065.049.127.106.2.163L.106.049Z" transform="translate(126.839 225.841)"/>
    <path id="Path_48" data-name="Path 48" class="cls-2" d="M.2,0h0L0,.2C.261.265.519.327.784.4.584.265.392.135.2,0" transform="translate(115.01 220.315)"/>
    <path id="Path_49" data-name="Path 49" class="cls-2" d="M0,.024.065.008.057,0,0,.024" transform="translate(147.544 181.735)"/>
    <path id="Path_50" data-name="Path 50" class="cls-2" d="M.011.017.017.011,0,0Z" transform="translate(113.099 270.056)"/>
    <path id="Path_51" data-name="Path 51" class="cls-2" d="M.453,3.115A20.55,20.55,0,0,1,7.326,8.767l1.245.457L1.6,1.025,0,0C.18.412.31,2.736.453,3.115" transform="translate(149.996 252.886)"/>
    <path id="Path_52" data-name="Path 52" class="cls-2" d="M1.543,0,1.294.127,1.307.082,1.543,0,0,.376C.277,3.332.032,6.259.118,8.832.588,5.214,2.086,2.225,1.543,0" transform="translate(151.823 204.234)"/>
    <path id="Path_53" data-name="Path 53" class="cls-2" d="M0,.131.249,0,.012.086,0,.131" transform="translate(153 205.371)"/>
    <path id="Path_54" data-name="Path 54" class="cls-2" d="M185.855,303.542l-.608.151-1.263,8.374a6.8,6.8,0,0,1,.475-.636l-.711,2.166-.386,2.548c-.043-.373-.067-.742-.09-1.112l-2.494,7.552,2.095,1.205s-.937-.186-2.3-.591l-.193.591c.023-.228.06-.4.09-.623a.27.27,0,0,1-.067-.022l-.023.109-.588-.3c-2.719-.887-6.506-2.532-8.285-5.157a45.773,45.773,0,0,1-5.309-1.639l-.05-.013-.034-.016a37.89,37.89,0,0,1-8.877-4.692l-.006-.007-.007,0c-.383-.28-.758-.578-1.137-.88a6.758,6.758,0,0,1,.752,1.684L150.4,305.82a13.406,13.406,0,0,1,4.425,3.05l-1.489-1.587,4.076-1.751a18.714,18.714,0,0,1-2.237-.858l9.665,1.69,4.917-.4h.037c1.03-.1,2.181-.167,3.491-.186a10.058,10.058,0,0,1,2.37-1.285l.23-.157.372-.048a21.917,21.917,0,0,1,8.371-.823,35.215,35.215,0,0,1,1.223-3.734l-.575,3.779c.193.016.372.022.575.038m-60.238-23.635-.419,1.96-.057,1.125L125,282.8l-1.323,6.192.435-.289c-.156.148-.306.264-.459.4l-.658,3.059a20.947,20.947,0,0,1-.313-2.208,35.708,35.708,0,0,1-6.676,4.547l.532.659c-.316-.132-.578-.325-.874-.479a21.867,21.867,0,0,1-2.138.951l1.715-1.125-.087-.109a14.51,14.51,0,0,1-5.792-6.819l-.016.039.01-.048-.01-.01v-.01a15.748,15.748,0,0,1-.748-2.179l.911,1.121,1.4-9.775a23.3,23.3,0,0,1-2.274-5.71l-.662-1.539.286-.99a11.078,11.078,0,0,1,.03-1.729,4.373,4.373,0,0,1-.582-1.227l.688.492a5.485,5.485,0,0,1,.535-1.626l.459,2.339,3.843,2.747,7.46-3.892-.529-1.2a6.056,6.056,0,0,1,1.217.836l1.609-.836c-.469.373-.931.688-1.393,1.022l.017.013.01,0,.01.016c1.287,1.211,2.966,3.715,3.371,8.329.19-.289.383-.582.609-.88l-.342,7.3c.116-.093.216-.2.342-.279M315.866,106.965a10.9,10.9,0,0,0-6.2.717,41.71,41.71,0,0,0-4.495,2.1c-1.473.819-2.862,1.79-4.256,2.735a5.263,5.263,0,0,0-1.2,1.179c-1.546,2.118-3.145,4.2-4.544,6.408-.984,1.549-1.666,3.268-2.5,4.91-.326.649-.731,1.263-1.014,1.931-.618,1.443-1.194,2.908-1.759,4.38a30.016,30.016,0,0,0-1.41,3.85,14.775,14.775,0,0,0-.7,4.9,4.239,4.239,0,0,1-.482,2.211,38.93,38.93,0,0,1-2.1,3.528c-1.666,2.606-3.351,5.206-5.023,7.8a.726.726,0,0,1-.07.112c-2.543,2.58-4.615,5.585-7.673,7.7a14.8,14.8,0,0,0-4.219,4.849c-.509.839-1.167,1.6-1.652,2.449a11.048,11.048,0,0,0-1.16,2.548,27.246,27.246,0,0,1-2.553,6.408,26.317,26.317,0,0,0-1.7,4.547c-.648,1.947-1.283,3.882-2.962,5.309-1.885,1.6-3.717,3.255-5.566,4.888-.3.257-.6.508-.868.787a8.993,8.993,0,0,1-4.525,2.719,30,30,0,0,0-3.089,1.08,1.643,1.643,0,0,1-.648.138c-2.1-.157-4.206-.308-6.067-1.472a24.578,24.578,0,0,1-7.261-7.307c-.788-1.179-1.366-2.477-2.108-3.679a19.1,19.1,0,0,0-1.859-2.635,29.235,29.235,0,0,1-3.192-4.817c-.911-1.555-1.832-3.117-2.776-4.647a3.086,3.086,0,0,0-.938-1.054,5.227,5.227,0,0,1-2.154-3.275,1.95,1.95,0,0,0-1.546-1.51c-1.489-.337-2.906-.864-4.445-1.121a75.008,75.008,0,0,1-7.5-1.944,25.244,25.244,0,0,1-3.135-.987,13.857,13.857,0,0,1-5.542-4.971c-.871-1.179-1.629-2.432-2.493-3.605a4.962,4.962,0,0,0-1.383-1.353,7.044,7.044,0,0,1-2.1-2.423,1.075,1.075,0,0,1-.023-.916c.522-1.134.479-1.478-.569-2.034a1.48,1.48,0,0,1-.834-1.057,8.348,8.348,0,0,0-.661-1.645c-.505-1.035-.522-1.028.372-1.665.063-.039.093-.122.143-.19-.761-.485-.761-.485-.635-1.147-.372-.222-.722-.431-1.057-.633-.5.08-1.027.167-1.636.254-.03-.672-.013-1.186.668-1.134a.938.938,0,0,0,1.091-.675,3.143,3.143,0,0,1,.5-.717c.073-.9.13-1.539.19-2.269-.412-.386-.921-.858-1.453-1.35.166-.521.309-1.047.492-1.552a1.9,1.9,0,0,0-.013-1.581c-.382-.826.233-1.51.605-2.275.5-.022,1.017-.055,1.619-.084a4.3,4.3,0,0,1,1.808-2.914,8.9,8.9,0,0,0,.881-1.112c.522-.566,1.08-1.1,1.632-1.636.153-.148.436-.228.5-.392.611-1.655,2.666-2.484,2.706-4.451.635-.694.363-1.854,1.313-2.4a.589.589,0,0,0,.2-.325c.416-1.109.8-2.224,1.247-3.323.319-.787.692-1.555,1.067-2.326a9.839,9.839,0,0,0,1.184-4.531c-.024-1.019-.143-2.031-.19-3.05a7.6,7.6,0,0,1,.063-1.4,9.59,9.59,0,0,0,.419-3.268,1.438,1.438,0,0,1,.313-.826,4.111,4.111,0,0,0,.309-3.577c-.1-.286-.192-.569-.269-.858a3.048,3.048,0,0,1,.279-2.458,5.59,5.59,0,0,0,.539-5.026,6.5,6.5,0,0,1-.263-2.641c.116-2.166.359-4.322.5-6.488a27.508,27.508,0,0,1,1.18-5.617c.446-1.555.755-3.152,1.227-4.7.865-2.854,1.716-5.726,2.747-8.525a85.514,85.514,0,0,0,3.088-9.232,31.173,31.173,0,0,1,1.483-3.814c.1-.276.316-.559.289-.832-.083-1.1.605-1.912.965-2.85.648-1.713,1.067-3.5,1.579-5.27,1.057-3.654,1.393-7.442,2.131-11.16.183-.916.5-1.812.642-2.731a60.451,60.451,0,0,0,.851-6.427,37.63,37.63,0,0,0-.236-6.359,20.009,20.009,0,0,0-1.147-3.779,2.369,2.369,0,0,0-.432-.79C214.014,1.8,211.1-.019,207.229,0c-1.533.01-3.062.023-4.581.151A5.3,5.3,0,0,0,200.669.8a15.33,15.33,0,0,0-6.33,6.17c-.858,1.539-1.532,3.162-2.3,4.743a19.874,19.874,0,0,0-1.16,2.429c-.7,2.1-1.313,4.219-1.911,6.346a34.4,34.4,0,0,0-.921,3.968c-.23,1.43-.263,2.879-.422,4.309-.332,2.918-.735,5.832-1.014,8.753-.153,1.51-.1,3.05-.156,4.576a12.418,12.418,0,0,1-.176,2.031,54.735,54.735,0,0,0-1.051,9.9c-.083,2.285-.017,4.569-.01,6.864a2.419,2.419,0,0,1-.033.762,29.763,29.763,0,0,0-.765,5.929,6.113,6.113,0,0,1-1.074,3.2,3.611,3.611,0,0,1-1.114,4.348c-.715.511-.718.521-.622,1.681a4.779,4.779,0,0,1,.9.37,6.433,6.433,0,0,1,.808.765c-.888.659-.755,1.665-1.137,2.487-.312.665-.233.7.652,1.7a7.082,7.082,0,0,0-3.8,1.613c.043.206.113.437.153.678a1.12,1.12,0,0,1-.778,1.311c-1.619.72-1.762,1.057-1.177,2.616a1.368,1.368,0,0,1-.5,1.591,10.922,10.922,0,0,1-.981.649,2.626,2.626,0,0,0-.964,3.6c.249.549.515,1.083.744,1.635a1.557,1.557,0,0,1-.279,1.992,1.365,1.365,0,0,0-.239,1.012,12.407,12.407,0,0,1-.163,3.773,7.977,7.977,0,0,0,.1,2.275,6.63,6.63,0,0,0,.343,1.738,1.652,1.652,0,0,1-.15,1.684,1.623,1.623,0,0,0-.036,1.093,37.1,37.1,0,0,1,.811,7.465,5.926,5.926,0,0,0,1.263,3.583,4.341,4.341,0,0,1,.928,2.966,9.04,9.04,0,0,0,.917,4.055,1.108,1.108,0,0,1-.026.823,7.487,7.487,0,0,1-.645,1.054c.845.6.695,1.546.708,2.378a21.358,21.358,0,0,1-.316,2.651c-.057.5.01,1-.05,1.494a12.638,12.638,0,0,1-.452,2.375,2.3,2.3,0,0,0-.123,1.215,2.751,2.751,0,0,1-.126,1.244c-.239.749-.928,1.375-.625,2.272a.128.128,0,0,1-.033.122c-1.277,1-1.25,3.139-3.261,3.551a1.5,1.5,0,0,0-.818.6,8.12,8.12,0,0,1-2.573,2.156,18.666,18.666,0,0,0-1.6,1.105,3.6,3.6,0,0,1-2.743.672c-.828-.093-1.652-.19-2.48-.309a3.294,3.294,0,0,1-.861-.27c-.575-.257-1.137-.549-1.9-.922a10.062,10.062,0,0,0-3.428-2.751,18.1,18.1,0,0,1-4.325-3.1,9.379,9.379,0,0,0-1.433-1.118,11.521,11.521,0,0,1-4.358-5.636,40.7,40.7,0,0,0-1.825-5.17,22.134,22.134,0,0,1-1.2-4.945c-.183-.858-.24-1.751-.4-2.616a3.266,3.266,0,0,0-.379-.938,8.4,8.4,0,0,1-.811-3.294,17.015,17.015,0,0,1,.765-5.267c.509-2.394,1.021-4.807,1.606-7.195.662-2.68,1.187-5.4,1.775-8.1a14.309,14.309,0,0,1,.492-1.857,7.234,7.234,0,0,0,.263-4.277,2.826,2.826,0,0,1,.3-1.973,5.153,5.153,0,0,0,.565-2.847.8.8,0,0,1,.013-.379c.924-2.539.07-5.055-.133-7.584a6.218,6.218,0,0,1-.1-1.006c.386-4.582.722-9.171,1.223-13.737.326-2.963.888-5.9,1.39-8.837.316-1.889.7-3.776,1.094-5.646.16-.742.549-1.456.652-2.208.472-3.419,1.629-6.687,2.311-10.058a13.664,13.664,0,0,0,.156-2.789c-.013-3.014.08-6.038-.123-9.039-.239-3.6-.6-7.2-1.15-10.762A9.966,9.966,0,0,0,149.8,9.557a8.465,8.465,0,0,0-4.688-1.877,1.224,1.224,0,0,1-.392-.067c-3.162-1.147-5.7.2-7.9,2.121a18.161,18.161,0,0,0-2.819,3.824c-1.9,2.908-2.856,6.2-4.023,9.409-.5,1.366-.948,2.744-1.466,4.107a32.55,32.55,0,0,0-1.882,9.235c-.1,1.356-.416,2.7-.482,4.052a12.863,12.863,0,0,0,2.174,7.76,2.664,2.664,0,0,1,.432,2.265,35.123,35.123,0,0,0-.9,3.968c-.206,1.343-.216,2.709-.323,4.065-.073,1.012-.253,2.028-.239,3.04a19.459,19.459,0,0,1-.915,4.833,10.459,10.459,0,0,0-.07,2.542c.02.8.1,1.6.146,2.41.007.209.043.5-.073.623a2.823,2.823,0,0,0-.612,2.471,4.794,4.794,0,0,1-1.22,2.911,2.294,2.294,0,0,0-.5,1.9,2.019,2.019,0,0,1-.475,1.912,1.162,1.162,0,0,0-.209.929,2.148,2.148,0,0,1-.356,1.69,15.77,15.77,0,0,0-1.047,1.774,5.493,5.493,0,0,0-.552,1.694,7.983,7.983,0,0,1-.785,3.194,1.682,1.682,0,0,0,.4,2.015c.233.244.469.5.705.762a1.626,1.626,0,0,1,.472,1.51,2.132,2.132,0,0,0,.239,1.449,4.228,4.228,0,0,1,.758,2.9c-1.1,1.073-1.1,1.073-.828,3.22.236,0,.479,0,.728-.013.169.289.339.579.562.948-.562.27-1.087.527-1.689.826.5.058.891.106,1.287.151-.8.553-.462,1.787-1.536,2.073a5.063,5.063,0,0,1,.492.858,4.67,4.67,0,0,1,.116.97c1.6,1.2,1.736,1.61,1.077,3.133.179.254.382.53.459.646-.063.993-.116,1.819-.169,2.645l-.037.016.023.007.027-.029a7.3,7.3,0,0,1,.429.765,3,3,0,0,1,.306.941,9.391,9.391,0,0,0,.14,2.754c.542,1.33.363,2.78,1.021,4.068a4.841,4.841,0,0,1,.1,1.822c.874.681.589,1.51-.176,2.985.931.235.981.877.8,1.648a2.418,2.418,0,0,0,.226,2.044c.3.453.11,1.205.3,1.857a5.23,5.23,0,0,0,.273-1.584,3.453,3.453,0,0,1-.066-1.568,10.783,10.783,0,0,0,.156-1.9c.841.617,1.27,1.044,1.133,1.979-.1.64-.415,1.395.1,2.086.106.138-.143.549-.273.823-.236.543-.5,1.07-.794,1.7-1.008-.022-1.273.662-1.293,1.578-.017.508-.167,1.015-.167,1.52a2.635,2.635,0,0,0,.21,1.317,1.8,1.8,0,0,1-.013,2.047,1.3,1.3,0,0,0-.116,1.311,2.4,2.4,0,0,1-.1,1.208c-.067.353-.2.691-.333,1.147-1.234.3-1.317,1.366-1.4,2.455a6.13,6.13,0,0,1-1.19,3.3c-.293.392-.293.993-.582,1.4-.642.916-.143,2.018-.715,3.011a6.757,6.757,0,0,0-.362,2.988,17.784,17.784,0,0,0,.11,3.175c.326,2.275.788,4.531,1.147,6.8.233,1.472.426,2.953.588,4.434a13.393,13.393,0,0,0,.362,1.751l5.113,7.208,7.244,1.452.921-.161c1.739-1.176,3.823-2.5,6.373-3.975l-5.063,3.747,8.711-1.53a2.573,2.573,0,0,1-.446-.61l1.067.5,4.818-.845c-1.33.508-2.56.941-3.75,1.343l10.539,4.949.516.209-1.612-2.866s1.074,1.07,3,3.429c.05.064.109.132.159.2l1.376.649c-.386-.1-.728-.206-1.094-.3.864,1.083,1.872,2.384,3.025,3.975a7.632,7.632,0,0,1,.449.826l.592-3.027c.013,1.472-.017,2.8-.086,4v.01c.7,1.828.964,4.007,1.712,6.446l-1.984-3.522a23.038,23.038,0,0,1-1.247,5.325,7.507,7.507,0,0,1,2.254.026l-2.6.8a5.375,5.375,0,0,1-.9,1.424l.239-1.228-8.544,2.616-1.991,9.872v.022l2.912,4.8c0-.251.013-.389.013-.389l9.754,11.53c-.133-.9-1.43-5.206-1.43-5.206l7.184,16.446,5.343,3.2c-.884-.517-3.694-1.285-4.385-1.751l3.344,3.712,7.56,4.206,7.231.832a8.07,8.07,0,0,1,.2-1.533l.153,1.575.515.061c-.176.058-.322.068-.5.116l.126,1.243,3.275,6.98,2.035.28c-.349-.344-.522-.556-.522-.556l1.1.639,4.688.649a24.2,24.2,0,0,1-3.012.315l3.6,2.082a11.259,11.259,0,0,1-.585-1.128l9.541,6.973L210.3,270a11.679,11.679,0,0,1,5.991,7.381l3.215.549a11.718,11.718,0,0,1-2.879.771,12.781,12.781,0,0,1,.279,2.638l-1.469-2.529a11.987,11.987,0,0,1-1.642-.064l-.918.128-.419-.328a14.451,14.451,0,0,1-2.288-.672,9.656,9.656,0,0,1,.545,1.1l-8.88-5-4.063,7.188.662.987a20.453,20.453,0,0,1,4.468,6.677c.369-.315.685-.627,1.1-.945l-.934,1.356c.047.116.106.222.143.338l-.193-.257-5.369,7.821a17.992,17.992,0,0,1-2.709,6.138,13.469,13.469,0,0,1,1.642-.55l-2.084,1.221c-.093.128-.153.247-.249.376l.093-.289-2.736,1.607-2.078,2.4-.163-1.089-.525.305-.047.813c-.1-.212-.136-.44-.216-.655l-.685.4s.249-.222.635-.546a13.256,13.256,0,0,1-.2-7.192l-.006-.022.02-.029c.013-.064.023-.116.04-.173-.173.164-.3.347-.485.5l3.564-9.618-.582-1.816a11.107,11.107,0,0,1-.718-1.854l-1.29-2.487-9.771-5.852a6.647,6.647,0,0,1,.885-.231,5.031,5.031,0,0,1-.831-.977l-.053-.023-2.483-3.728-6.034-4.659a4.269,4.269,0,0,1,.7-.276A15.957,15.957,0,0,1,167.5,266.7l-6.1-2.082-.04-.032a12.816,12.816,0,0,1-3.727-1.681c.047.116.126.215.169.331l-6.207-5.01a11.9,11.9,0,0,1,.319,1.391l-1.6-2.417-3.421-2.683s1.9,1.215,2.69,1.565l-2.125-3.223-.519-.485c-3.734-1.88-5.02-3.833-5.466-5.061a64.432,64.432,0,0,1-6.839-5.273l.981,3.059s-1.656-2.564-2.663-4.615v-.006a.447.447,0,0,1-.047-.087,19.142,19.142,0,0,1-3.139-4.441l2.587,3.146a24.943,24.943,0,0,1-1.39-7.786l-5.991-6.334-.831-.392a41.742,41.742,0,0,1-7.4-3.271l-1.978-.469-1.376,1.417-5.426,6.064,1.114.713a12.185,12.185,0,0,1-1.314-.485l-.439.485a3.868,3.868,0,0,1,.166-.611,15.8,15.8,0,0,1-5.3-3.808l-.007,0L97,221.288c.023,1.231-.007,1.832-.007,1.832l-.854-2.384L95.3,220.2s.279.08.731.247l-2.866-7.953c-.05.029-.11.061-.163.093a11.038,11.038,0,0,0-1.433,1.118,40.574,40.574,0,0,1-4.9,3.393,2.211,2.211,0,0,1-1.506.3c-2.171-.469-4.345-.974-6.486-1.6a15.94,15.94,0,0,1-2.55-1.3,14.191,14.191,0,0,0-1.755-.852c-1.712-.614-3.464-1.134-5.176-1.761-1.675-.614-3.341-1.253-4.954-2a5.58,5.58,0,0,1-2.839-2.179,5.7,5.7,0,0,1-.439-1.3c-.15-.569-.226-1.169-.412-1.722a7.181,7.181,0,0,1-.7-3.718,1.22,1.22,0,0,0-.027-.5c-.475-1.854-.931-3.708-1.446-5.553a9.091,9.091,0,0,0-.791-2.015,3.87,3.87,0,0,0-1.865-2.06,2.455,2.455,0,0,1-.917-.893,15.913,15.913,0,0,1-2.986-8.049,7.108,7.108,0,0,0-1.825-4.428c-1.23-1.343-2.487-2.651-3.607-4.062a29.922,29.922,0,0,1-2.261-3.438,10.467,10.467,0,0,1-1.353-6,8.191,8.191,0,0,0-2.254-6.109,4.812,4.812,0,0,1-.625-.819,22.481,22.481,0,0,0-4.212-5.055,12.963,12.963,0,0,1-3.172-4.181c-.818-1.832-1.868-3.564-2.773-5.36a5.52,5.52,0,0,1-.449-1.588A4.209,4.209,0,0,0,25.66,137c-.263-.048-.515-.132-.768-.173-1.955-.292-3.916-.537-5.855-.9a3.987,3.987,0,0,1-1.726-.819,7.083,7.083,0,0,0-2.148-1.189,25.4,25.4,0,0,1-2.713-1.292,9.082,9.082,0,0,0-7.9-.244,6.634,6.634,0,0,0-2.493,2.227,8.38,8.38,0,0,0-2.008,6.054,4.58,4.58,0,0,0,.582,1.53c.8,1.462,1.705,2.869,2.457,4.354a7.668,7.668,0,0,1,.675,2.32,16.032,16.032,0,0,0,1.459,4.065c.958,2.143,1.7,4.38,2.52,6.581a29.025,29.025,0,0,0,2.8,5.556l-.034.016c.166.755.851,1.247,1.054,2.018a11.014,11.014,0,0,0,1.077,2.323c.386.72.831,1.4,1.283,2.079.359.543.728,1.073,1.124,1.575,1.6,2.028,3.122,4.123,4.854,6.044a42.06,42.06,0,0,0,4.495,4.126,16.224,16.224,0,0,1,2.786,3.217,17.365,17.365,0,0,0,1.307,1.726c.931.961,1.965,1.832,2.886,2.805a7.693,7.693,0,0,1,1.167,1.684c.742,1.4,1.39,2.838,2.151,4.229a23.78,23.78,0,0,0,1.838,2.937,17.023,17.023,0,0,0,4.388,3.641c.429.276.771.684,1.19.983.831.6,1.729,1.147,2.553,1.764a25.093,25.093,0,0,1,2.809,2.31c1.549,1.575,1.519,3.535,1.213,5.527a29.059,29.059,0,0,0-.469,3.525,37.633,37.633,0,0,0,.156,5.087c.293,2.519,1.479,4.791,2.49,7.1a4.058,4.058,0,0,1,.336.819,20.1,20.1,0,0,0,2.324,6.211c1.569,2.629,2.719,5.444,4.162,8.108,1.207,2.217,1.878,4.579,2.859,6.851.226.53.109,1.334.974,1.523.033.007,0,.283,0,.44a3.01,3.01,0,0,0,1.948,3.12,7.964,7.964,0,0,1,4.182,3.682c.219.45.638.8.9,1.237a8.883,8.883,0,0,1,.515,1.359c-.642-.241-1.014-.379-1.483-.559-.116.765.382,1.25.6,1.812a6.82,6.82,0,0,0,.469.749,1.069,1.069,0,0,0,1.662.456,5.162,5.162,0,0,1,.568-.225c.24.62.445,1.163.682,1.774a.433.433,0,0,1-.781,0c-.332-.46-.668-.476-1.233-.386a4.174,4.174,0,0,1-2-.251,7.806,7.806,0,0,1-1.576-1.1c-.293.623.382.787.588,1.157.2.35.725.533.485,1.07a.277.277,0,0,0,.033.241c1.134,1.26,1.423,2.931,2.3,4.322a12.168,12.168,0,0,1,.911,1.96,29.463,29.463,0,0,0,2.4,4.389c.356.578.884.324,1.446-.241-.02.521-.033.832-.04,1.141.519.444,1.061.88,1.553,1.356a1.641,1.641,0,0,1,.439.739A9.036,9.036,0,0,0,77.8,284.1a.968.968,0,0,1,.236.418,5.531,5.531,0,0,0,1.905,3.2.734.734,0,0,1,.263.437c.289,1.7,1.35,3.066,2.1,4.563a12.315,12.315,0,0,0,1.463,2.4,30.352,30.352,0,0,0,3.168,3.252,15.241,15.241,0,0,1,2.643,3.323,13.805,13.805,0,0,0,1.21,1.494c.253.3.588.517.841.816a20.335,20.335,0,0,0,4.332,4.084c.675.456,1.177,1.141,1.815,1.661a5.9,5.9,0,0,0,1.21.639c.116.058.343.029.369.087.349,1.025,1.413.527,2.094,1,.183-.392.336-.726.5-1.067.868.164,1.709.318,2.643.5a.885.885,0,0,1-.954.594l-1.646.267c-.08.148-.16.289-.336.588a2.907,2.907,0,0,0,.914-.007.95.95,0,0,1,1.17.1c.339-.212.688-.431,1.18-.733-.014.35.07.649-.04.752-.482.466-.18.7.213.942l-.02.019c-.037.119-.077.238-.12.363-.419-.151-.825-.183-.928.347-.093.431.243.556.618.652.186.045.479.273.462.357a.906.906,0,0,0,.435.987c1.051.762,2.1,1.5,3.152,2.246.355.251.738.469,1.18.752.086-.035.283-.116.485-.19a.661.661,0,0,1,.146.173c.116.244.143.627.339.723a13.436,13.436,0,0,0,2.174.9c1.034.3,2.1.543,3.155.774,2.357.5,4.711,1.022,7.081,1.481a42.926,42.926,0,0,0,4.285.643,13.5,13.5,0,0,0,2.361-.186,39.7,39.7,0,0,1,7.593.035,12.022,12.022,0,0,1,5.908,2.526c.874.633,1.845,1.144,2.733,1.767.994.7,1.908,1.507,2.912,2.182,1.353.913,2.6,2.037,4.325,2.323a2.123,2.123,0,0,1,.771.44,2.928,2.928,0,0,0,2.058.643c.362-.045.758.28,1.15.405.359.112.718.6,1.1.067a.848.848,0,0,1,.635-1.167c.628-.231,1.24-.749,1.869-.758a7.562,7.562,0,0,1,2.184.614c.023-.344.05-.765.083-1.17a22.076,22.076,0,0,1,1.995,1.263c.718.559,1.9.074,2.307.614.708.926,1.463-.148,2.048.469.066-.347.11-.547.16-.749.9.456,1.8.906,2.789,1.4-.09.128-.233.347-.379.572v-.006c-.542.035-1.09.071-1.861.119.468.292.758.485,1.06.672-.013.058-.03.113-.044.17-.951-.167-1.888-.325-2.935-.5-.037.566.03.877.665.829.529-.042,1.067-.029,1.709-.042.09.566.17,1,.243,1.433-.177-.029-.363-.068-.549-.1a5.023,5.023,0,0,0,2.361,2.012,10.681,10.681,0,0,0,3.584,1.163c2.48.251,4.97.556,7.3-.752a13.879,13.879,0,0,1,2.351-.835,12.172,12.172,0,0,0,5.788-4.206c.283-.363.615-.687.934-1.044v.013c.439-.264.918-.421,1.107-1.009.116-.35.552-.614.864-.893.25-.228.535-.4.821-.62l-1.174-1.073,2.158-.688c-.356-1.137.326-1.938,1.191-2.67-1.091-.286-1.31-.62-1.008-1.6.332.6,1.21.267,1.466.974a.627.627,0,0,0,.472.071c.5-.665,1.187-.324,1.955-.292-.213-.3-.359-.5-.525-.749.775-.733,2.327-.453,2.43-1.706.409-.119.818-.125,1.034-.321,1.543-1.452,3-2.979,4.558-4.406a33.409,33.409,0,0,0,4.438-5.527c2.121-2.979,4.262-5.929,6.4-8.892.835-1.141,1.646-2.31,2.51-3.429.575-.742,1.267-1.4,1.829-2.143.578-.765,1.067-1.587,1.692-2.532a1.241,1.241,0,0,0,1.144-.89c.3-.717-.6-.736-.708-1.2.825-.871.948-.893,2.264-.373.183-.8,1.117-1.24.954-2.246-.046-.257.422-.595.662-.893.233-.28.482-.553.674-.778-.565-.858-1.047-1.594-1.535-2.326-.083.035-.17.084-.253.129.17.344.339.684.592,1.208-.279-.083-.412-.129-.542-.158l.013-.009c-.738-.366-.768-.357-1.018.379l-.016-.006,0,.045.033-.013c.249.2.5.415.778.643-.452.019-.841.787-1.483.148a1.348,1.348,0,0,0-1.749-.72c.016-.1.03-.2.053-.3a4.177,4.177,0,0,0,.795-.408c.242-.222.405-.543.631-.8.339-.385.545.01.8.148.133-.273.06-.729.6-.672l-.013-.019c.319-.048.652-.093,1.061-.145-.06-.495-.106-.893-.149-1.318.282-.071.651-.055.851-.225.492-.424.3-1-.346-1.118-.336-.061-.682-.058-1.163-.093.7-.386,1.27-.7,2.064-1.144-.542-.174-.838-.27-1.124-.363,0-.055.007-.1.007-.154.322-.051.644-.1.947-.148a10.045,10.045,0,0,1,.855-1.054c.442-.437.838.08,1.449.369-.179-.485-.253-.7-.352-.948a10.346,10.346,0,0,1,2.956-2.494c.153.36.286.652.478,1.1a11.781,11.781,0,0,0,2.839-3.76c.971-2.179,1.909-4.377,2.859-6.565a1.734,1.734,0,0,0,.18-.739,3.627,3.627,0,0,1,.878-2.208c.389-.62.808-1.221,1.214-1.828.625-.922,1.207-1.867,1.888-2.747a4.137,4.137,0,0,1,1.3-1.054,3.084,3.084,0,0,0,1.543-1.668,14.206,14.206,0,0,1,.635-1.542,9.889,9.889,0,0,1,1.293-2.047,2.76,2.76,0,0,0,.845-1.935,3.2,3.2,0,0,1,1.26-2.683,9.78,9.78,0,0,0,3.208-5.3c.6-2,1.466-3.914,2.214-5.861.063-.167.173-.305.242-.463.475-1.083.376-1.539-.6-2.394.243-.456.525-.935.751-1.433.233-.514.425-1.048-.189-1.491-.133-.09-.3-.276-.3-.4.053-.447.226-.89.245-1.337.014-.411-.329-.957-.153-1.218.6-.851.189-1.613.033-2.494-.319.106-.575.186-1.11.363a1.782,1.782,0,0,0,.356-1.941,1.862,1.862,0,0,1,.179-1.211c.635-1.539.229-2.5-1.336-3.082a10.346,10.346,0,0,1,.18-4.412,3.2,3.2,0,0,0,.106-1.385,17.174,17.174,0,0,1-.3-4.569c0-.212-.086-.456-.01-.63.891-2.07.369-4.284.8-6.385a3.915,3.915,0,0,1,1.789-2.59,8.429,8.429,0,0,0,3.461-3.744,1.732,1.732,0,0,1,.309-.408c1.383-1.6,2.809-3.149,4.146-4.791a8.592,8.592,0,0,1,4.113-2.85,14.52,14.52,0,0,0,3.062-1.475A23.365,23.365,0,0,0,279,184.533a1.226,1.226,0,0,1,.283-.267q2.758-1.62,5.526-3.233a9.18,9.18,0,0,0,1.11-.671,40.09,40.09,0,0,0,6.3-6.318c1.007-1.237,2.157-2.371,3.142-3.615.744-.945,1.337-1.992,2-2.995.9-1.356,1.786-2.728,2.73-4.059,1.443-2.037,2.942-4.03,4.4-6.057.9-1.253,1.772-2.529,2.6-3.83a15.173,15.173,0,0,0,.815-1.738,5.461,5.461,0,0,1,2.57-2.8,8.887,8.887,0,0,0,4.362-4.933c.5-1.228.907-2.484,1.413-3.711.406-.99.874-1.951,1.343-2.908a57.323,57.323,0,0,1,4.269-7.33,3.576,3.576,0,0,0,.538-1.022,11.23,11.23,0,0,1,1.4-3.683c.153-.206.08-.556.119-.935,0,0,5.535-14.9-8.052-17.468" transform="translate(0 0)"/>
    <path id="Path_55" data-name="Path 55" class="cls-2" d="M.04,110.574c.1,1.329.348,2.634.469,3.959a17.425,17.425,0,0,1,.2,5.125,12.7,12.7,0,0,0,.068,2.576c.019,1.068.062,2.149-.013,3.214A4.211,4.211,0,0,0,2.2,128.616a1.887,1.887,0,0,1,.531.824c.114.671.547.928,1.176,1.107a3.731,3.731,0,0,1,2.579-.915.8.8,0,0,0,.466-.2c.628-.495,1.273-.98,1.863-1.534a4.335,4.335,0,0,0,.921-1.2c.414-.847.651-1.788,1.12-2.608a15.208,15.208,0,0,1,1.814-2.484c.973-1.074,2.045-2.048,3.051-3.08a31.753,31.753,0,0,0,4.252-5.835c.309-.515.7-.974,1.061-1.456a1.889,1.889,0,0,0,.384-.514,17.72,17.72,0,0,1,2.5-4.181,20.285,20.285,0,0,0,.973-1.96,16.848,16.848,0,0,1,2.7-3.445,4.186,4.186,0,0,0,1.332-3.357c-.169-2.048.993-3.712,1.762-5.47a3.429,3.429,0,0,0,.42-2.214c-.469-2.12.257-4.1.739-6.109.449-1.882.911-3.767,1.423-5.636.364-1.328.83-2.628,1.253-3.933.821-2.5,1.654-4.979,2.452-7.486.42-1.306.785-2.634,1.137-3.96a28.591,28.591,0,0,1,3.357-7.118A44.3,44.3,0,0,0,45.766,46.9,29.56,29.56,0,0,1,47.6,42.771c1.638-3.328,3.318-6.629,4.972-9.951a56.879,56.879,0,0,0,3.676-8.954,24.916,24.916,0,0,0,1.173-10.075,16.479,16.479,0,0,0-1.1-5.408A15.846,15.846,0,0,0,50.64,1.691,10.356,10.356,0,0,0,43.659.06,10.179,10.179,0,0,0,38.742,1.8a34.685,34.685,0,0,0-4.77,4.155c-1.905,1.856-2.989,4.217-4.236,6.467a13.048,13.048,0,0,0-.905,2.83c-.6,2.253-1.208,4.5-1.749,6.763q-1.006,4.21-1.921,8.443c-.4,1.85-.723,3.718-1.133,5.568a5.587,5.587,0,0,1-.68,1.791,18.333,18.333,0,0,0-2.185,5.366c-.212.785-.492,1.566-.775,2.331-1.136,3.051-1.521,6.278-2.24,9.426-.319,1.377-.654,2.768-1.006,4.145-.41,1.583-.775,3.191-1.283,4.741-.472,1.43-1.114,2.8-1.68,4.194-.938,2.318-1.957,4.6-2.791,6.948A22.808,22.808,0,0,1,9.1,79.152C8.418,80.288,7.617,81.36,6.936,82.5a5.383,5.383,0,0,0-.573,1.566,17.393,17.393,0,0,1-2.52,5.643,8.664,8.664,0,0,0-1.237,3.1c-.6,3.22-1.211,6.444-1.762,9.674a34.04,34.04,0,0,0-.8,8.095" transform="translate(219.458 38.204)"/>
    <path id="Path_56" data-name="Path 56" class="cls-2" d="M0,.237c.482.392.956.788,1.617,1.331.262-.278.637-.7,1.168-1.274C1.6.163.841.082.09,0,.061.082.033.159,0,.237" transform="translate(229.637 271.446)"/>
    <path id="Path_57" data-name="Path 57" class="cls-2" d="M0,1.711a2.45,2.45,0,0,0,1.482-.9C1.519.617,1.559.416,1.633,0,.939.527.106.588,0,1.711" transform="translate(169.027 335.723)"/>
    <path id="Path_58" data-name="Path 58" class="cls-2" d="M0,.012,0,.057A.265.265,0,0,1,.061.074L.02,0,0,.012" transform="translate(170.383 336.519)"/>
    <path id="Path_59" data-name="Path 59" class="cls-2" d="M0,1.474C.914,1.2,1.265.931.914,0,.6.514.375.857,0,1.474" transform="translate(229.303 272.621)"/>
    <path id="Path_60" data-name="Path 60" class="cls-2" d="M1.907.633C1.3.437.694.233,0,0,.523,1.086.7,1.143,1.907.633" transform="translate(121.989 113.874)"/>
    <path id="Path_61" data-name="Path 61" class="cls-2" d="M1.046,0C.731.372.413.751,0,1.229,1.2,1.148,1.225,1.135,1.046,0" transform="translate(102.814 304.838)"/>
    <path id="Path_62" data-name="Path 62" class="cls-2" d="M0,.094A.22.22,0,0,0,.057.037L.021,0,0,.02,0,.094" transform="translate(103.725 304.744)"/>
    <path id="Path_63" data-name="Path 63" class="cls-2" d="M1.441,0C.959.2.482.4,0,.6.057.731.106.849.163.98c.473-.2.951-.408,1.429-.617C1.535.241,1.49.118,1.441,0" transform="translate(230.014 267.933)"/>
    <path id="Path_64" data-name="Path 64" class="cls-2" d="M1.245.409C.722-.236.339-.048,0,.487c.457.641.837.331,1.245-.078" transform="translate(158.374 331.435)"/>
    <path id="Path_65" data-name="Path 65" class="cls-2" d="M.011.056.04.017.023,0,0,.028Z" transform="translate(158.454 331.903)"/>
    <path id="Path_66" data-name="Path 66" class="cls-2" d="M0,.265C.09.277.2.331.257.3S.331.139.376.057C.257.033.147.016.033,0A1.938,1.938,0,0,0,0,.265" transform="translate(233.084 263.974)"/>
  </g>
</svg>
