<svg id="Group_124" data-name="Group 124" xmlns="http://www.w3.org/2000/svg" width="27.776" height="22.818" viewBox="0 0 27.776 22.818">
  <defs>
    <style>
      .cls-1 {
        fill: #fff;
      }
    </style>
  </defs>
  <g id="Group_124-2" data-name="Group 124" transform="translate(0)">
    <path id="Path_529" data-name="Path 529" class="cls-1" d="M330.054,561.431v-.858h-.336v.05h-2.692v2.859H330.1v-.858h-.336V563h-1.92v-.779h2.027v-.483h-2.027V561.1h1.876v.326Zm8.51.8q.6.091.763.125a1,1,0,0,1,.342.124.21.21,0,0,1,.1.173c0,.1-.077.2-.232.275a1.581,1.581,0,0,1-.695.118,1.516,1.516,0,0,1-.689-.132.678.678,0,0,1-.249-.219h.4v-.261h-1.66v.261h.285a1.038,1.038,0,0,0,.534.589,3.032,3.032,0,0,0,1.373.25,4.317,4.317,0,0,0,1.027-.1,1.415,1.415,0,0,0,.637-.319.634.634,0,0,0,.226-.461.612.612,0,0,0-.189-.455,1.29,1.29,0,0,0-.521-.29,6.748,6.748,0,0,0-1.029-.206,3.584,3.584,0,0,1-.875-.191c-.095-.048-.142-.106-.142-.173s.051-.133.151-.177a1.662,1.662,0,0,1,.651-.1,1.444,1.444,0,0,1,.6.1.457.457,0,0,1,.186.154h-.289v.26h1.66v-.26h-.366a.812.812,0,0,0-.447-.492,2.955,2.955,0,0,0-1.337-.237,3.756,3.756,0,0,0-.928.1,1.354,1.354,0,0,0-.589.29.551.551,0,0,0-.2.409.678.678,0,0,0,.435.576A3.569,3.569,0,0,0,338.564,562.228Zm4.734-5.464v22.818H319.473V556.764Zm-1.231,2.615v-.671H321.381v.671Zm-.338,17.7v-.671H329.32v.671Zm0-1.695v-.671H329.32v.671Zm0-1.737v-.671H329.32v.671Zm0-2.236v-3.806H329.32v3.806Zm0-5.987v-.671H321.042v.671Zm-4.993-4.643v-.209h-1.7v.209h.514l-.553,1.838-.685-2h-.938l-.715,1.964-.54-1.8h.556v-.209h-1.7v.209h.343l.88,2.7h.855l.776-2.139.778,2.139h.838l.9-2.7Zm-8.757,16.3v-9.474h-6.936v9.474ZM325.9,560.8v-.179h-1.6v.179h.513v1.73l-1.633-1.909H322.4V563.3h-.429v.18h1.6v-.18h-.421v-1.685l1.609,1.865h.807V560.8Z" transform="translate(-315.521 -556.764)"/>
    <path id="Path_530" data-name="Path 530" class="cls-1" d="M299.188,597.66v.857h-1.91l-1.4-19.009h3.313v.769h-2.572l1.367,17.384Z" transform="translate(-295.874 -575.699)"/>
  </g>
</svg>
