<svg xmlns="http://www.w3.org/2000/svg" width="17.971" height="17.333" viewBox="0 0 17.971 17.333">
  <g id="noun_Search_1051895" transform="translate(-14 -15)">
    <g id="Group_2" data-name="Group 2" transform="translate(14 15)">
      <path id="Path_307" data-name="Path 307" d="M22.218,15A7.357,7.357,0,0,0,15,22.489a7.357,7.357,0,0,0,7.218,7.489,7.358,7.358,0,0,0,7.218-7.489A7.358,7.358,0,0,0,22.218,15Zm0,13.909a6.306,6.306,0,0,1-6.187-6.419,6.306,6.306,0,0,1,6.187-6.419A6.306,6.306,0,0,1,28.4,22.489,6.306,6.306,0,0,1,22.218,28.909Z" transform="translate(-15 -15)"/>
    </g>
    <path id="Path_308" data-name="Path 308" d="M0,.007,1.245,0l.007,6.733L.007,6.74Z" transform="translate(26.123 27.823) rotate(-48)"/>
  </g>
</svg>
