<svg xmlns="http://www.w3.org/2000/svg" width="14.39" height="18.107" viewBox="0 0 14.39 18.107">
  <defs>
    <style>
      .cls-1 {
        fill: none;
      }

      .cls-2, .cls-4 {
        fill: #fff;
      }

      .cls-3, .cls-4 {
        stroke: none;
      }
    </style>
  </defs>
  <g id="noun_member_1682970" transform="translate(-14.237 -5)">
    <g id="Group_170" data-name="Group 170" transform="translate(14.238 5)">
      <g id="Group_169" data-name="Group 169">
        <g id="Group_168" data-name="Group 168">
          <g id="Path_618" data-name="Path 618" class="cls-1" transform="translate(-25.064 -6.563)">
            <path class="cls-3" d="M32.122,15.619a4.331,4.331,0,1,0-4.331-4.331A4.336,4.336,0,0,0,32.122,15.619Z"/>
            <path class="cls-4" d="M 32.12189102172852 14.91858005523682 C 34.12397003173828 14.91858005523682 35.75278091430664 13.28977012634277 35.75278091430664 11.28769016265869 C 35.75278091430664 9.285719871520996 34.12397003173828 7.657000064849854 32.12189102172852 7.657000064849854 C 30.11981010437012 7.657000064849854 28.49100112915039 9.285810470581055 28.49100112915039 11.28789043426514 C 28.49100112915039 13.28986072540283 30.11981010437012 14.91858005523682 32.12189102172852 14.91858005523682 M 32.12189102172852 15.61857986450195 C 29.73404121398926 15.61857986450195 27.79100036621094 13.675950050354 27.79100036621094 11.28789043426514 C 27.79100036621094 8.899840354919434 29.73384094238281 6.957000255584717 32.12189102172852 6.957000255584717 C 34.50995254516602 6.957000255584717 36.45278167724609 8.899630546569824 36.45278167724609 11.28769016265869 C 36.45278167724609 13.67575073242188 34.50995254516602 15.61857986450195 32.12189102172852 15.61857986450195 Z"/>
          </g>
          <g id="Path_619" data-name="Path 619" class="cls-1" transform="translate(-15.801 -44.618)">
            <path class="cls-3" d="M25.242,54.6,23.026,58.19a.2.2,0,0,1-.335,0l-2.158-3.5a8.372,8.372,0,0,0-4.335,6.8.775.775,0,0,0,.194.6.733.733,0,0,0,.55.244H29.049a.733.733,0,0,0,.55-.244.775.775,0,0,0,.194-.6A8.25,8.25,0,0,0,25.242,54.6Z"/>
            <path class="cls-4" d="M 25.50429344177246 55.50503158569336 L 23.62222862243652 58.55696105957031 C 23.46029853820801 58.82015991210938 23.17483901977539 58.97729873657227 22.85861015319824 58.97729873657227 C 22.54294967651367 58.97729873657227 22.2576789855957 58.82056045532227 22.09528923034668 58.55767059326172 L 20.28559875488281 55.62397766113281 C 18.4565372467041 56.76284790039062 17.14987945556641 59.02097320556641 16.89494895935059 61.56002044677734 C 16.89277839660645 61.58166122436523 16.89918899536133 61.60367965698242 16.91152000427246 61.6173095703125 C 16.92108917236328 61.62788009643555 16.927978515625 61.63093948364258 16.94221878051758 61.63093948364258 L 29.04907989501953 61.63093948364258 C 29.06349945068359 61.63093948364258 29.07008934020996 61.62800979614258 29.0793399810791 61.61780166625977 C 29.09210014343262 61.60367965698242 29.09840965270996 61.58232116699219 29.09615898132324 61.56008911132812 C 28.82979583740234 58.90628051757812 27.44374084472656 56.59902954101562 25.50429344177246 55.50503158569336 M 25.24246978759766 54.59600067138672 C 27.69672012329102 55.64376068115234 29.47538948059082 58.32918167114258 29.79265975952148 61.49018096923828 C 29.81478881835938 61.70886993408203 29.74396896362305 61.92634963989258 29.59871864318848 62.08710098266602 C 29.45648002624512 62.24422073364258 29.26132965087891 62.33094024658203 29.04907989501953 62.33094024658203 L 16.94221878051758 62.33094024658203 C 16.73016929626465 62.33094024658203 16.53481864929199 62.24422073364258 16.39258003234863 62.08710098266602 C 16.24732971191406 61.92655181884766 16.17650985717773 61.70886993408203 16.19843864440918 61.49018096923828 C 16.5040397644043 58.44646072387695 18.1980094909668 55.79969024658203 20.53314971923828 54.69197082519531 L 22.69105911254883 58.19015884399414 C 22.72695541381836 58.24828338623047 22.79279136657715 58.27729797363281 22.85860443115234 58.27729797363281 C 22.92446708679199 58.27729797363281 22.99030685424805 58.24822235107422 23.02602958679199 58.19015884399414 L 25.24246978759766 54.59600067138672 Z"/>
          </g>
          <g id="Path_620" data-name="Path 620" class="cls-2" transform="translate(-23.502 -5)">
            <path class="cls-3" d="M30.559,14.449a4.724,4.724,0,1,0-4.724-4.724A4.73,4.73,0,0,0,30.559,14.449Zm0-9.055a4.331,4.331,0,1,1-4.331,4.331A4.336,4.336,0,0,1,30.559,5.394Z"/>
            <path class="cls-4" d="M 30.55941009521484 14.44881916046143 C 27.9544792175293 14.44881916046143 25.83500099182129 12.32953929901123 25.83500099182129 9.724409103393555 C 25.83500099182129 7.119278907775879 27.95428085327148 4.999999046325684 30.55941009521484 4.999999046325684 C 33.1645393371582 4.999999046325684 35.28382110595703 7.119278907775879 35.28382110595703 9.724409103393555 C 35.28382110595703 12.32953929901123 33.1645393371582 14.44881916046143 30.55941009521484 14.44881916046143 Z M 30.55941009521484 5.39371919631958 C 28.17156028747559 5.39371919631958 26.22851943969727 7.336349010467529 26.22851943969727 9.724409103393555 C 26.22851943969727 12.11246871948242 28.17135047912598 14.05529880523682 30.55941009521484 14.05529880523682 C 32.94747161865234 14.05529880523682 34.89030075073242 12.11266899108887 34.89030075073242 9.724609375 C 34.89030075073242 7.336549282073975 32.94747161865234 5.39371919631958 30.55941009521484 5.39371919631958 Z"/>
          </g>
          <g id="Path_621" data-name="Path 621" class="cls-2" transform="translate(-14.238 -42.862)">
            <path class="cls-3" d="M28.621,59.695a8.591,8.591,0,0,0-4.95-7.283.2.2,0,0,0-.24.08L21.3,55.955l-2.081-3.374a.2.2,0,0,0-.247-.077,8.6,8.6,0,0,0-4.724,7.19,1.169,1.169,0,0,0,.294.9,1.122,1.122,0,0,0,.842.373H27.486a1.121,1.121,0,0,0,.842-.374A1.169,1.169,0,0,0,28.621,59.695Zm-.586.636a.733.733,0,0,1-.55.244H15.379a.734.734,0,0,1-.55-.244.776.776,0,0,1-.194-.6,8.372,8.372,0,0,1,4.335-6.8l2.158,3.5a.2.2,0,0,0,.335,0l2.216-3.594a8.251,8.251,0,0,1,4.55,6.894A.775.775,0,0,1,28.036,60.331Z"/>
            <path class="cls-4" d="M 27.48601150512695 60.96826553344727 L 15.37915134429932 60.96826553344727 C 15.05444049835205 60.96826553344727 14.75548076629639 60.83568572998047 14.53760051727295 60.59486389160156 C 14.31770133972168 60.35183334350586 14.21067047119141 60.02370452880859 14.24367141723633 59.69456481933594 C 14.57522106170654 56.39474487304688 16.38507080078125 53.63952255249023 18.96727180480957 52.50424575805664 C 18.99295043945312 52.4927864074707 19.01991271972656 52.48732376098633 19.04653167724609 52.48732376098633 C 19.1129207611084 52.48732376098633 19.17716026306152 52.52129745483398 19.21392059326172 52.58089447021484 L 21.29537010192871 55.95535278320312 L 23.43215179443359 52.49096298217773 C 23.46888732910156 52.43151092529297 23.53287887573242 52.39726257324219 23.59946441650391 52.39726257324219 C 23.62368583679199 52.39726257324219 23.64825057983398 52.40179443359375 23.67197036743164 52.41129302978516 C 26.3400707244873 53.46449279785156 28.28290176391602 56.32331466674805 28.62149047851562 59.69456481933594 C 28.65449142456055 60.02370452880859 28.54746055603027 60.35163497924805 28.32757186889648 60.59466552734375 C 28.10969161987305 60.83568572998047 27.8109302520752 60.96826553344727 27.48601150512695 60.96826553344727 Z M 18.97009086608887 52.93558502197266 C 16.63494110107422 54.04330444335938 14.94097137451172 56.6900749206543 14.63537120819092 59.73379516601562 C 14.61344051361084 59.95248413085938 14.68426132202148 60.16996383666992 14.82951068878174 60.33070373535156 C 14.97195053100586 60.48783493041992 15.16710090637207 60.57454299926758 15.37915134429932 60.57454299926758 L 27.48601150512695 60.57454299926758 C 27.69806098937988 60.57454299926758 27.89341163635254 60.48783493041992 28.0356502532959 60.33070373535156 C 28.18110084533691 60.170166015625 28.2517204284668 59.95248413085938 28.22979164123535 59.73379516601562 C 27.9121208190918 56.57259368896484 26.13365173339844 53.88738250732422 23.67941093444824 52.83961486816406 L 21.46296119689941 56.43377304077148 C 21.42723274230957 56.49184417724609 21.36141014099121 56.52090835571289 21.29554176330566 56.52090835571289 C 21.229736328125 56.52090835571289 21.16388320922852 56.49188613891602 21.12799072265625 56.43377304077148 L 18.97009086608887 52.93558502197266 Z"/>
          </g>
        </g>
      </g>
    </g>
  </g>
</svg>
