<svg xmlns="http://www.w3.org/2000/svg" width="20" height="19" viewBox="0 0 20 19">
  <defs>
    <style>
      .cls-1 {
        fill: #fff;
      }
    </style>
  </defs>
  <g id="noun_Survey_1603728" transform="translate(262 59)">
    <g id="Group_171" data-name="Group 171" transform="translate(-264 -61)">
      <path id="Path_622" data-name="Path 622" class="cls-1" d="M14,3H13V2H5V3H4A2,2,0,0,0,2,5V19a2,2,0,0,0,2,2H14a2,2,0,0,0,2-2V5A2,2,0,0,0,14,3ZM6,3h6V4H6Zm9,16a1,1,0,0,1-1,1H4a1,1,0,0,1-1-1V5A1,1,0,0,1,4,4H5V5h8V4h1a1,1,0,0,1,1,1ZM5,7h8V8H5Zm0,3h8v1H5Zm0,3h8v1H5Zm0,3H9v1H5ZM21,3H19a1,1,0,0,0-1,1V19l2,2,2-2V4A1,1,0,0,0,21,3ZM19,4h2V6H19Zm2,14.586-1,1-1-1V7h2Z"/>
    </g>
  </g>
</svg>
