<svg xmlns="http://www.w3.org/2000/svg" width="13.93" height="11.32" viewBox="0 0 13.93 11.32">
  <defs>
    <style>
      .cls-1 {
        fill-rule: evenodd;
      }
    </style>
  </defs>
  <path id="Path_321" data-name="Path 321" class="cls-1" d="M82.5,102.325q.008.184.008.37A8.128,8.128,0,0,1,70,109.542a5.768,5.768,0,0,0,4.231-1.183,2.861,2.861,0,0,1-2.67-1.985,2.86,2.86,0,0,0,1.291-.049,2.86,2.86,0,0,1-2.293-2.8c0-.012,0-.024,0-.036a2.846,2.846,0,0,0,1.294.357,2.861,2.861,0,0,1-.884-3.816,8.114,8.114,0,0,0,5.891,2.986,2.86,2.86,0,0,1,4.87-2.607,5.721,5.721,0,0,0,1.815-.693,2.866,2.866,0,0,1-1.257,1.581,5.715,5.715,0,0,0,1.641-.45A5.8,5.8,0,0,1,82.5,102.325Z" transform="translate(-69.999 -99.506)"/>
</svg>
