<svg xmlns="http://www.w3.org/2000/svg" width="17.806" height="14.47" viewBox="0 0 17.806 14.47">
  <defs>
    <style>
      .cls-1 {
        fill: #a3a3a3;
        fill-rule: evenodd;
      }
    </style>
  </defs>
  <path id="Path_321" data-name="Path 321" class="cls-1" d="M85.982,103.11q.01.235.011.473A10.389,10.389,0,0,1,70,112.335a7.373,7.373,0,0,0,5.408-1.513,3.657,3.657,0,0,1-3.413-2.537,3.656,3.656,0,0,0,1.65-.062,3.655,3.655,0,0,1-2.93-3.582c0-.015,0-.031,0-.046a3.638,3.638,0,0,0,1.655.457,3.657,3.657,0,0,1-1.13-4.877,10.371,10.371,0,0,0,7.529,3.817,3.655,3.655,0,0,1,6.225-3.332,7.312,7.312,0,0,0,2.32-.886,3.664,3.664,0,0,1-1.606,2.021,7.3,7.3,0,0,0,2.1-.575A7.418,7.418,0,0,1,85.982,103.11Z" transform="translate(-69.999 -99.506)"/>
</svg>
