<svg id="Twitter_Icon" data-name="Twitter Icon" xmlns="http://www.w3.org/2000/svg" width="32.835" height="32.835" viewBox="0 0 32.835 32.835">
  <defs>
    <style>
      .cls-1 {
        fill: #fff;
        fill-rule: evenodd;
      }
    </style>
  </defs>
  <circle id="Ellipse_1" data-name="Ellipse 1" cx="16.417" cy="16.417" r="16.417"/>
  <path id="Path_324" data-name="Path 324" class="cls-1" d="M86.931,103.324q.011.249.011.5A11.006,11.006,0,0,1,70,113.1a7.811,7.811,0,0,0,5.73-1.6,3.874,3.874,0,0,1-3.615-2.688,3.872,3.872,0,0,0,1.748-.066,3.873,3.873,0,0,1-3.1-3.795c0-.016,0-.033,0-.049a3.855,3.855,0,0,0,1.753.484,3.874,3.874,0,0,1-1.2-5.167,10.987,10.987,0,0,0,7.977,4.044,3.872,3.872,0,0,1,6.594-3.53,7.747,7.747,0,0,0,2.457-.939,3.881,3.881,0,0,1-1.7,2.141,7.738,7.738,0,0,0,2.223-.609A7.858,7.858,0,0,1,86.931,103.324Z" transform="translate(-63.184 -90.833)"/>
</svg>
