<svg id="Group_125" data-name="Group 125" xmlns="http://www.w3.org/2000/svg" width="27.776" height="24.94" viewBox="0 0 27.776 24.94">
  <defs>
    <style>
      .cls-1 {
        fill: #fff;
      }
    </style>
  </defs>
  <path id="Path_531" data-name="Path 531" class="cls-1" d="M602.853,57.779a12.47,12.47,0,1,1,0,24.94H602.7a12.518,12.518,0,0,1-2.495-.25,16.271,16.271,0,0,1-1-1.7,6.505,6.505,0,0,0,2.321,1.037,10.237,10.237,0,0,1-1.172-3,15.972,15.972,0,0,1-2.186-.469c-.107-.308-.21-.624-.3-.944a15.469,15.469,0,0,0,2.292.551,33.4,33.4,0,0,1-.591-4.369c-.88-.063-1.718-.15-2.509-.261-.02-.184-.037-.368-.053-.555.789.108,1.634.192,2.523.254-.013-.235-.026-.475-.037-.714h.564c.01.252.023.5.037.749.863.049,1.764.075,2.691.075s1.828-.026,2.692-.075c.053-.9.08-1.833.08-2.8,0-.892-.024-1.76-.069-2.6-.868-.049-1.773-.075-2.7-.075s-1.834.026-2.7.075q-.05.91-.063,1.868h-.565c.01-.624.032-1.237.064-1.832-.868.059-1.692.143-2.464.247.02-.188.04-.373.064-.558.769-.1,1.583-.189,2.436-.251a32.464,32.464,0,0,1,.74-5.175,15.423,15.423,0,0,0-1.984.437q.174-.484.37-.948a16.235,16.235,0,0,1,1.842-.353,9.067,9.067,0,0,1,1.007-2.4,6.378,6.378,0,0,0-1.871.746,16.348,16.348,0,0,1,.941-1.48,12.6,12.6,0,0,1,2.107-.178h.155Zm11.584,12.775c.01-.1.018-.208.023-.311-.1-.64-1.119-1.224-2.747-1.681.053.552.082,1.114.082,1.687a17.152,17.152,0,0,1-.1,1.895C613.249,71.708,614.25,71.158,614.437,70.554ZM611.648,68a9.278,9.278,0,0,1,2.765,1.145,7.771,7.771,0,0,0-3.92-5.346A15.533,15.533,0,0,1,611.648,68Zm2.56,3.678a10.166,10.166,0,0,1-2.589,1.02,15.8,15.8,0,0,1-.806,3.206A8.051,8.051,0,0,0,614.208,71.683Zm-.278,2.309a10.53,10.53,0,0,1-3.651,3.17,11.122,11.122,0,0,1-3.049,3.932A11.724,11.724,0,0,0,613.931,73.992Zm-4.071-11.457a11.192,11.192,0,0,1,3.583,2.748,11.736,11.736,0,0,0-6.212-5.88A10.693,10.693,0,0,1,609.859,62.535Zm1.112,7.713a16.5,16.5,0,0,0-.11-1.9,32.332,32.332,0,0,0-4.82-.66c.046.826.072,1.683.072,2.561,0,.951-.029,1.875-.083,2.764a32.343,32.343,0,0,0,4.808-.655A16.658,16.658,0,0,0,610.971,70.248Zm-1.3,6.33a14.668,14.668,0,0,0,1.09-3.665,33.308,33.308,0,0,1-4.765.661,33.686,33.686,0,0,1-.591,4.369A14.451,14.451,0,0,0,609.667,76.578Zm1.12-8.786a14.361,14.361,0,0,0-1.5-4.643,14.623,14.623,0,0,0-4.019-1.2,32.312,32.312,0,0,1,.742,5.175A32.9,32.9,0,0,1,610.788,67.793Zm-1.726,9.956a15.549,15.549,0,0,1-3.86,1.057,10.249,10.249,0,0,1-1.17,3A8.086,8.086,0,0,0,609.062,77.749Zm-4.024-16.662a15.9,15.9,0,0,1,3.519.878,7.7,7.7,0,0,0-4.525-3.273A9.107,9.107,0,0,1,605.038,61.087Zm-.192,16.936a33.18,33.18,0,0,0,.585-4.412c-.856.05-1.745.076-2.657.076s-1.8-.026-2.655-.076a33.147,33.147,0,0,0,.586,4.412,16.446,16.446,0,0,0,4.141,0Zm.6-10.933a31.559,31.559,0,0,0-.735-5.214,16.579,16.579,0,0,0-3.869,0,31.594,31.594,0,0,0-.736,5.214c.861-.05,1.754-.077,2.669-.077S604.585,67.039,605.444,67.09Zm-2.654,14.852c.716-.016,1.366-1.176,1.855-3.065a17.446,17.446,0,0,1-3.741,0c.49,1.889,1.14,3.05,1.856,3.065h.03Zm1.687-20.919c-.466-1.533-1.052-2.453-1.688-2.467h-.029c-.635.015-1.222.934-1.688,2.467.556-.055,1.126-.083,1.7-.083S603.921,60.968,604.478,61.022Z" transform="translate(-587.547 -57.779)"/>
  <path id="Path_532" data-name="Path 532" class="cls-1" d="M544.486,131.94l-6.746,1.491,1.276,1.218-3.117,2.826,3.461,3.3,2.677-3.246,1.277,1.218,1.173-6.808" transform="translate(-535.899 -120.469)"/>
  <path id="Path_533" data-name="Path 533" class="cls-1" d="M587.021,106.068a.4.4,0,0,1-.4.4h0a.4.4,0,0,1-.4-.4v-1.819a.4.4,0,0,1,.4-.4h0a.4.4,0,0,1,.4.4Z" transform="translate(-578.434 -96.721)"/>
  <path id="Path_534" data-name="Path 534" class="cls-1" d="M565.859,116.377a.4.4,0,0,1,.171.542h0a.4.4,0,0,1-.542.171l-1.614-.839a.4.4,0,0,1-.171-.542h0a.4.4,0,0,1,.542-.171Z" transform="translate(-559.364 -106.565)"/>
</svg>
