<svg xmlns="http://www.w3.org/2000/svg" width="19.512" height="13.6" viewBox="0 0 19.512 13.6">
  <defs>
    <style>
      .cls-1 {
        fill-rule: evenodd;
		fill: #274871;
      }
    </style>
  </defs>
  <path id="Path_322" data-name="Path 322" class="cls-1" d="M89.175,119.911a2.465,2.465,0,0,0-2.11-1.918,65.588,65.588,0,0,0-7.306-.27,65.6,65.6,0,0,0-7.307.27,2.463,2.463,0,0,0-2.108,1.918A20.879,20.879,0,0,0,70,124.523a20.865,20.865,0,0,0,.34,4.612,2.463,2.463,0,0,0,2.109,1.918,65.565,65.565,0,0,0,7.306.27,65.554,65.554,0,0,0,7.306-.27,2.466,2.466,0,0,0,2.11-1.918,20.884,20.884,0,0,0,.341-4.612A20.862,20.862,0,0,0,89.175,119.911Zm-11.937,7.641V121.1l6.2,3.236Z" transform="translate(-70 -117.723)"/>
</svg>
