<svg xmlns="http://www.w3.org/2000/svg" width="24.941" height="17.384" viewBox="0 0 24.941 17.384">
  <defs>
    <style>
      .cls-1 {
        fill: #a3a3a3;
        fill-rule: evenodd;
      }
    </style>
  </defs>
  <path id="Path_322" data-name="Path 322" class="cls-1" d="M94.51,120.52a3.15,3.15,0,0,0-2.7-2.451,83.832,83.832,0,0,0-9.339-.346,83.843,83.843,0,0,0-9.341.346,3.148,3.148,0,0,0-2.694,2.451,26.687,26.687,0,0,0-.44,5.895,26.671,26.671,0,0,0,.435,5.9,3.149,3.149,0,0,0,2.7,2.451,83.81,83.81,0,0,0,9.339.345,83.8,83.8,0,0,0,9.339-.345,3.153,3.153,0,0,0,2.7-2.451,26.7,26.7,0,0,0,.436-5.9A26.666,26.666,0,0,0,94.51,120.52Zm-15.258,9.767v-8.248l7.929,4.136Z" transform="translate(-70 -117.723)"/>
</svg>
