<svg xmlns="http://www.w3.org/2000/svg" xmlns:xlink="http://www.w3.org/1999/xlink" width="222.735" height="262.793" viewBox="0 0 222.735 262.793">
  <defs>
    <style>
      .cls-1 {
        fill: none;
      }

      .cls-2 {
        clip-path: url(#clip-path);
      }

      .cls-3 {
        fill: #798297;
        stroke: #798297;
      }

      .cls-10, .cls-100, .cls-101, .cls-102, .cls-103, .cls-104, .cls-105, .cls-106, .cls-107, .cls-108, .cls-109, .cls-11, .cls-110, .cls-111, .cls-112, .cls-113, .cls-114, .cls-115, .cls-116, .cls-117, .cls-118, .cls-119, .cls-12, .cls-120, .cls-121, .cls-122, .cls-123, .cls-124, .cls-125, .cls-126, .cls-127, .cls-128, .cls-129, .cls-13, .cls-130, .cls-131, .cls-132, .cls-133, .cls-134, .cls-135, .cls-136, .cls-137, .cls-138, .cls-139, .cls-14, .cls-140, .cls-141, .cls-142, .cls-143, .cls-144, .cls-145, .cls-146, .cls-147, .cls-148, .cls-149, .cls-15, .cls-150, .cls-151, .cls-152, .cls-153, .cls-154, .cls-155, .cls-156, .cls-157, .cls-158, .cls-159, .cls-16, .cls-160, .cls-161, .cls-162, .cls-163, .cls-164, .cls-165, .cls-166, .cls-167, .cls-168, .cls-17, .cls-18, .cls-19, .cls-20, .cls-21, .cls-22, .cls-23, .cls-24, .cls-25, .cls-26, .cls-27, .cls-28, .cls-29, .cls-3, .cls-30, .cls-31, .cls-32, .cls-33, .cls-34, .cls-35, .cls-36, .cls-37, .cls-38, .cls-39, .cls-4, .cls-40, .cls-41, .cls-42, .cls-43, .cls-44, .cls-45, .cls-46, .cls-47, .cls-48, .cls-49, .cls-5, .cls-50, .cls-51, .cls-52, .cls-53, .cls-54, .cls-55, .cls-56, .cls-57, .cls-58, .cls-59, .cls-6, .cls-60, .cls-61, .cls-62, .cls-63, .cls-64, .cls-65, .cls-66, .cls-67, .cls-68, .cls-69, .cls-7, .cls-70, .cls-71, .cls-72, .cls-73, .cls-74, .cls-75, .cls-76, .cls-77, .cls-78, .cls-79, .cls-8, .cls-80, .cls-81, .cls-82, .cls-83, .cls-84, .cls-85, .cls-86, .cls-87, .cls-88, .cls-89, .cls-9, .cls-90, .cls-91, .cls-92, .cls-93, .cls-94, .cls-95, .cls-96, .cls-97, .cls-98, .cls-99 {
        stroke-width: 1.51px;
      }

      .cls-4 {
        fill: #5f7998;
        stroke: #5f7998;
      }

      .cls-5 {
        fill: #a4cbc7;
        stroke: #a4cbc7;
      }

      .cls-6 {
        fill: #1f4a8f;
        stroke: #1f4a8f;
      }

      .cls-7 {
        fill: #396c99;
        stroke: #396c99;
      }

      .cls-8 {
        fill: #a0b8c3;
        stroke: #a0b8c3;
      }

      .cls-9 {
        fill: #abd7cb;
        stroke: #abd7cb;
      }

      .cls-10 {
        fill: #9c9ab6;
        stroke: #9c9ab6;
      }

      .cls-11 {
        fill: #9890aa;
        stroke: #9890aa;
      }

      .cls-12 {
        fill: #234a97;
        stroke: #234a97;
      }

      .cls-13 {
        fill: #4b75a4;
        stroke: #4b75a4;
      }

      .cls-14 {
        fill: #202f88;
        stroke: #202f88;
      }

      .cls-15 {
        fill: #1d2c81;
        stroke: #1d2c81;
      }

      .cls-16 {
        fill: #1e3084;
        stroke: #1e3084;
      }

      .cls-17 {
        fill: #31679c;
        stroke: #31679c;
      }

      .cls-18 {
        fill: #2a609e;
        stroke: #2a609e;
      }

      .cls-19 {
        fill: #205092;
        stroke: #205092;
      }

      .cls-20 {
        fill: #1b3b85;
        stroke: #1b3b85;
      }

      .cls-21 {
        fill: #667d9c;
        stroke: #667d9c;
      }

      .cls-22 {
        fill: #77829b;
        stroke: #77829b;
      }

      .cls-23 {
        fill: #868694;
        stroke: #868694;
      }

      .cls-24 {
        fill: #537495;
        stroke: #537495;
      }

      .cls-25 {
        fill: #3f6c92;
        stroke: #3f6c92;
      }

      .cls-26 {
        fill: #9796a9;
        stroke: #9796a9;
      }

      .cls-27 {
        fill: #818ca8;
        stroke: #818ca8;
      }

      .cls-28 {
        fill: #5a7daa;
        stroke: #5a7daa;
      }

      .cls-29 {
        fill: #3c71aa;
        stroke: #3c71aa;
      }

      .cls-30 {
        fill: #224294;
        stroke: #224294;
      }

      .cls-31 {
        fill: #2c61aa;
        stroke: #2c61aa;
      }

      .cls-32 {
        fill: #2956a4;
        stroke: #2956a4;
      }

      .cls-33 {
        fill: #26419a;
        stroke: #26419a;
      }

      .cls-34 {
        fill: #8d93a9;
        stroke: #8d93a9;
      }

      .cls-35 {
        fill: #aad9c6;
        stroke: #aad9c6;
      }

      .cls-36 {
        fill: #2456a4;
        stroke: #2456a4;
      }

      .cls-37 {
        fill: #203a8c;
        stroke: #203a8c;
      }

      .cls-38 {
        fill: #26449c;
        stroke: #26449c;
      }

      .cls-39 {
        fill: #26499e;
        stroke: #26499e;
      }

      .cls-40 {
        fill: #286daf;
        stroke: #286daf;
      }

      .cls-41 {
        fill: #2d79b3;
        stroke: #2d79b3;
      }

      .cls-42 {
        fill: #387cb1;
        stroke: #387cb1;
      }

      .cls-43 {
        fill: #5886ae;
        stroke: #5886ae;
      }

      .cls-44 {
        fill: #718fad;
        stroke: #718fad;
      }

      .cls-45 {
        fill: #4b8ab3;
        stroke: #4b8ab3;
      }

      .cls-46 {
        fill: #265ba7;
        stroke: #265ba7;
      }

      .cls-47 {
        fill: #9aa6b4;
        stroke: #9aa6b4;
      }

      .cls-48 {
        fill: #98a1ad;
        stroke: #98a1ad;
      }

      .cls-49 {
        fill: #8b9cad;
        stroke: #8b9cad;
      }

      .cls-50 {
        fill: #8fa1af;
        stroke: #8fa1af;
      }

      .cls-51 {
        fill: #3987b6;
        stroke: #3987b6;
      }

      .cls-52 {
        fill: #245c9a;
        stroke: #245c9a;
      }

      .cls-53 {
        fill: #2467ac;
        stroke: #2467ac;
      }

      .cls-54 {
        fill: #7d9baf;
        stroke: #7d9baf;
      }

      .cls-55 {
        fill: #7da4b3;
        stroke: #7da4b3;
      }

      .cls-56 {
        fill: #2b8bbb;
        stroke: #2b8bbb;
      }

      .cls-57 {
        fill: #26599e;
        stroke: #26599e;
      }

      .cls-58 {
        fill: #9bb0b8;
        stroke: #9bb0b8;
      }

      .cls-59 {
        fill: #2465ac;
        stroke: #2465ac;
      }

      .cls-60 {
        fill: #2853a1;
        stroke: #2853a1;
      }

      .cls-61 {
        fill: #549ab7;
        stroke: #549ab7;
      }

      .cls-62 {
        fill: #6ea7b8;
        stroke: #6ea7b8;
      }

      .cls-63 {
        fill: #9ab7b6;
        stroke: #9ab7b6;
      }

      .cls-64 {
        fill: #2768ad;
        stroke: #2768ad;
      }

      .cls-65 {
        fill: #90b4b7;
        stroke: #90b4b7;
      }

      .cls-66 {
        fill: #2373b2;
        stroke: #2373b2;
      }

      .cls-67 {
        fill: #2377b4;
        stroke: #2377b4;
      }

      .cls-68 {
        fill: #8babb3;
        stroke: #8babb3;
      }

      .cls-69 {
        fill: #1f8abd;
        stroke: #1f8abd;
      }

      .cls-70 {
        fill: #48a1bd;
        stroke: #48a1bd;
      }

      .cls-71 {
        fill: #3493bc;
        stroke: #3493bc;
      }

      .cls-72 {
        fill: #349ec0;
        stroke: #349ec0;
      }

      .cls-73 {
        fill: #2e76b2;
        stroke: #2e76b2;
      }

      .cls-74 {
        fill: #2697c1;
        stroke: #2697c1;
      }

      .cls-75 {
        fill: #32a2c2;
        stroke: #32a2c2;
      }

      .cls-76 {
        fill: #52b2c1;
        stroke: #52b2c1;
      }

      .cls-77 {
        fill: #9fc9bc;
        stroke: #9fc9bc;
      }

      .cls-78 {
        fill: #a5d1c2;
        stroke: #a5d1c2;
      }

      .cls-79 {
        fill: #8dc0bb;
        stroke: #8dc0bb;
      }

      .cls-80 {
        fill: #73b8bd;
        stroke: #73b8bd;
      }

      .cls-81 {
        fill: #82c1bd;
        stroke: #82c1bd;
      }

      .cls-82 {
        fill: #63babf;
        stroke: #63babf;
      }

      .cls-83 {
        fill: #98cbbb;
        stroke: #98cbbb;
      }

      .cls-84 {
        fill: #35a6c3;
        stroke: #35a6c3;
      }

      .cls-85 {
        fill: #298bbb;
        stroke: #298bbb;
      }

      .cls-86 {
        fill: #2f64a2;
        stroke: #2f64a2;
      }

      .cls-87 {
        fill: #2f8ab9;
        stroke: #2f8ab9;
      }

      .cls-88 {
        fill: #3874af;
        stroke: #3874af;
      }

      .cls-89 {
        fill: #376da7;
        stroke: #376da7;
      }

      .cls-174, .cls-90 {
        fill: #41b2c4;
      }

      .cls-90 {
        stroke: #41b2c4;
      }

      .cls-91 {
        fill: #5ebfc1;
        stroke: #5ebfc1;
      }

      .cls-92 {
        fill: #4cb6c2;
        stroke: #4cb6c2;
      }

      .cls-93 {
        fill: #4f9bba;
        stroke: #4f9bba;
      }

      .cls-94 {
        fill: #9cd4bc;
        stroke: #9cd4bc;
      }

      .cls-95 {
        fill: #8acdbd;
        stroke: #8acdbd;
      }

      .cls-96 {
        fill: #3e91b8;
        stroke: #3e91b8;
      }

      .cls-97 {
        fill: #4683b2;
        stroke: #4683b2;
      }

      .cls-98 {
        fill: #73c6be;
        stroke: #73c6be;
      }

      .cls-99 {
        fill: #8bcfbb;
        stroke: #8bcfbb;
      }

      .cls-100 {
        fill: #4172a2;
        stroke: #4172a2;
      }

      .cls-101 {
        fill: #aadbb9;
        stroke: #aadbb9;
      }

      .cls-102 {
        fill: #42aac2;
        stroke: #42aac2;
      }

      .cls-103 {
        fill: #4da9bf;
        stroke: #4da9bf;
      }

      .cls-104 {
        fill: #aedbbc;
        stroke: #aedbbc;
      }

      .cls-105 {
        fill: #b6e0bf;
        stroke: #b6e0bf;
      }

      .cls-106 {
        fill: #5782ad;
        stroke: #5782ad;
      }

      .cls-107 {
        fill: #73c7bd;
        stroke: #73c7bd;
      }

      .cls-108 {
        fill: #5278a5;
        stroke: #5278a5;
      }

      .cls-109 {
        fill: #878898;
        stroke: #878898;
      }

      .cls-110 {
        fill: #81ccbc;
        stroke: #81ccbc;
      }

      .cls-111 {
        fill: #6688ac;
        stroke: #6688ac;
      }

      .cls-112 {
        fill: #a5dbb8;
        stroke: #a5dbb8;
      }

      .cls-113 {
        fill: #b4e1b6;
        stroke: #b4e1b6;
      }

      .cls-114 {
        fill: #627c9f;
        stroke: #627c9f;
      }

      .cls-115 {
        fill: #65afbd;
        stroke: #65afbd;
      }

      .cls-116 {
        fill: #bae3b6;
        stroke: #bae3b6;
      }

      .cls-117 {
        fill: #aaddb7;
        stroke: #aaddb7;
      }

      .cls-118 {
        fill: #c3e6b7;
        stroke: #c3e6b7;
      }

      .cls-119 {
        fill: #6b92af;
        stroke: #6b92af;
      }

      .cls-120 {
        fill: #629ab4;
        stroke: #629ab4;
      }

      .cls-121 {
        fill: #70c1be;
        stroke: #70c1be;
      }

      .cls-122 {
        fill: #75bbbe;
        stroke: #75bbbe;
      }

      .cls-123 {
        fill: #edf8c0;
        stroke: #edf8c0;
      }

      .cls-124 {
        fill: #d2edbc;
        stroke: #d2edbc;
      }

      .cls-125 {
        fill: #6fa5b7;
        stroke: #6fa5b7;
      }

      .cls-126 {
        fill: #93d4b9;
        stroke: #93d4b9;
      }

      .cls-127 {
        fill: #7383a5;
        stroke: #7383a5;
      }

      .cls-128 {
        fill: #7fcabd;
        stroke: #7fcabd;
      }

      .cls-129 {
        fill: #e4f4bb;
        stroke: #e4f4bb;
      }

      .cls-130 {
        fill: #ddf2b5;
        stroke: #ddf2b5;
      }

      .cls-131 {
        fill: #8bc4bc;
        stroke: #8bc4bc;
      }

      .cls-132 {
        fill: #8793aa;
        stroke: #8793aa;
      }

      .cls-133 {
        fill: #84adb6;
        stroke: #84adb6;
      }

      .cls-134 {
        fill: #89a6b2;
        stroke: #89a6b2;
      }

      .cls-135 {
        fill: #8098ae;
        stroke: #8098ae;
      }

      .cls-136 {
        fill: #93d1bc;
        stroke: #93d1bc;
      }

      .cls-137 {
        fill: #9ed7b9;
        stroke: #9ed7b9;
      }

      .cls-138 {
        fill: #cbeab4;
        stroke: #cbeab4;
      }

      .cls-139 {
        fill: #aeddb8;
        stroke: #aeddb8;
      }

      .cls-140 {
        fill: #8289a6;
        stroke: #8289a6;
      }

      .cls-141 {
        fill: #d4eeb3;
        stroke: #d4eeb3;
      }

      .cls-142 {
        fill: #8cbfbb;
        stroke: #8cbfbb;
      }

      .cls-143 {
        fill: #96d0bc;
        stroke: #96d0bc;
      }

      .cls-144 {
        fill: #8589a0;
        stroke: #8589a0;
      }

      .cls-145 {
        fill: #c4e7b5;
        stroke: #c4e7b5;
      }

      .cls-146 {
        fill: #b1ddb9;
        stroke: #b1ddb9;
      }

      .cls-147 {
        fill: #9ec4bd;
        stroke: #9ec4bd;
      }

      .cls-148 {
        fill: #96abb1;
        stroke: #96abb1;
      }

      .cls-149 {
        fill: #f3fabd;
        stroke: #f3fabd;
      }

      .cls-150 {
        fill: #def2b3;
        stroke: #def2b3;
      }

      .cls-151 {
        fill: #eaf7b5;
        stroke: #eaf7b5;
      }

      .cls-152 {
        fill: #9699aa;
        stroke: #9699aa;
      }

      .cls-153 {
        fill: #9bc9bb;
        stroke: #9bc9bb;
      }

      .cls-154 {
        fill: #a1d3bc;
        stroke: #a1d3bc;
      }

      .cls-155 {
        fill: #e9f7b4;
        stroke: #e9f7b4;
      }

      .cls-156 {
        fill: #9691a7;
        stroke: #9691a7;
      }

      .cls-157 {
        fill: #d0ecbc;
        stroke: #d0ecbc;
      }

      .cls-158 {
        fill: #958ea5;
        stroke: #958ea5;
      }

      .cls-159 {
        fill: #9bb4b6;
        stroke: #9bb4b6;
      }

      .cls-160 {
        fill: #9aa2b2;
        stroke: #9aa2b2;
      }

      .cls-161 {
        fill: #bbe3bc;
        stroke: #bbe3bc;
      }

      .cls-162 {
        fill: #aad9bd;
        stroke: #aad9bd;
      }

      .cls-163 {
        fill: #9eb9c0;
        stroke: #9eb9c0;
      }

      .cls-164 {
        fill: #a5cfc6;
        stroke: #a5cfc6;
      }

      .cls-165 {
        fill: #b3dec1;
        stroke: #b3dec1;
      }

      .cls-166 {
        fill: #9ca9b9;
        stroke: #9ca9b9;
      }

      .cls-167 {
        fill: #f2fabc;
        stroke: #f2fabc;
      }

      .cls-168 {
        fill: #b0dcc7;
        stroke: #b0dcc7;
      }

      .cls-169 {
        opacity: 0.798;
      }

      .cls-170 {
        fill: #fff;
      }

      .cls-171 {
        fill: #ff0100;
      }

      .cls-172 {
        fill: #ff4e4d;
      }

      .cls-173 {
        fill: #4b9600;
      }

      .cls-175 {
        fill: #b70071;
      }

      .cls-176 {
        fill: #2fffb7;
      }

      .cls-177 {
        fill: #ffce00;
      }

      .cls-178 {
        font-size: 9px;
      }

      .cls-178, .cls-179, .cls-180 {
        font-family: Helvetica;
        letter-spacing: 0.02em;
      }

      .cls-179 {
        font-size: 5px;
      }

      .cls-180 {
        font-size: 7px;
      }
    </style>
    <clipPath id="clip-path">
      <path id="Path_521" data-name="Path 521" class="cls-1" d="M466.189,302.294l.161.027.2-.047.192.323-.012.862.2.173-.068-.113-.02-.139.024-.18.064-.233h.131l.075.324-.019.074-.056.112v.155l.266-.036.109-.037.132-.082.076.118.308.221.041-.6.315.109.676.659v-.17l.158.091.139.054.154.024h.188v.154l-.1.076-.051.081-.041.091-.064.105.215.1.12.179.116.21.189.194-.109.187,0,.249.114.58.21-.5.119-.212.179-.139-.061-.113-.032-.093-.05-.079-.109-.069.234-.144.231.015.242.081.256.048.109-.077.084-.128.1-.027.155.232-.14.184.18.12.12.13.1.049.124-.129h.128l.03.107.011.018.023,0,.064.048-.024.3-.053.248-.109.23-.2.251-.04-.119-.056-.12-.032-.115-.333,1.5-.175.382h.38l-.14-.353.344-.16.206.057.064.237-.091.386h.094l.015-.04-.006-.064.024-.065.114.132.054.035h.087l.278-.278.516.027.534.2.342.224-.213.285-.284-.031-.306-.158-.288-.1-.312.169-.095.393-.068.445-.233.33.088.34-.256.091-.852-.077-.012.122.024.035-.155.027.144.29.15,0,.168-.1.188-.034.192.085.334.218.113.049.365-.087.279-.2.278-.146.365.077-.091.224-.107.166-.143.1-.182.027v.154l.672.344.107.085.037.3.1.142.158-.012.213-.166.125.236.18.144.216.079.243.048-.614.215-.189.16.164.314v.155l-.286-.077-.237.12-.073.226.2.235.019-.274.113.317.526.721.119.342.073.452.566,1.153.072.327.091,1.526.063.249.094.193.122.075.259.057.073.15.02.215.1.25.529.507.109.166,0,.246-.215.42-.056.249-.064.531-.158.375-.415.695-.306.9-.231.329-.411.129-.28.138-.216.329-.332.706-.242.282-.461.407-.2.33-.159.478-.024.376.079,1.033.038.229.44,1.262.194.319.274.132.152.134.418.595.412.3-.036.376-.691,1.847-.114.774.175.668.11-.083.135-.077.111.005.039.155-.061.226-.118.056-.127,0-.09.062-.134.316-.1.3-.009.286.111.263H474.5v.151l.087.049.077.084.088.049v.15l-.231.291-.163.511-.1.612-.028.6.021.309.1.6.023.34-.042.246-.173.4-.041.354-.041.148-.087.19-.087.253-.041.328.128,1.078-.052.672-.459,1.577.307.432-.109.763-.466,1.285-.225,1.057-.031.354.058.357.151.234.431.324v.15l-.511.192-.475.549-.268.68.107.586-.143.211.061.139.134.13.073.165-.038.185-.175.483-.04.244-.161.23-.341.137-.315.22-.077.49-.146-.083-.068-.082.009-.119.081-.194-.29-.222-.292-.047-.288.088-.28.18h-.14l-.091-.216-.169-.127-.379-.181-.472-.558-.108-.086-.183-.1-.427-.465-.157-.1-.2-.049-.26-.124-.237-.159-.139-.163-.128.18-.263-.162-.352-.112-.675-.069-.353.166-.309.337-.21.333-.068.152-.545-.175-.437-.414-.758-.893-.173.131-.154-.108-.149-.2-.164-.149-.268-.064-.2.023-.026.08.247.11v.181l-.088.2.11.113.155.086.05.122.017-.021.212.057.465-.1.091.127v.195l-.017.1-.754.8-.231.333-.148.46-.044.537.052.48.109.429.139.394.108.147.112.126.021.172-.292.506-.206.841h.139l-.2.136-.058-.024-.139-.112-.155.3-1.9,1.935-.126.059-.2.019-.094.072-.207.336-.151.1-.221-.062-.254-.2-.42-.412v.493l-.27-.456-.456-.383-.506-.247-.429-.047-.411.177-.482.352-.321.457.066.49-.265.164-.116-.164.151-.452-.181-.135-.328-.009-.294-.075v-.165l.283-.409.009-.591-.228-.417-.434.106-.146-1.277-.237-1.037h-.14l-.146.131-.438-.231-.307-.05.087-.12.169-.374-.256-.179-.4.253-.012-.091-.085-.151-.079-.407-.154-.291-.2-.131-.225.163-.079-.249.012-.594-.061-.309-.131-.174-.18-.1-.115.038.058.236-.116-.082-.083-.122-.051-.168-.018-.213-.05-.265-.114-.07-.132-.009-.1-.077-.137-.349-.02-.206.093-.175.93-1.1.107-.448-.307-.528.029-.371-.657-.5-.151-.463.078-.219.327-.395.107-.2.069-.358-.023-.209-.268-.642-.065-.077.017-.1.143-.28.511-.66.251-.4.306-.8.219-.45-.14-.183.149-.328-.032-.467-.233-1.012-.055-1.1-.086-.258v-.166l.079-.227-.046-.637.038-.133.256.049.166.135.582.942.321.342.4.148.514-.123-.959-.306-.189-.19.045-.413.244-.412.292-.374.182-.295h-.125l-.064.167-.086.138-.1.112-.128.08.219-.244.206-.407.15-.436.061-.331.058-.777-.031-.274-.155-.356-.408-.495-.548-.33-.581-.042-.517.369.128.151.063-.129.082-.025.109.015.141-.012-.216.149-.134.226-.173.623-.125-.183.164-.274-.122-.2-.237-.173-.275-.259-.053-.015-.046-.044-.07-.179-.018-.19.052-.158.067-.152.027-.167-.146-.9.018-.281.224-.523.01-.3-.234-.342-.27.149-.054-.089.137-.2.315-.194.058.009.568-.037.329-.124.137-.03.166-.118.194-.293.155-.376.051-.365-.091-.333-.334-.651-.073-.451-.07-1.293.313-1.13-.006-.735-.247-.548-.4-.415-.477-.339-.14.183-.415-.342-.046-.49.205-1.278-.076-.455-.2-.648-.268-.576-.293-.251-.339-.2-.146-.495-.081-.61-.141-.553-.383-.426-.452.032-.954.577-.38-.183.175-.486.206-.355-.429-.13-.313.269-.2.5-.082.557-.162-.344-.108-.38-.125-.636v-.151l.32-.174.3-.229.215-.369.059-.59.049,0,.084-.12.035-.146-.1-.072-.247-.015-.1-.054-.11-.114-.274-.447-.14-.156-.225-.071,1.418-3.371.107-.4.018-.45-.123-.367-.329-.153-.248-.186.064-.424.2-.458.171-.285h.139l.055.293.139.028.169-.006.134.193-.012.205-.073.3-.044.32.073.284.835,1.1.605.365,2.088.294,1.046.312.432.042.365-.062,1.455-.643.373-.326.3-.381.125-.368,1.275-.6.462-.016.324.053.246.131,1.086-.829.32-.354.668-1.151.236-.2-.038-.095v-.028l-.012-.014-.077-.046.6-.223.18-.1.126-.17.2-.435.116-.085.233-.134.318-.313.28-.365.277-.608.359-.173,1.276-.158.275-.106.52-.517.117.187.294-.4.109-.379-.011-1.025.153-.435.353-.2.42-.117.341-.17.038.226Zm22.29-39.45.113.3-.125.43-.183.284-.249.189-.338.14.357.159.321.42.1.475-.283.336-.085-.231-.143-.024-.188.018-.222-.111-.076-.138-.188-.459-.055-.1-.243-.149-.249-.233H486.5l-.211.556-.172-.427-.732.387-.375-.324-.1.392-.09.152-.1.012-1.541-.047-.418-.148-.338-.364-.1-.678.192-.44.4-.272.472-.137.4-.037.195.048.415.23.228.087.333.033.443-.033-.018-.126-.011-.027-.031.005-.068-.043.245-.174v-.218l.321.043.7-.016-.088.37.2.146.272,0,.137-.059.064-.238.148-.138.164-.106.123-.136.2-.652.146-.277.233-.115.181.064.167.163.14.229.091.255-.137.187-.091.261Zm31.62-109.73.114.632.122.3.129.259v.25l-.275.273.2.081.441.079.208.106.213.217.1.172.114.133.255.095.786.028.3.2.172.6.006.336-.052.2-.07.189-.05.316,0,.353.045.185.106.107.18.127.39.151.388.053.312.2.164.6.354.875.648.573.759.311.449.079.566.1.578.394.309.149.274.027,1.088-.143.924.094.033.015.147.066.34.258.172.076.175-.006.3-.118.147-.019.161.054.469.158,1.063.7,4.376.316,1.532.355,1.188.733.394.159.753.038,1.9-.408.817.144,1.14-.084.129.05.265.3.143.1.794.03,2.262.737.282.029.292-.057,0,.214-.035.192-.07.168-.1.144-.027.694-.048.1-.156.325-.35.189-.462-.016-.634.084-.458.433-.4.562-.456.478-.865.466-.448.328-.232.113-.247.026-.2.245-.251.575-.265.457-.081.14-.487.3.145.271.1.322.114.678,0,0,0,0,.248.341.065.374.159.235.51-.079-.272-.478.289.1.56.039.261.15.522.106.352.248.563.56.475.075.551-.06.251.048.187.036.069.243.074.261-.535.99-1.754,1.341-.327.25-.427.571.151.159.046.174-.053.186-.145.192-.1.064-.286.26.244.287.087.071.017.022.016.025.012.027.007.031.508.586.56-.043.6-.29.544-.128.1-.022.317.511-.14.551-.132.52-.167.382-.561,1.283-.062.918.153.3.133.262.522.286.643.079.313.1.74.577.179.14,1.294.587,1.49,2.517.2.22.28.16.168.012.009.025.019.051-.143.35-.357.443-.376.468-.883.091-.738-.4-.922.081.131-.2.213-.333.5-.015.559.067.4-.085-.234-.072-.171-.2-.175-.3-.707-.366.344-.157-.075-.463-.272-.516-.24-.325-1.475-1.561-.344-.283-1.022-.456-.429-.075-.315.278-.192.589.077.523.5.089-.683.331-.095.109-.1.17-.516.1-.205.1-.328.35-.443.339-.492.152-.467-.207.266-.07.341-.148.292-.194.123-.222-.164-.461-.765-.161-.23-.39-.328.116-1.812-.422-.169-.077-.449-.459-.118-.073-.2.029-.663.241-.219.379-.15.082-.184-.089-.158-.375-.225-.083-.158.116-.05.253.068.251.207.113v.2l-.417.026-.375.231-.2.373.1.451.307.2.377-.058.711-.332-.218.384-.654.546-.138.446,0,0-.2.274-.456.14-1.474.049-.708.168-3.049,2-3.161,1.531-1.85.686-.313.268-.152.1-.68.168-.519.33-.249.049.148-.4.205-.344.123-.291-.091-.243.181.028.125-.035.07-.125.008-.246h.126l.088.226.076.111.093-.009.126-.13-.256-.365.212.024.2-.014.19-.071.035.061.012-.037.063.079.056.1.008.023-.064.01-.192-.01v.2l.415-.052.1-.328.018-.373.168-.176.33-.038.269-.124.207-.224.152-.343-.226.093-.476.342-.129.02-.355-.377-.146-.244-.073-.38-.4.222-.5.445-.311.48.178.326v.166l-.309-.012-.321-.3-.139.145h-.126l-.128-.563-.236.433.117.241.628.254v.166l-.231.131-.341.045-.24-.084.047-.259-.61-.011-.764.425-.689.675-.374.73v.165h.117l-.167.248-.073.25.045.234.195.2-.182.258-.034.193.012.193-.052.264-.14.088-.178.007-.084.094.157.356-.211.359-.086.288-.141.19-.4.069-.246-.108-.213-.151-.158.074-.1.565.2.241.167.557.222.109.205-.129.144-.311.047-.364-.083-.3.371.154.077.281-.017.385.081.468-.205.082-.052.136.076.164.181.162-.066.383.17.319.315.194.356.009-.053-.1-.018-.011-.067-.055.275-.213.419-.419.21-.108-.174.406.111.388.208.379.111.375.017.891.122,1-.189-.065-.207-.117.021-.174-.021-.258v-.111l-.186.583-.012.471.185.265.408-.035-.061-.1-.031-.081-.047-.181.37.321.228.384.192.39.242.35v.18l-.148.027-.079.047-.061.06-.107.065.256.362.276-.409.056-.326-.111-.322-.221-.389.271.246.338.172.225.185-.058.283.3.322.146.118.2.121.376.5.4.409.243-.19-.062-.007-.127.017-.056-.01v-.2l.309-.008.265.1.2.2.117.268-.017.243-.184.286.073.176-.154.253-.064.142-.05.16h-.114l-.141.023-.078.29-.036.852-.105.42-.247.435-.552.666-.028-.119-.082-.261-.123-.293-.152-.227.284-.605.072-.329-.088-.291-.213-.1-.213.135-.161.226-.062.174-.215.431-.009.252.465.2-.012.2-.143.193-.214.073v.18l.132.032.233.105.144.025-.146.453-.341.251-.417.041-.341-.314-.2-.295-.483-.478-.338-.249-.2-.009-.485.438v.162h.255l-.494,1.823-.131,1.045.114,1.136.246.847.169.411.16.178.044.29-.108,1.858.069,1.16.57,2.63.075.681.053.195.082.154.257.353.055.125.04.554.113.526.346.979.4.729.508.711.764.757.388.705.6.646.682.549.5.2,1.068,1.444.552.567.574.459.35.2.814.273.043.014.895.13.356.216.732.6,1.247.507.183.291.161.182,5.72,5.036,2.184,1.363.369.151.184.231.878.308.5.3.183-.11.141-.189.1-.1.052-.025.041-.054.06-.056.109-.025.109.051.055.118.036.116.06.053.356.193.272.425.213.424.181.191.356.087.33.233.167.343-.142.409,2.679,6.884.3.517.079.182.119.922.078.218.224.355.6,1.305.259.91.314,2.16.75,2.7.731,2.633.669,1.729.388.813,1.159,1.872.1.388.122.273,2.714,3.264,1.19,1.061,1.347.894.582.506.779,1.3,2.453,2.427.666.431,1.077.441.752.144.29.249.146.389.108,1.04.125.5.21.365.313.145.109.023.314.067.368.225.667.559.667.31,1.512.27.779.262.256.234.508.673.2.141.336.118.77.564.356.191.378.077.408.085,2.175-.006,2.221.509.851.021,3.09-.53,3.049.172,4.724-.575,1.566.4.021.042.533.162.382.685.342-.016-.059.4.141.475.162.931.015.324,0,.439-.159.283-.33.406-.391.365-.34.159-.382.122-.327.291-.5.614-.666.539-1.911,1-.472.635-.163.945.093,1.009.289.838.408.585.514.5,1.132.789,1.187.377.284.227.257.266,3.5,1.62,2.97,1.623,1.129.311.335.268.295.3.74.509,4.424,1.507.389.331h.126v-.184h.117l.39.408,3.213,1.044,2.729,1.509,1.369,1.01.63.63.708,1.056.248.141.309.1.671.524,1.168,1.259.3.141.379.1.676.453,1.611.419.2.129,1.927.793,1.786,1.319,1.457.275.635.309-.017.581.213,0,.479-.156.281.06.076.16.008.221.08.247.439.418.075.153-.109,1.108,1.543,1.288,1.715.979.369.083.128.091.383.663.213.232.618.523.483.815.274.369.332.156.168.162,1.248,1.735,1.173,2.825.079.148.1.113.125.064-.095.285.049.172.07.156-.024.237-.15.243-.3.242-.155.721-.247.286-.679.511-.424,1.066-.066.252-.072.512-.173.534-.042.232.133.627.008.287-.254,1.3.05.2-.1.077-.192.344-.1.077-.408-.034-.152-.051-.149-.08-.9-.724-.308-.107h-.771l-.245-.043-.462-.3-.461-.211-.584-.559-.68-.469-.249-.091-.175-.124-1.2-1.818-.224-.225v-.181l.294-.017.172-.167.035-.28-.119-.355-.2-.212-.5-.166-.2-.138.663-.419.151-.527-.257-.6-.557-.627-.5-.415-.274-.324-.12-.355-.008-.47-.041-.414-.109-.329-.214-.215h.245v-.152l-.928-.743-.289-.108-6.274-.335-.339-.092-1-.578-.187-.015-.391.039-.189-.024-.136-.1-.326-.332-.122-.072-.316-.081-1.025-.605-1.054-.389-.507-.267-.237-.349.435-.2.365-.319.091-.392-.38-.42.371-.144.9.174.383-.213.131-.408-.359-.024-.791.264.033-.057.094-.126-.4-.164-.344.146-.343.243-.388.126-.152-.084-.1-.194-.088-.224-.1-.17-.19-.079-.422-.006-.167-.066-1.4-.093-1.374.651-1.2,1.165-.913,1.333-1.506,2.192-.4.784-.445,1.435-.128.253-.275.173-.683,1.162-.736.668-.291.264-.37.575-.146.921.045.309.267.915.336.742-.184.309-.3.259-.3.563-.878.839-.637,1.165-.307.781-.037.736.231.685.495.622V340l-.242.609.566.7.852.585.624.279,2.335.129.612.2.292.2.336.3.277.361.117.381.169.188,1.119.557.878.74.335.1.458.053.3.16.224.26.231.355.4.463.587.462.667.329.645.068-.681,1.641-.137,1.342-.008.324.059.322.132.275.324.539.067.28-.1.767-.339,1.395.043.726.438.884.073.2.123.13.637.226.259.038-.365.252-.192.166-.079.166-.015.942.015.132-.627.572-.072.1-.137.092-.164.219-.279.495-.169-.482-.457-.087-.529.157-.378.247-.479-.566-.281-.185-.449-.069-.416.034-1.8.493-2.071.945-.748.552-.155.2-.163.166-1.124.578-.467.449-.21.306-.2.679-.239.367-.227.433-.075.561.226.161.04.078-.01.428.194,1.82.339,1.613,0,.613-.141,1.752-.154.314-.736.7-.259.372-.2.054-.571.491-.6.207-1.78.933-.627.566-2.559,3.185-.328.77-.493,2.517-.274.741-.178.311-.211.268-.24.221-.262.171-.884.189-.279.135-1.1-.334-3.377.186-.5-.136-.5-.237-.445-.3-.349-.316-.378-.51-.195-.492.061-.442.376-.352-.482-.752-.162-.425.064-.362.265-.441.116-.409-.024-.451-.16-.567-.1-.818.332-.494.63-.288,1.911-.593.172-.179.056-.123.265-.236.062-.13.254-1.071,1.4-2.933.243-1.023-.034-.8-.3-.668-.548-.621-.136-.1-.254-.123-.111-.109-.16-.247-.033-.132.029-.13.026-.234.147-.273.349-.189.779-.266,1.182-.8.647-.307.864-.055,1.346.163.283-.07.31-.169.5-.417.406-.675.265-.9.123-1.018-.03-1.02-.1-.479-.189-.362-.28-.228-.386-.079-.274-.2-.274-.451-1.059-2.442-.767-5.677-.149-.837-.722-2.262-.7-.939-.466-.874-.529-.54-.534-.376-.163-.3-.146-.6-.176-.63-.256-.92-.391-.637-.173-.4-.331-2.459v.152l-.09-.478-.1-.247-.14-.107-.031-.137.228-.937-.14-.548-.614-.938-.139-.345-.114-.5-.279-.411-.64-.679-.51-.849-.4-.343-.106-.176-.008-.315-.263.113-1.407-.113-.407.247-.333.512-.664.424-.565.722-.365.142-.919-.12-.333-.128-.539-.723-.216-.06-.177.093-.192.063-.2.026-.205-.015v-.167l.334-.28-.293-.636-.552-.642-.453-.29-.368-.177-1.173-1.235-.269-.126-.316.042-.564.159-.345-.057-.23-.158-.227-.5-.368-.358-.509-.222-.179-.128-.173-.172-.355.091-.3-.249-.205-.089-.079-.416.467-.66.136-.528-.127-.422v-.232l.183-.1.221-.051.195-.129.16-.168.4-.158.111-.256-.041-.7-.418-.832-1.628-3.481-.511-.84-.487-.627-.481-.5-.519-.416-.557-.169-.6.244-.552.436-.231.061-.978-.06-.233.078-.785.694-.506.1-.52-.155-.557-.314-.284.2-.922.225-.383.331-.855.454-.247.321-.239-.34-.035-.516.183-.468.409-.2.376-.03.143-.076.2-.17.123-.3.737-.739.6-.225.063-.4-.105-.449-.252-.358-.336-.268-.4.1-.3-.147-.2-.116-.222-.264-.3-.2-.331-.412-.683-.772-.339-.263-.345-.031-.511.057-.462.157-.2.262-.174.483-.4.007-.31-.366-.568-.069-.444-.271-.291-.106-.251.062-.119.224.023.292.072.328.024.335-.136-.068-.516-.082-.122-.17.207-1.015-.145-.9L555.6,310.4l-1.047-1.846-.657-.439-.228-.236-.064-.235-.033-.528-.04-.253-.492-1-.61-1.055-1.144-1.454L550,302.206l-.25-.1-.557.146-.288,0-.126-.222-1.163.161-.575.376.221.743-.589.037-.178-.037-.172-.182-.107-.243-.1-.112-.137.2h-.138l-.364-.433-2.913-1.385-.721-.022-1.514.3-.333.143-.669.443-.686.232-.449.6-.417.119-.441-.144-.146-.32-.062-.41-.183-.415-.219-.322-.36-.724-.247-.383-1.041-1.215-.566-.487-.587-.354-.385-.121L532.079,298l-.269-.059-1.308-.853-.46-.192-.216.186-.134.267-.3-.29-1.38-2.122-1.824-2.165-1.967-1.79-.292-.227-.5-.152-.292-.245-.157-.056-.555-.108-.148-.064-.29-.361-.155-.438-.064-.486-.011-.511-.093-.487-.218-.5-.456-.809-.424-.6-1.823-1.424-.208-.126-.169-.194-.068-.325-.108-.183-.529-.081-.184-.087-.247-.294-.306-.273-.337-.232-.332-.162-1.442.037-.228.057-.1-.318-.237-.493-.3-.456-.258-.2-.146-.347-.408-.545-.085-.219-.05-.4-.126-.419-1.01-2.1-.447-.688-2.228-1.757-.931-.266-1.282-.69-.458-.16V273.4l-.173-.1-.192-.065-.2-.026-.207.017.139.173-.543,0-1.383-.513-.251-.037-.341,0-.3.084-.13.2-.063.392-.274.409-.046.33-.172-.077H502.2l-.137.04-.027.037-.152-.13-.248-.324-.522-.179-.227-.29-.145-.4,0-.281.228-.34.259-.089.539.192.418-.026.29-.422.163-.6.01-.62-.04-.408-.389-.644-.141-.453-.184.022-.213.108-.16.022-.237-.353-.162-.477-.184-.409-.309-.148-.058-.5-.455-.376-.893-.531-.1-.3-.087-.411-.1-.362-.164-.153-.166-.1-.537-.584-.986-.532-2.984-1.033.451-.375.178-.411.027-.482-.014-.584.058-.174.109-.11.058-.165-.088-.343-.176-.259-.239-.179-1.3-.607-.914-.241-.921-.031-.826.27.082.264.058.1-.523.242-.356-.388-.411-1.266.47-.4.269-.469.41-1.42-.064-.306v-.544l.068-.552.135-.332-.154-.439-.073-.539-.029-1.05-.088-.527-.21-.514-1.494-3.13-1.19-1.663-.267-.311-.613-.3-.17-.406-.42-1.958-.575-6.227-.231-.964-.776-1.909-.551-.91-.826-.609-.573-.989-.284-.224-.347-.108-.686-.476-.383-.11-.3-.156-.187-.044-.082.111-.064.146-.151.108-.185.028-.17-.1-.3-.3-.627-.508-.306-.341-.208.134-.6-.541-.342.036.128.193-.087.044-.086.078-.082.055.091.211.114.158.142.106.175.059v.161l-.109.076-.052.078-.105.216.245.15-.071.133-.192-.03-.109-.343-.123-.205-.9-.417-.952-.886-.209-.111-.506-.49-.189-.111-.548-.039-.228-.059-.185-.1-.653-.768-.117-.032-.129-.33-.309-.223-.846-.394-.228-.172-.173-.236-.1-.338-.222.105-.348.055-.32-.047-.141-.2-.128-.248-.894-.392-.128-.591-1.962-1.1-.6-.452-.18.252-.137.278-.073.328.017.407-.853-.34-.344-.268.037-.3-.347-.61-.523-.278-1.885-.348-.9-.328-.546-.308-.171.069-.862-.021-.431-.1-.143-.1-.2-.295-1.208-.1-.472.087-.231.126-.541.451-.2.226-.126.089h-.143l-.152-.022-.143.023-1.147.836-.319.057-.222.088-.458.448-1.388.934-.4.533.1.51-.192.292-.054.147-.022.186-.056.063-.283.192-.1.095-.1.313.038.285-.006.276-.256.291-.47.23-1.045.34-.539.318-.283.248-.243.27-.437.645-.059.189.022.417-.022.2-.116.4-.14.311-.883,1-.307.609.286.535v.16l-.435.1-.551.646-.487.2-.143.12-.114.145-.045.131-.1.206-.225.119-.453.118-1.34.9-3.251.8-.921.614-.777.182-2.3,0-.522.177h-.243l-.148-.118-.193-.08-.2,0-.365-1.243-.091-.656.292-.538.81-.9.376-.6.966-.819.417-.466.145-.3.154-.583.12-.317.2-.231.27-.208.208-.28.037-.451-.074-.16-.219-.473-.414-.416-.228-.484.257-.847-.578-.105-.769.505-.539.043-3.251.941-.752-.019-.18-.042-.176-.172-.1-.217-.13-.19-.245-.1-.487-.082-.352-.15-1.988-1.229-.75-.275-1.1-.588-.236-.068-.251.022-.224.075-.223.036-.249-.1-.176-.2-.085-.228-.062-.244-.117-.257-.172-.2-.371-.269-.168-.177-.1-.2-.22-.53-.147-.257-.411-.485-.077-.119-.069-.241,0-.132.046-.157.157-.817.131-.226.628-.348-.489-.41-.568-.6-.419-.734-.058-.816.2-.352.952-.733.642-1.117.261-.2-.211-.558.133-.534.344-.425.429-.236.344,0,.674.2.334-.007-.108-.342-.568-1.078-.072-.224-.1-.65-.213-.571.014-.034.093-.415.034-.019,0-.127.018-.071.006-.081-.041-.155-.077-.132-.336-.369-.937-.387-.325-.027-.922.185-.353-.09-1.289-.753-.613-.532-.326-.553.037-1.478-.12-.758-.491-.358-.655-.062-.2-.169-.224-.39-.05-.239.021-.212-.029-.186-.3-.264-.329-.5.222-.3.276-.233.062-.052.648-.374.166-.031.338.013.147-.025.162-.093.336-.262.141-.073.655.111.686.372.672.238.609-.294.037-.164-.108-.122-.087-.144.1-.225.147-.065.437-.006.17-.041.274-.249.324-.57.242-.232.668-.306.658-.183.149.064.234.285.1.036.126-.129.355-.652.508-.428v-.417l-.2-.533-.095-.771.1-.157.6-.724.387-.7.166-.406.02-.332-.145-.111-.8-.351-.249-.19-.151-.3-.13-.332-.12-.192-.063-.1-.813-.616-.854-.48-.141-.387-.1-1.1-.074-.2-.2-.315-.037-.215.05-.222.215-.47.044-.152-.114-.4-.23-.162-.607-.155-.249-.191-.425-.423-.249-.094-.489-.1-.5-.377-.376-.57-.211-1.11-.05-.479.013-.478.1-.441.238-.4.288-.173.557-.079v-.047l.054-.115.081-.125.087-.073.072.01.15.1.07.011.129-.019.462,0,.4-.118.423-.217.377-.32.255-.431.118-.362.151-.323.2-.247.269-.128.839.941.435.261.574.118.611-.011.564-.106,1.153-.475.525-.326.246-.085,1.4.15.6-.211,1.105-.811.557-.242.392-.05.2-.268.182-.306.313-.163,1.9.478.294.17.28.261.352.514.027.068.23.079.156-.038.141-.067.183-.021.9.329.514-.01.334.1.108.006.234-.128.044-.09-.015-.14.058-.276.023-.044.412-.787.5-.349,1.326-.3.18-.056.133-.111.234-.3.013-.059.182-.4.035-.054.1-.767,0-.3.041-.309.133-.277.187-.145.387-.042.2-.068.817-.711.406-.874-.053-.99-.552-1.069-.437-.381-.066-.105.079-.228.187-.264.366-.372.4-.187.811-.182.386-.27.92-1.217.529-.269.214-.164.186-.223.112-.248-.008-.274-.124-.095-.071-.115.156-.344.4-.423.508-.278.794-.171.248-.054.537.1.257.373.077.613.009.818-.063.781-.3,1.4-.064.7.074.66.2.434.344.285.489.2.516.261.531.547,1.181,1.749.182.093.361.126.871.51.328.017.133-.075.29-.258.116-.054.1.035.059.022.137.252.143.1.3.042.574-.013.282.1.475.63-.276.632-.535.653-.329.756-.071.129-.031.073.321.021.286.1,1.072.577.126.1.122.171.184.429.324.58.157.351.1.351.031.465-.076.333-.112.319-.069.413.74-.226.613.273.562.105.6-.735.465-.909.072-.456-.213-.445-.176-.113-.408-.082-.182-.1-.17-.253-.155-.489-.2-.2-.041-.068-.013-.068.013-.069.041-.067.615-.568-.333-.938.081-.306.479-.371.409-.13.178-.1.149-.252.06-.332-.041-.607.074-.348.346-.52,1.358-.92.01-.019.137-.26.087-.311.1-.268.2-.151.224-.106.216-.2.17-.274.279-.968.547-1.146.116-.6-.025-.349-.251-.961,0-.387.048-.342-.037-.272-.249-.173-.18-.366.147-.665.324-.654.358-.333.91-.112.371.1.013.336.477.456.141.062.2-.081.091-.163.066-.193.128-.173.3-.223.147-.033.06.171.112,2.6-.027.413.037.152.135.133.413.231.166.137.373.977.237.329.4.269.435.16,2.142.025.352-.142.286-.4.008-.213-.029-.307.037-.309.2-.23.2,0,.456.276.24.052.388-.127,1.244-.641.815-.14.363.027.385.1.468.308.123.441.008.536.121.593.274.372.738.657.189.46.016.61.618.012.788-.3.522-.33.246-.517-.24-.482-.771-.787-.17-.3-.076-.228.012-.248.095-.367.141-.263.392-.353.135-.182.141-.591-.137-.3-.322-.13-.837-.162-.549-.215-.293-.367.33-.562-.162-.111-.09-.152-.044-.2-.023-.251.081-.289,0-.6.025-.195.161-.242.4-.4.155-.208.23-.887.081-.2.18-.1,1.77-.511.481,0,.3.245.037.307-.1.559.083.3.771.266.147.13.1.137.118.125.211.1.24.039.651-.062,1.339.353.338-.065.147-.244.114-.19.149-.674.013-.7-.141-.525-.39-.329-.8-.086-.338-.394-.156-.521.089-.259.2-.194.18-.322.041-.387-.017-.311.075-.249.317-.2.226-.345-.046-.376-.133-.4-.035-.407.408-.492.11-.174.067-.246.1-.88.607.494.775.086,1.9-.525.33-.037.288.076,1.43.858.182.276-.091.189-.416.338-.086.134.112.239.2.007.394-.125.216.073.538.306.183.007.356-.1.191,0,.168.088.319.274.191.079.186-.014.624-.212.321-.045.651.064.317.107.267-.037.261-.276.419-.72.077-.074.207-.094.081-.088.033-.137-.021-.284.015-.1.352-.842.2-.962.154-.336,1.21-1.207.334-.2,1.294-.422,1.31-.22.667.146.581.285.572.029.636-.617v0l.143-.213.166-.127.188-.043.328.079.122.071.108.1.1.133.156.1.17.032.176-.032.176-.1h0l0,0h0l.543-.159.444-.042.962.2h.01l.023.007.141.013.141-.02.356.037.6.451.35.133.216-.05.367-.3.207-.133.848-.136.645-.514.794-.431.825-.286,1.333-.064,1.894-.99.316-.063.888-.175.441.152-.006.348-.006.376-.4.541-1.132.633-.2.48.124.272Zm5.187,81.778.558.29.58-.083.334-.565-.015-.078.01-.082.029-.067.048-.055.018-.033.135-.258.039-.449-.06-.433-.132-.246-.539.091-.6.308-.193.2-.288.292-.187.62Zm.993,51.053.008.007h.017v-.028h-.018l-.005.012Zm59.629,88.991-.15.032-.19-.018-.757.506-.263.321-.125.3-.058.346.3-.01-.914,1.507-.5,1.231-2.014,2.582-1.68,2.648-.361.744-.321.5-.468.387-.527.807-.122.324.032.253.193.448.031.269-.078.236-.26.268-.058.228-.042.487-.228.691-.113.507-.275.864-.9,1.071-.359.656-.1.4-.038.424.047,2.328.087.4.128.327.134.186,1.3.731.7.136.359.241.286.4.173.561-.306-.29-.173.1-.127.273-.161.238.027-.406-.109-.17h-.2l-.234.111.116.29-.292.473.21.731.407.5.313-.227.268.145v.161l-.344.052.049.345.277.391.338.186.451.045.269.168.086.341-.1.567-.277-.152-.111.191.032.291.152.151.382-.047.164.088.157.292.054.378-.143.073-.2-.092-.1-.125-.1.037-.66.368.128.16-.164.1-.043.053.079.154v.174l-.441.024-.332.171-.281.194-.292.091-.4.2-.3.464-.948,2.432-.02.27-.236.211.091.469.342.754.332,1.387-.012.291-.37.357-.385.116-.381-.1-.343-.287-.271-.378-.143-.145-.225-.127-.259-.08-.175.013-.077.146-.21.165-.47-.209-.723-.514-.681-.251-.66.1-1.236.627-.086-.194-.05-.054-.234.089-.311-.3-1.117-.16-.242-.413-.237-.235-1.1-.428-.335-.215-.3.07-1.47-.351-.216-.27-1.518-3.274-.461-.657-1.7-1.66-1.314-.87-1.537-.73-.7-.129-2.1.175-.169.049-.35.22-.189.067-.825-.114-1.153-.908-.712-.288-.8-.168-.669-.29-.606-.422-1.582-1.582-.554-.394-.649-.2-.857-.148-.672-.243-.581-.367-.922-.746-.8-.474-.342-.343-.174-.115-.239-.08-.21-.107-.462-.9-.111-.1-.411-.237-.212-.284-.149-.138-.214-.061-.1-.074-.184-.333-.1-.075-2.291-.322-.276.138-.194.038-.178-.1-.12-.221-.117-.476-.078-.2-.484-.518-.589-.261-1.5-.186-1.518.052-1.555.27-.718-.056-.432-.4-.776-1.314-.316-.333-.268-.137-.745-.014-.325-.169-.321-.406-.274-.479-.175-.4-.085-.35-.025-.311-.053-.284-.155-.273-.219-.28-.173-.328.008-.29.321-.159.027.1.269-.17.085-.089-.037-.07.134-.655.042-.018.1-.434.018-.2-.037-.113-.167-.265-.052-.21-.017-.163.008-.029.047-.048.438-.9.114-.631.118-.39.023-.336-.21-.242.571-.238.49-.555.5-.4.6.221.566-.406L530,379l.1-.377.1-.212.254.01.3.089.237.031.388-.359-.026-.58-.076-.6.222-.411.112.28.216-.026.216.026.1.436.461,1.083.516.93.194.191.527.269.224.172.014.209.589.344.8-.114,1.555-.7.636-.5.155-.181.03-.1-.031-.141-.026-.3-.038-.216-.175-.23-.04-.216.648-.574-.106-.207.11-.2.211-.161.216-.064.186.043.646.269.419.082.52,0,.432-.2.162-.532.288.107.216-.065.207-.123.367-.1.254-.122.147-.026.1.064.033.15.018.163.044.11.707.487.107.163.026.763.064.223.274.668,2.284-.175.519.391-.036.409.029.222.122.268.189.169.553.237.661.568.537.338.871.174.265.134-.077.068-.009.025-.042.085.4-.011,1.2.173.409-.1.832-.446.768-.183.262-.194.234-.221.256-.164,1.284-.223.25-.264.785.455.387.151.43.057.274-.028.569-.149,2.278.326,1.085-.068,1-.273.884-.472.6.29.89-.171,2.3-.881.619-.42.528-.519.706-.869.207-.089.613.051.384-.026,1.42-.365.261-.165.176-.079.18-.042.528.042.181.1.338.437.125.1.225.023.478.153.593-.036.186.036.076.081.19.3.1.1.359.073.325-.125.323-.18,1.025-.363.484-.641.7-1.376-.058-.183-.029-.053.017-.058.07-.195-.067-.075h.113l.059.249-.1.572.086.311.228.168.311.064.33.012.546-.092,1.47-.517.415-.286.222-.2.731-.349.747-.71.295-.12.572.06,1.06.474.666.118-.062.2Z" transform="translate(-416.919 -150)"/>
    </clipPath>
  </defs>
  <g id="Group_112" data-name="Group 112" transform="translate(-318 -544.704)">
    <g id="Group_101" data-name="Group 101" transform="translate(318 544.704)">
      <g id="Group_97" data-name="Group 97" class="cls-2">
        <g id="Group_96" data-name="Group 96" transform="translate(-57.337 -59.726)">
          <g id="Group_95" data-name="Group 95" transform="translate(0 0)">
            <path id="Path_353" data-name="Path 353" class="cls-3" d="M398.334,774l-66.415,10.034,126.618-8.123Z" transform="translate(-315.196 -416.124)"/>
            <path id="Path_354" data-name="Path 354" class="cls-4" d="M458.537,778l-126.618,8.123,162.932-4.3Z" transform="translate(-315.196 -418.213)"/>
            <path id="Path_355" data-name="Path 355" class="cls-5" d="M544.919,41l102.25,10.512,37.747-5.734Z" transform="translate(-426.423 -33.355)"/>
            <path id="Path_356" data-name="Path 356" class="cls-6" d="M743.156,792.211,672.919,786l112.762,12.423Z" transform="translate(-493.264 -422.39)"/>
            <path id="Path_357" data-name="Path 357" class="cls-7" d="M494.851,786l-162.932,4.3,275.694,8.123Z" transform="translate(-315.196 -422.39)"/>
            <path id="Path_358" data-name="Path 358" class="cls-8" d="M544.919,32.645l140,4.778L752.286,25Z" transform="translate(-426.423 -25)"/>
            <path id="Path_359" data-name="Path 359" class="cls-9" d="M462.919,27.389l39.18,5.256L709.467,25Z" transform="translate(-383.603 -25)"/>
            <path id="Path_360" data-name="Path 360" class="cls-10" d="M837.919,37.423l15.768,3.822L905.29,25Z" transform="translate(-579.426 -25)"/>
            <path id="Path_361" data-name="Path 361" class="cls-11" d="M870.919,41.245l39.658,49.692L922.522,25Z" transform="translate(-596.659 -25)"/>
            <path id="Path_362" data-name="Path 362" class="cls-12" d="M939.243,562l-25.324,24.846,32.491,21.979Z" transform="translate(-619.113 -305.419)"/>
            <path id="Path_363" data-name="Path 363" class="cls-13" d="M923.321,304l-34.4,52.081,49.692.478Z" transform="translate(-606.058 -170.692)"/>
            <path id="Path_364" data-name="Path 364" class="cls-14" d="M935.12,690l-17.2,12.9,39.658,47.3Z" transform="translate(-621.202 -372.259)"/>
            <path id="Path_365" data-name="Path 365" class="cls-15" d="M913.219,717l-4.3,45.391,43.958,1.911Z" transform="translate(-616.502 -386.359)"/>
            <path id="Path_366" data-name="Path 366" class="cls-16" d="M967.3,660l-13.379,14.334,22.457,60.2Z" transform="translate(-640.001 -356.594)"/>
            <path id="Path_367" data-name="Path 367" class="cls-17" d="M956.365,414l-33.446,28.191,39.658,6.689Z" transform="translate(-623.813 -228.134)"/>
            <path id="Path_368" data-name="Path 368" class="cls-18" d="M922.919,473l21.023,42.525,18.634-35.836Z" transform="translate(-623.813 -258.943)"/>
            <path id="Path_369" data-name="Path 369" class="cls-19" d="M966.919,522.835l7.167,46.825L985.553,487Z" transform="translate(-646.789 -266.254)"/>
            <path id="Path_370" data-name="Path 370" class="cls-20" d="M981.919,569.66,991,644.2,993.386,487Z" transform="translate(-654.622 -266.254)"/>
            <path id="Path_371" data-name="Path 371" class="cls-21" d="M922.919,270.457l18.156,4.3L963.055,248Z" transform="translate(-623.813 -141.449)"/>
            <path id="Path_372" data-name="Path 372" class="cls-22" d="M937.731,163l-14.812,63.07,40.136-22.457Z" transform="translate(-623.813 -97.063)"/>
            <path id="Path_373" data-name="Path 373" class="cls-23" d="M965.864,25,953.919,90.937l25.324,40.613Z" transform="translate(-640.001 -25)"/>
            <path id="Path_374" data-name="Path 374" class="cls-24" d="M960.919,274.757l15.29,52.559L982.9,248Z" transform="translate(-643.656 -141.449)"/>
            <path id="Path_375" data-name="Path 375" class="cls-25" d="M992.919,327.316l6.211,34.88.478-114.2Z" transform="translate(-660.367 -141.449)"/>
            <path id="Path_376" data-name="Path 376" class="cls-26" d="M870.919,59l5.256,40.136,34.4,9.556Z" transform="translate(-596.659 -42.755)"/>
            <path id="Path_377" data-name="Path 377" class="cls-27" d="M871.919,188.324l24.368,37.747L911.1,163Z" transform="translate(-597.181 -97.063)"/>
            <path id="Path_378" data-name="Path 378" class="cls-28" d="M905.164,295l-16.245,56.381,34.4-52.081Z" transform="translate(-606.058 -165.993)"/>
            <path id="Path_379" data-name="Path 379" class="cls-29" d="M888.919,413l16.245,28.668,33.447-28.191Z" transform="translate(-606.058 -227.612)"/>
            <path id="Path_380" data-name="Path 380" class="cls-30" d="M913.919,614l19.112,36.313,13.378-14.334Z" transform="translate(-619.113 -332.573)"/>
            <path id="Path_381" data-name="Path 381" class="cls-31" d="M903.6,473l-17.679,48.736,38.7-6.211Z" transform="translate(-604.492 -258.943)"/>
            <path id="Path_382" data-name="Path 382" class="cls-32" d="M885.919,568.211,899.3,586.846,924.621,562Z" transform="translate(-604.492 -305.419)"/>
            <path id="Path_383" data-name="Path 383" class="cls-33" d="M913.919,614l1.911,49.214,17.2-12.9Z" transform="translate(-619.113 -332.573)"/>
            <path id="Path_384" data-name="Path 384" class="cls-34" d="M876.7,143l-4.778,34.88,39.18-25.324Z" transform="translate(-597.181 -86.619)"/>
            <path id="Path_385" data-name="Path 385" class="cls-35" d="M544.919,41l46.825,16.245,55.425-5.734Z" transform="translate(-426.423 -33.355)"/>
            <path id="Path_386" data-name="Path 386" class="cls-36" d="M830.919,618.3l3.822,31.057L870.577,614Z" transform="translate(-575.771 -332.573)"/>
            <path id="Path_387" data-name="Path 387" class="cls-37" d="M819.919,756.18l42.525,6.211,4.3-45.391Z" transform="translate(-570.027 -386.359)"/>
            <path id="Path_388" data-name="Path 388" class="cls-38" d="M829,688l-9.078,53.036,46.825-39.18Z" transform="translate(-570.027 -371.215)"/>
            <path id="Path_389" data-name="Path 389" class="cls-39" d="M874.754,614l-35.835,35.357,37.747,13.856Z" transform="translate(-579.949 -332.573)"/>
            <path id="Path_390" data-name="Path 390" class="cls-40" d="M812.919,515.047l34.88,6.689L865.478,473Z" transform="translate(-566.372 -258.943)"/>
            <path id="Path_391" data-name="Path 391" class="cls-41" d="M813.875,445l-.956,55.425,52.559-42.047Z" transform="translate(-566.372 -244.322)"/>
            <path id="Path_392" data-name="Path 392" class="cls-42" d="M850.277,413l-35.358,15.29,51.6,13.379Z" transform="translate(-567.416 -227.612)"/>
            <path id="Path_393" data-name="Path 393" class="cls-43" d="M841.919,299.778l22.457,51.6L880.621,295Z" transform="translate(-581.515 -165.993)"/>
            <path id="Path_394" data-name="Path 394" class="cls-44" d="M856.253,216l-14.334,42.525,38.7-4.778Z" transform="translate(-581.515 -124.739)"/>
            <path id="Path_395" data-name="Path 395" class="cls-45" d="M830.953,305l-10.034,50.647,32.491.956Z" transform="translate(-570.549 -171.215)"/>
            <path id="Path_396" data-name="Path 396" class="cls-46" d="M857.2,575l-26.279,22.935,39.658-4.3Z" transform="translate(-575.771 -312.207)"/>
            <path id="Path_397" data-name="Path 397" class="cls-47" d="M831.131,51l-6.212,46.825,21.979-43Z" transform="translate(-572.638 -38.577)"/>
            <path id="Path_398" data-name="Path 398" class="cls-48" d="M846.9,59l-21.979,43,27.235-2.867Z" transform="translate(-572.638 -42.755)"/>
            <path id="Path_399" data-name="Path 399" class="cls-49" d="M833.919,166.89l18.157,10.99L856.854,143Z" transform="translate(-577.338 -86.619)"/>
            <path id="Path_400" data-name="Path 400" class="cls-50" d="M824.919,145.867l4.3,21.023L852.154,143Z" transform="translate(-572.638 -86.619)"/>
            <path id="Path_401" data-name="Path 401" class="cls-51" d="M817.786,411l-2.867,16.245,35.358-15.29Z" transform="translate(-567.416 -226.567)"/>
            <path id="Path_402" data-name="Path 402" class="cls-52" d="M699.676,773l-26.757,6.211,70.237,6.211Z" transform="translate(-493.264 -415.602)"/>
            <path id="Path_403" data-name="Path 403" class="cls-53" d="M812.919,561l8.6,29.624L847.8,567.689Z" transform="translate(-566.372 -304.896)"/>
            <path id="Path_404" data-name="Path 404" class="cls-54" d="M833.919,193l3.822,53.514,14.334-42.525Z" transform="translate(-577.338 -112.729)"/>
            <path id="Path_405" data-name="Path 405" class="cls-55" d="M796.321,193l-34.4,11.467,38.224,42.047Z" transform="translate(-539.74 -112.729)"/>
            <path id="Path_406" data-name="Path 406" class="cls-56" d="M743.919,447.867l32.969,52.559L777.843,445Z" transform="translate(-530.34 -244.322)"/>
            <path id="Path_407" data-name="Path 407" class="cls-57" d="M729.4,731l-.478,20.068,43.48,12.423Z" transform="translate(-522.507 -393.669)"/>
            <path id="Path_408" data-name="Path 408" class="cls-58" d="M758.919,56.734l31.535,41.091L796.666,51Z" transform="translate(-538.173 -38.577)"/>
            <path id="Path_409" data-name="Path 409" class="cls-59" d="M780.788,613.078,734.919,604l49.692,40.136Z" transform="translate(-525.64 -327.351)"/>
            <path id="Path_410" data-name="Path 410" class="cls-60" d="M729.919,708.546l43,32.491L782,688Z" transform="translate(-523.029 -371.215)"/>
            <path id="Path_411" data-name="Path 411" class="cls-61" d="M752.919,310.256l32.491,45.391L795.444,305Z" transform="translate(-535.04 -171.215)"/>
            <path id="Path_412" data-name="Path 412" class="cls-62" d="M757.219,217l-4.3,47.3,42.525-5.256Z" transform="translate(-535.04 -125.261)"/>
            <path id="Path_413" data-name="Path 413" class="cls-63" d="M755.264,63l-3.345,42.047,34.88-.956Z" transform="translate(-534.518 -44.843)"/>
            <path id="Path_414" data-name="Path 414" class="cls-64" d="M732.308,604l-2.389,60.681L782,644.136Z" transform="translate(-523.029 -327.351)"/>
            <path id="Path_415" data-name="Path 415" class="cls-65" d="M751.919,149.956l4.778,31.535L786.8,149Z" transform="translate(-534.518 -89.752)"/>
            <path id="Path_416" data-name="Path 416" class="cls-66" d="M776.365,561l-33.446,8.123,42.047,21.5Z" transform="translate(-529.818 -304.896)"/>
            <path id="Path_417" data-name="Path 417" class="cls-67" d="M738.741,578l-3.822,12.423,45.869,9.078Z" transform="translate(-525.64 -313.774)"/>
            <path id="Path_418" data-name="Path 418" class="cls-68" d="M792.021,149l-30.1,32.491,34.4-11.467Z" transform="translate(-539.74 -89.752)"/>
            <path id="Path_419" data-name="Path 419" class="cls-69" d="M743.4,451l-.478,60.681,33.446-8.123Z" transform="translate(-529.818 -247.455)"/>
            <path id="Path_420" data-name="Path 420" class="cls-70" d="M737.253,316l-14.334,46.347,46.825-.956Z" transform="translate(-519.374 -176.959)"/>
            <path id="Path_421" data-name="Path 421" class="cls-71" d="M743.919,430.112l33.924-2.867L780.71,411Z" transform="translate(-530.34 -226.567)"/>
            <path id="Path_422" data-name="Path 422" class="cls-72" d="M722.919,411.956l10.034,18.157L769.744,411Z" transform="translate(-519.374 -226.567)"/>
            <path id="Path_423" data-name="Path 423" class="cls-73" d="M678.919,625.5l24.368,39.18L705.676,604Z" transform="translate(-496.397 -327.351)"/>
            <path id="Path_424" data-name="Path 424" class="cls-74" d="M657.919,493.525l40.613,18.157L699.01,451Z" transform="translate(-485.431 -247.455)"/>
            <path id="Path_425" data-name="Path 425" class="cls-75" d="M648.919,471.546l4.3,21.979L694.31,451Z" transform="translate(-480.732 -247.455)"/>
            <path id="Path_426" data-name="Path 426" class="cls-76" d="M633.919,334.634l42.525,27.713L690.778,316Z" transform="translate(-472.899 -176.959)"/>
            <path id="Path_427" data-name="Path 427" class="cls-77" d="M642.919,84.5,695,105.047,698.344,63Z" transform="translate(-477.598 -44.843)"/>
            <path id="Path_428" data-name="Path 428" class="cls-78" d="M642.919,68.734V84.5L698.344,63Z" transform="translate(-477.598 -44.843)"/>
            <path id="Path_429" data-name="Path 429" class="cls-79" d="M708.577,151l-39.658,36.313,44.436-4.778Z" transform="translate(-491.175 -90.797)"/>
            <path id="Path_430" data-name="Path 430" class="cls-80" d="M675.919,247.58,712.71,264.3l4.3-47.3Z" transform="translate(-494.831 -125.261)"/>
            <path id="Path_431" data-name="Path 431" class="cls-81" d="M668.919,221.778l3.345,25.8L713.355,217Z" transform="translate(-491.175 -125.261)"/>
            <path id="Path_432" data-name="Path 432" class="cls-82" d="M653.987,281l-20.068,35.358,56.859-18.634Z" transform="translate(-472.899 -158.682)"/>
            <path id="Path_433" data-name="Path 433" class="cls-83" d="M642.919,108l12.423,56.859L695,128.546Z" transform="translate(-477.598 -68.342)"/>
            <path id="Path_434" data-name="Path 434" class="cls-84" d="M684.277,413l-35.358,38.7,45.391-20.546Z" transform="translate(-480.732 -227.612)"/>
            <path id="Path_435" data-name="Path 435" class="cls-85" d="M657.919,540l36.791,30.58,3.822-12.423Z" transform="translate(-485.431 -293.93)"/>
            <path id="Path_436" data-name="Path 436" class="cls-86" d="M672.919,757.279l26.757-6.212L700.154,731Z" transform="translate(-493.264 -393.669)"/>
            <path id="Path_437" data-name="Path 437" class="cls-87" d="M657.919,540l10.034,52.081,26.757-21.5Z" transform="translate(-485.431 -293.93)"/>
            <path id="Path_438" data-name="Path 438" class="cls-88" d="M650.2,649l-26.279,41.091,50.647-1.911Z" transform="translate(-467.677 -350.849)"/>
            <path id="Path_439" data-name="Path 439" class="cls-89" d="M623.919,732.911l23.412,24.368L674.566,731Z" transform="translate(-467.677 -393.669)"/>
            <path id="Path_440" data-name="Path 440" class="cls-90" d="M633.919,355l7.167,66.415,35.358-38.7Z" transform="translate(-472.899 -197.324)"/>
            <path id="Path_441" data-name="Path 441" class="cls-91" d="M539.919,382.713l16.245,34.4L584.833,355Z" transform="translate(-423.812 -197.324)"/>
            <path id="Path_442" data-name="Path 442" class="cls-92" d="M602.587,355l-28.668,62.115,35.835,4.3Z" transform="translate(-441.567 -197.324)"/>
            <path id="Path_443" data-name="Path 443" class="cls-93" d="M551.919,558.634l8.6,27.713L602.566,540Z" transform="translate(-430.079 -293.93)"/>
            <path id="Path_444" data-name="Path 444" class="cls-94" d="M615.243,108l-25.324,45.869,37.747,10.99Z" transform="translate(-449.922 -68.342)"/>
            <path id="Path_445" data-name="Path 445" class="cls-95" d="M627.666,214.99,589.919,204l41.091,36.791Z" transform="translate(-449.922 -118.473)"/>
            <path id="Path_446" data-name="Path 446" class="cls-96" d="M611.966,540l-42.047,46.347L622,592.081Z" transform="translate(-439.478 -293.93)"/>
            <path id="Path_447" data-name="Path 447" class="cls-97" d="M569.919,637l25.8,46.825L622,642.734Z" transform="translate(-439.478 -344.583)"/>
            <path id="Path_448" data-name="Path 448" class="cls-98" d="M538.919,291.99l45.391,24.368L604.378,281Z" transform="translate(-423.29 -158.682)"/>
            <path id="Path_449" data-name="Path 449" class="cls-99" d="M563.287,204l-24.368,47.781,65.459-10.99Z" transform="translate(-423.29 -118.473)"/>
            <path id="Path_450" data-name="Path 450" class="cls-100" d="M609.82,735l-12.9,20.546,36.313,3.822Z" transform="translate(-453.578 -395.758)"/>
            <path id="Path_451" data-name="Path 451" class="cls-101" d="M568.919,115.645l10.034,38.224L604.276,108Z" transform="translate(-438.956 -68.342)"/>
            <path id="Path_452" data-name="Path 452" class="cls-102" d="M609.754,489.3,573.919,485l40.136,26.279Z" transform="translate(-441.567 -265.21)"/>
            <path id="Path_453" data-name="Path 453" class="cls-103" d="M562.431,485l-10.512,44.914,50.647-18.634Z" transform="translate(-430.079 -265.21)"/>
            <path id="Path_454" data-name="Path 454" class="cls-104" d="M568.919,98.412l35.357-7.645V75Z" transform="translate(-438.956 -51.11)"/>
            <path id="Path_455" data-name="Path 455" class="cls-105" d="M544.919,41l11.467,39.658,35.358-23.412Z" transform="translate(-426.423 -33.355)"/>
            <path id="Path_456" data-name="Path 456" class="cls-106" d="M553.731,637l-14.812,49.214,40.613-2.389Z" transform="translate(-423.29 -344.583)"/>
            <path id="Path_457" data-name="Path 457" class="cls-107" d="M538.919,304l.478,52.081,44.914-27.713Z" transform="translate(-423.29 -170.692)"/>
            <path id="Path_458" data-name="Path 458" class="cls-108" d="M538.919,737.389l27.713,18.157L579.532,735Z" transform="translate(-423.29 -395.758)"/>
            <path id="Path_459" data-name="Path 459" class="cls-109" d="M367.277,770l-35.358,11.945,66.415-10.034Z" transform="translate(-315.196 -414.035)"/>
            <path id="Path_460" data-name="Path 460" class="cls-110" d="M523.253,304l-14.334,39.658,14.812,12.423Z" transform="translate(-407.624 -170.692)"/>
            <path id="Path_461" data-name="Path 461" class="cls-111" d="M499.919,674.269l18.634,11.945L533.365,637Z" transform="translate(-402.925 -344.583)"/>
            <path id="Path_462" data-name="Path 462" class="cls-112" d="M460.919,221.2l37.269,30.58L522.556,204Z" transform="translate(-382.559 -118.473)"/>
            <path id="Path_463" data-name="Path 463" class="cls-113" d="M525.577,124l-39.658,12.9,49.692,25.324Z" transform="translate(-395.614 -76.697)"/>
            <path id="Path_464" data-name="Path 464" class="cls-114" d="M503.41,740l-32.491,16.245,60.2,1.911Z" transform="translate(-387.781 -398.369)"/>
            <path id="Path_465" data-name="Path 465" class="cls-115" d="M488.919,515.1l30.1,14.812L529.533,485Z" transform="translate(-397.18 -265.21)"/>
            <path id="Path_466" data-name="Path 466" class="cls-116" d="M472.864,151l-11.945,42.525,61.637-17.2Z" transform="translate(-382.559 -90.797)"/>
            <path id="Path_467" data-name="Path 467" class="cls-117" d="M460.919,240l6.211,22.457,31.057,8.123Z" transform="translate(-382.559 -137.272)"/>
            <path id="Path_468" data-name="Path 468" class="cls-118" d="M514.109,41l-28.19,52.559,39.658-12.9Z" transform="translate(-395.614 -33.355)"/>
            <path id="Path_469" data-name="Path 469" class="cls-119" d="M503.264,624l-3.345,43.48,33.446-37.269Z" transform="translate(-402.925 -337.795)"/>
            <path id="Path_470" data-name="Path 470" class="cls-120" d="M528.42,579l-21.5,21.5,30.1,6.211Z" transform="translate(-406.58 -314.296)"/>
            <path id="Path_471" data-name="Path 471" class="cls-121" d="M505.976,413l-31.057,14.334,47.3,20.068Z" transform="translate(-389.87 -227.612)"/>
            <path id="Path_472" data-name="Path 472" class="cls-122" d="M474.919,443l6.689,50.17,40.613-30.1Z" transform="translate(-389.87 -243.277)"/>
            <path id="Path_473" data-name="Path 473" class="cls-123" d="M328.919,35.256l45.869,1.433L392.945,30Z" transform="translate(-313.629 -27.611)"/>
            <path id="Path_474" data-name="Path 474" class="cls-124" d="M462.919,30l10.99,57.814L502.1,35.256Z" transform="translate(-383.603 -27.611)"/>
            <path id="Path_475" data-name="Path 475" class="cls-125" d="M488.919,548l8.6,36.313,21.5-21.5Z" transform="translate(-397.18 -298.108)"/>
            <path id="Path_476" data-name="Path 476" class="cls-126" d="M473.919,287l16.723,47.781,14.334-39.658Z" transform="translate(-389.347 -161.815)"/>
            <path id="Path_477" data-name="Path 477" class="cls-127" d="M484.775,715l-13.856,28.191,32.491-16.245Z" transform="translate(-387.781 -385.314)"/>
            <path id="Path_478" data-name="Path 478" class="cls-128" d="M491.164,387l-16.245,26.757,31.057-14.334Z" transform="translate(-389.87 -214.035)"/>
            <path id="Path_479" data-name="Path 479" class="cls-129" d="M424.919,36.689l.478,44.436L443.076,30Z" transform="translate(-363.76 -27.611)"/>
            <path id="Path_480" data-name="Path 480" class="cls-130" d="M443.6,30,425.919,81.125l28.668,6.689Z" transform="translate(-364.282 -27.611)"/>
            <path id="Path_481" data-name="Path 481" class="cls-131" d="M451.943,443l-21.023,5.734,27.713,44.436Z" transform="translate(-366.893 -243.277)"/>
            <path id="Path_482" data-name="Path 482" class="cls-132" d="M412.919,653l7.645,34.4,33.924-4.778Z" transform="translate(-357.494 -352.938)"/>
            <path id="Path_483" data-name="Path 483" class="cls-133" d="M446.621,548l-38.7,8.6,47.3,27.713Z" transform="translate(-354.883 -298.108)"/>
            <path id="Path_484" data-name="Path 484" class="cls-134" d="M407.919,566l2.389,41.569,44.914-13.856Z" transform="translate(-354.883 -307.507)"/>
            <path id="Path_485" data-name="Path 485" class="cls-135" d="M412.919,637.856l41.569,29.624L457.833,624Z" transform="translate(-357.494 -337.795)"/>
            <path id="Path_486" data-name="Path 486" class="cls-136" d="M398.919,396.078l36.313,17.679L451.478,387Z" transform="translate(-350.183 -214.035)"/>
            <path id="Path_487" data-name="Path 487" class="cls-137" d="M434.754,287l-35.835,56.859,52.559-9.078Z" transform="translate(-350.183 -161.815)"/>
            <path id="Path_488" data-name="Path 488" class="cls-138" d="M422.919,184.924l18.157,8.6L453.021,151Z" transform="translate(-362.716 -90.797)"/>
            <path id="Path_489" data-name="Path 489" class="cls-139" d="M382.919,292.734l7.645,51.125L426.4,287Z" transform="translate(-341.828 -161.815)"/>
            <path id="Path_490" data-name="Path 490" class="cls-140" d="M428.919,719.778l20.068,23.413L462.843,715Z" transform="translate(-365.849 -385.314)"/>
            <path id="Path_491" data-name="Path 491" class="cls-141" d="M424.352,137l-1.433,40.613,30.1-33.924Z" transform="translate(-362.716 -83.486)"/>
            <path id="Path_492" data-name="Path 492" class="cls-142" d="M418.909,455l-10.99,53.036,38.7-8.6Z" transform="translate(-354.883 -249.544)"/>
            <path id="Path_493" data-name="Path 493" class="cls-143" d="M398.919,406l15.29,23.412,21.023-5.734Z" transform="translate(-350.183 -223.956)"/>
            <path id="Path_494" data-name="Path 494" class="cls-116" d="M420.188,240l-37.269,28.191,43.48-5.734Z" transform="translate(-341.828 -137.272)"/>
            <path id="Path_495" data-name="Path 495" class="cls-144" d="M416.909,725l-10.99,21.5,31.057,1.911Z" transform="translate(-353.838 -390.536)"/>
            <path id="Path_496" data-name="Path 496" class="cls-145" d="M402.031,222l-19.112,36.791L420.188,230.6Z" transform="translate(-341.828 -127.872)"/>
            <path id="Path_497" data-name="Path 497" class="cls-146" d="M359.42,299l-21.5,42.525,29.146,8.6Z" transform="translate(-318.329 -168.081)"/>
            <path id="Path_498" data-name="Path 498" class="cls-147" d="M336.786,439l-2.867,63.548,35.358-2.867Z" transform="translate(-316.24 -241.189)"/>
            <path id="Path_499" data-name="Path 499" class="cls-148" d="M370.321,566l-34.4,26.279,36.791,15.29Z" transform="translate(-317.285 -307.507)"/>
            <path id="Path_500" data-name="Path 500" class="cls-149" d="M328.919,41l.956,32.491,44.914-31.057Z" transform="translate(-313.629 -33.355)"/>
            <path id="Path_501" data-name="Path 501" class="cls-150" d="M312.919,163.757l52.559,13.856L366.911,137Z" transform="translate(-305.274 -83.486)"/>
            <path id="Path_502" data-name="Path 502" class="cls-151" d="M375.833,44,330.919,75.057l45.391,13.379Z" transform="translate(-314.674 -34.922)"/>
            <path id="Path_503" data-name="Path 503" class="cls-152" d="M352.344,653l-55.425,21.023,63.07,13.379Z" transform="translate(-296.919 -352.938)"/>
            <path id="Path_504" data-name="Path 504" class="cls-153" d="M339.919,439l32.491,60.681,10.99-53.036Z" transform="translate(-319.373 -241.189)"/>
            <path id="Path_505" data-name="Path 505" class="cls-154" d="M368.109,406l-28.191,15.768,43.48,7.645Z" transform="translate(-319.373 -223.956)"/>
            <path id="Path_506" data-name="Path 506" class="cls-155" d="M321.52,109l-8.6,40.136,53.992-26.757Z" transform="translate(-305.274 -68.864)"/>
            <path id="Path_507" data-name="Path 507" class="cls-156" d="M296.919,697,349,731.88l10.99-21.5Z" transform="translate(-296.919 -375.915)"/>
            <path id="Path_508" data-name="Path 508" class="cls-141" d="M312.919,193l33.446,50.647,19.112-36.791Z" transform="translate(-305.274 -112.729)"/>
            <path id="Path_509" data-name="Path 509" class="cls-157" d="M312.919,193l2.389,49.692,31.057.956Z" transform="translate(-305.274 -112.729)"/>
            <path id="Path_510" data-name="Path 510" class="cls-158" d="M296.919,697l16.723,46.825L349,731.88Z" transform="translate(-296.919 -375.915)"/>
            <path id="Path_511" data-name="Path 511" class="cls-159" d="M333.919,568.867l.956,23.412L369.277,566Z" transform="translate(-316.24 -307.507)"/>
            <path id="Path_512" data-name="Path 512" class="cls-160" d="M315.553,621l-18.634,36.313,55.425-21.024Z" transform="translate(-296.919 -336.228)"/>
            <path id="Path_513" data-name="Path 513" class="cls-161" d="M317.919,297l9.556,43.48,21.5-42.525Z" transform="translate(-307.885 -167.037)"/>
            <path id="Path_514" data-name="Path 514" class="cls-162" d="M337.919,388l.956,24.368L367.065,396.6Z" transform="translate(-318.329 -214.557)"/>
            <path id="Path_515" data-name="Path 515" class="cls-163" d="M296.919,562.274,314.6,502.548,317.465,439Z" transform="translate(-296.919 -241.189)"/>
            <path id="Path_516" data-name="Path 516" class="cls-164" d="M306.953,297,296.919,488.122l20.546-123.274Z" transform="translate(-296.919 -167.037)"/>
            <path id="Path_517" data-name="Path 517" class="cls-165" d="M327.475,340.48,317.919,297l10.512,67.848Z" transform="translate(-307.885 -167.037)"/>
            <path id="Path_518" data-name="Path 518" class="cls-166" d="M314.6,572l-17.679,59.726,18.634-36.313Z" transform="translate(-296.919 -310.64)"/>
            <path id="Path_519" data-name="Path 519" class="cls-167" d="M320.564,41l-7.645,72.626,8.6-40.136Z" transform="translate(-305.274 -33.355)"/>
            <path id="Path_520" data-name="Path 520" class="cls-168" d="M304.564,193l-7.645,240.814,10.034-191.122Z" transform="translate(-296.919 -112.729)"/>
          </g>
        </g>
      </g>
    </g>
    <g id="Group_102" data-name="Group 102" class="cls-169" transform="matrix(0.995, -0.105, 0.105, 0.995, 359.101, 566.506)">
      <ellipse id="Ellipse_3" data-name="Ellipse 3" class="cls-170" cx="9.439" cy="9.439" rx="9.439" ry="9.439" transform="translate(1.264 1.159)"/>
      <path id="Path_528" data-name="Path 528" class="cls-171" d="M20.566,6.455A10.517,10.517,0,0,0,18.271,3.1,10.664,10.664,0,0,0,14.869.83,10.822,10.822,0,0,0,3.134,3.1,10.531,10.531,0,0,0,.84,6.455,10.4,10.4,0,0,0,0,10.569a9.982,9.982,0,0,0,.885,4.073,13.037,13.037,0,0,0,2.25,3.4l7.569,8.4,7.566-8.4a13.052,13.052,0,0,0,2.25-3.4,9.968,9.968,0,0,0,.885-4.072A10.383,10.383,0,0,0,20.566,6.455Zm-1.4,7.578a8.936,8.936,0,0,1-1.989,2.932,9.121,9.121,0,0,1-3,1.973A9.265,9.265,0,0,1,7.2,18.925a9.107,9.107,0,0,1-4.11-3.331,8.936,8.936,0,0,1-1.543-5.025,9.158,9.158,0,0,1,18.315,0A8.837,8.837,0,0,1,19.17,14.033Z" transform="translate(0 0)"/>
    </g>
    <g id="Group_105" data-name="Group 105" class="cls-169" transform="matrix(0.995, -0.105, 0.105, 0.995, 411.389, 660.083)">
      <ellipse id="Ellipse_3-2" data-name="Ellipse 3" class="cls-170" cx="9.258" cy="9.258" rx="9.258" ry="9.258" transform="translate(1.24 1.137)"/>
      <path id="Path_528-2" data-name="Path 528" class="cls-171" d="M20.171,6.331a10.315,10.315,0,0,0-2.25-3.294A10.459,10.459,0,0,0,14.584.814,10.614,10.614,0,0,0,3.074,3.038,10.329,10.329,0,0,0,.823,6.331,10.2,10.2,0,0,0,0,10.366a9.79,9.79,0,0,0,.868,4A12.787,12.787,0,0,0,3.075,17.7L10.5,25.938l7.42-8.243a12.8,12.8,0,0,0,2.207-3.335,9.777,9.777,0,0,0,.868-3.994A10.183,10.183,0,0,0,20.171,6.331ZM18.8,13.764a8.765,8.765,0,0,1-1.951,2.876,8.946,8.946,0,0,1-2.945,1.935,9.088,9.088,0,0,1-6.845-.013A8.932,8.932,0,0,1,3.03,15.294a8.764,8.764,0,0,1-1.513-4.928,8.982,8.982,0,0,1,17.963,0A8.668,8.668,0,0,1,18.8,13.764Z" transform="translate(0 0)"/>
    </g>
    <g id="Group_104" data-name="Group 104" class="cls-169" transform="matrix(0.995, -0.105, 0.105, 0.995, 383.153, 634.865)">
      <ellipse id="Ellipse_3-3" data-name="Ellipse 3" class="cls-170" cx="6.298" cy="6.298" rx="6.298" ry="6.298" transform="translate(0.843 0.773)"/>
      <path id="Path_528-3" data-name="Path 528" class="cls-172" d="M13.722,4.307a7.018,7.018,0,0,0-1.531-2.241A7.116,7.116,0,0,0,9.922.554,7.221,7.221,0,0,0,2.091,2.067,7.027,7.027,0,0,0,.56,4.307,6.936,6.936,0,0,0,0,7.052,6.66,6.66,0,0,0,.59,9.77a8.7,8.7,0,0,0,1.5,2.269l5.05,5.607,5.048-5.608a8.709,8.709,0,0,0,1.5-2.269,6.652,6.652,0,0,0,.591-2.717A6.928,6.928,0,0,0,13.722,4.307Zm-.931,5.056a5.962,5.962,0,0,1-1.327,1.956,6.086,6.086,0,0,1-2,1.316A6.182,6.182,0,0,1,4.8,12.628a6.077,6.077,0,0,1-2.742-2.223A5.963,5.963,0,0,1,1.032,7.052a6.111,6.111,0,0,1,12.221,0A5.9,5.9,0,0,1,12.791,9.364Z" transform="translate(0 0)"/>
    </g>
    <g id="Group_107" data-name="Group 107" class="cls-169" transform="matrix(0.995, -0.105, 0.105, 0.995, 456.356, 695.519)">
      <ellipse id="Ellipse_3-4" data-name="Ellipse 3" class="cls-170" cx="6.298" cy="6.298" rx="6.298" ry="6.298" transform="translate(0.843 0.773)"/>
      <path id="Path_528-4" data-name="Path 528" class="cls-172" d="M13.722,4.307a7.018,7.018,0,0,0-1.531-2.241A7.116,7.116,0,0,0,9.922.554,7.221,7.221,0,0,0,2.091,2.067,7.027,7.027,0,0,0,.56,4.307,6.936,6.936,0,0,0,0,7.052,6.66,6.66,0,0,0,.59,9.77a8.7,8.7,0,0,0,1.5,2.269l5.05,5.607,5.048-5.608a8.709,8.709,0,0,0,1.5-2.269,6.652,6.652,0,0,0,.591-2.717A6.928,6.928,0,0,0,13.722,4.307Zm-.931,5.056a5.962,5.962,0,0,1-1.327,1.956,6.086,6.086,0,0,1-2,1.316A6.182,6.182,0,0,1,4.8,12.628a6.077,6.077,0,0,1-2.742-2.223A5.963,5.963,0,0,1,1.032,7.052a6.111,6.111,0,0,1,12.221,0A5.9,5.9,0,0,1,12.791,9.364Z" transform="translate(0 0)"/>
    </g>
    <g id="Group_108" data-name="Group 108" class="cls-169" transform="matrix(0.995, -0.105, 0.105, 0.995, 502.369, 737.349)">
      <ellipse id="Ellipse_3-5" data-name="Ellipse 3" class="cls-170" cx="6.298" cy="6.298" rx="6.298" ry="6.298" transform="translate(0.843 0.773)"/>
      <path id="Path_528-5" data-name="Path 528" class="cls-173" d="M13.722,4.307a7.018,7.018,0,0,0-1.531-2.241A7.116,7.116,0,0,0,9.922.554,7.221,7.221,0,0,0,2.091,2.067,7.027,7.027,0,0,0,.56,4.307,6.936,6.936,0,0,0,0,7.052,6.66,6.66,0,0,0,.59,9.77a8.7,8.7,0,0,0,1.5,2.269l5.05,5.607,5.048-5.608a8.709,8.709,0,0,0,1.5-2.269,6.652,6.652,0,0,0,.591-2.717A6.928,6.928,0,0,0,13.722,4.307Zm-.931,5.056a5.962,5.962,0,0,1-1.327,1.956,6.086,6.086,0,0,1-2,1.316A6.182,6.182,0,0,1,4.8,12.628a6.077,6.077,0,0,1-2.742-2.223A5.963,5.963,0,0,1,1.032,7.052a6.111,6.111,0,0,1,12.221,0A5.9,5.9,0,0,1,12.791,9.364Z" transform="translate(0 0)"/>
    </g>
    <g id="Group_106" data-name="Group 106" class="cls-169" transform="matrix(0.995, -0.105, 0.105, 0.995, 478.317, 661.584)">
      <ellipse id="Ellipse_3-6" data-name="Ellipse 3" class="cls-170" cx="7.968" cy="7.968" rx="7.968" ry="7.968" transform="translate(1.067 0.978)"/>
      <path id="Path_528-6" data-name="Path 528" class="cls-172" d="M17.362,5.45a8.879,8.879,0,0,0-1.937-2.835A9,9,0,0,0,12.553.7,9.136,9.136,0,0,0,2.645,2.615,8.891,8.891,0,0,0,.709,5.45,8.776,8.776,0,0,0,0,8.923a8.426,8.426,0,0,0,.747,3.439,11.006,11.006,0,0,0,1.9,2.87l6.39,7.094,6.387-7.1a11.018,11.018,0,0,0,1.9-2.87,8.415,8.415,0,0,0,.747-3.437A8.765,8.765,0,0,0,17.362,5.45Zm-1.178,6.4A7.543,7.543,0,0,1,14.5,14.322a7.7,7.7,0,0,1-2.535,1.666,7.822,7.822,0,0,1-5.892-.011,7.689,7.689,0,0,1-3.47-2.812,7.544,7.544,0,0,1-1.3-4.242,7.731,7.731,0,0,1,15.462,0A7.46,7.46,0,0,1,16.184,11.847Z" transform="translate(0 0)"/>
    </g>
    <g id="Group_110" data-name="Group 110" class="cls-169" transform="matrix(0.995, -0.105, 0.105, 0.995, 354.918, 692.956)">
      <ellipse id="Ellipse_3-7" data-name="Ellipse 3" class="cls-170" cx="7.968" cy="7.968" rx="7.968" ry="7.968" transform="translate(1.067 0.978)"/>
      <path id="Path_528-7" data-name="Path 528" class="cls-174" d="M17.362,5.45a8.879,8.879,0,0,0-1.937-2.835A9,9,0,0,0,12.553.7,9.136,9.136,0,0,0,2.645,2.615,8.891,8.891,0,0,0,.709,5.45,8.776,8.776,0,0,0,0,8.923a8.426,8.426,0,0,0,.747,3.439,11.006,11.006,0,0,0,1.9,2.87l6.39,7.094,6.387-7.1a11.018,11.018,0,0,0,1.9-2.87,8.415,8.415,0,0,0,.747-3.437A8.765,8.765,0,0,0,17.362,5.45Zm-1.178,6.4A7.543,7.543,0,0,1,14.5,14.322a7.7,7.7,0,0,1-2.535,1.666,7.822,7.822,0,0,1-5.892-.011,7.689,7.689,0,0,1-3.47-2.812,7.544,7.544,0,0,1-1.3-4.242,7.731,7.731,0,0,1,15.462,0A7.46,7.46,0,0,1,16.184,11.847Z" transform="translate(0 0)"/>
    </g>
    <g id="Group_111" data-name="Group 111" class="cls-169" transform="matrix(0.995, -0.105, 0.105, 0.995, 496.094, 700.276)">
      <ellipse id="Ellipse_3-8" data-name="Ellipse 3" class="cls-170" cx="7.968" cy="7.968" rx="7.968" ry="7.968" transform="translate(1.067 0.978)"/>
      <path id="Path_528-8" data-name="Path 528" class="cls-175" d="M17.362,5.45a8.879,8.879,0,0,0-1.937-2.835A9,9,0,0,0,12.553.7,9.136,9.136,0,0,0,2.645,2.615,8.891,8.891,0,0,0,.709,5.45,8.776,8.776,0,0,0,0,8.923a8.426,8.426,0,0,0,.747,3.439,11.006,11.006,0,0,0,1.9,2.87l6.39,7.094,6.387-7.1a11.018,11.018,0,0,0,1.9-2.87,8.415,8.415,0,0,0,.747-3.437A8.765,8.765,0,0,0,17.362,5.45Zm-1.178,6.4A7.543,7.543,0,0,1,14.5,14.322a7.7,7.7,0,0,1-2.535,1.666,7.822,7.822,0,0,1-5.892-.011,7.689,7.689,0,0,1-3.47-2.812,7.544,7.544,0,0,1-1.3-4.242,7.731,7.731,0,0,1,15.462,0A7.46,7.46,0,0,1,16.184,11.847Z" transform="translate(0 0)"/>
    </g>
    <g id="Group_109" data-name="Group 109" class="cls-169" transform="matrix(0.995, -0.105, 0.105, 0.995, 452.173, 764.067)">
      <ellipse id="Ellipse_3-9" data-name="Ellipse 3" class="cls-170" cx="7.968" cy="7.968" rx="7.968" ry="7.968" transform="translate(1.067 0.978)"/>
      <path id="Path_528-9" data-name="Path 528" class="cls-176" d="M17.362,5.45a8.879,8.879,0,0,0-1.937-2.835A9,9,0,0,0,12.553.7,9.136,9.136,0,0,0,2.645,2.615,8.891,8.891,0,0,0,.709,5.45,8.776,8.776,0,0,0,0,8.923a8.426,8.426,0,0,0,.747,3.439,11.006,11.006,0,0,0,1.9,2.87l6.39,7.094,6.387-7.1a11.018,11.018,0,0,0,1.9-2.87,8.415,8.415,0,0,0,.747-3.437A8.765,8.765,0,0,0,17.362,5.45Zm-1.178,6.4A7.543,7.543,0,0,1,14.5,14.322a7.7,7.7,0,0,1-2.535,1.666,7.822,7.822,0,0,1-5.892-.011,7.689,7.689,0,0,1-3.47-2.812,7.544,7.544,0,0,1-1.3-4.242,7.731,7.731,0,0,1,15.462,0A7.46,7.46,0,0,1,16.184,11.847Z" transform="translate(0 0)"/>
    </g>
    <g id="Group_103" data-name="Group 103" class="cls-169" transform="matrix(0.995, -0.105, 0.105, 0.995, 417.663, 560.736)">
      <ellipse id="Ellipse_3-10" data-name="Ellipse 3" class="cls-170" cx="9.258" cy="9.258" rx="9.258" ry="9.258" transform="translate(1.24 1.137)"/>
      <path id="Path_528-10" data-name="Path 528" class="cls-177" d="M20.171,6.331a10.315,10.315,0,0,0-2.25-3.294A10.459,10.459,0,0,0,14.584.814,10.614,10.614,0,0,0,3.074,3.038,10.329,10.329,0,0,0,.823,6.331,10.2,10.2,0,0,0,0,10.366a9.79,9.79,0,0,0,.868,4A12.787,12.787,0,0,0,3.075,17.7L10.5,25.938l7.42-8.243a12.8,12.8,0,0,0,2.207-3.335,9.777,9.777,0,0,0,.868-3.994A10.183,10.183,0,0,0,20.171,6.331ZM18.8,13.764a8.765,8.765,0,0,1-1.951,2.876,8.946,8.946,0,0,1-2.945,1.935,9.088,9.088,0,0,1-6.845-.013A8.932,8.932,0,0,1,3.03,15.294a8.764,8.764,0,0,1-1.513-4.928,8.982,8.982,0,0,1,17.963,0A8.668,8.668,0,0,1,18.8,13.764Z" transform="translate(0 0)"/>
    </g>
    <text id="_01" data-name="01" class="cls-178" transform="translate(365.175 578.8)"><tspan x="0" y="0">01</tspan></text>
    <text id="_03" data-name="03" class="cls-178" transform="translate(416.301 672.275)"><tspan x="0" y="0">03</tspan></text>
    <text id="_04" data-name="04" class="cls-179" transform="translate(387.206 642.397)"><tspan x="0" y="0">04</tspan></text>
    <text id="_05" data-name="05" class="cls-179" transform="translate(460.409 703.051)"><tspan x="0" y="0">05</tspan></text>
    <text id="_09" data-name="09" class="cls-179" transform="translate(506.422 744.881)"><tspan x="0" y="0">09</tspan></text>
    <text id="_06" data-name="06" class="cls-180" transform="translate(483.445 672.098)"><tspan x="0" y="0">06</tspan></text>
    <text id="_06-2" data-name="06" class="cls-180" transform="translate(360.046 703.471)"><tspan x="0" y="0">06</tspan></text>
    <text id="_08" data-name="08" class="cls-180" transform="translate(501.222 710.791)"><tspan x="0" y="0">08</tspan></text>
    <text id="_07" data-name="07" class="cls-180" transform="translate(457.301 774.582)"><tspan x="0" y="0">07</tspan></text>
    <text id="_02" data-name="02" class="cls-178" transform="translate(422.575 572.929)"><tspan x="0" y="0">02</tspan></text>
  </g>
</svg>
