<svg xmlns="http://www.w3.org/2000/svg" width="64.293" height="73.383" viewBox="0 0 64.293 73.383">
  <defs>
    <style>
      .cls-1 {
        opacity: 0.201;
      }

      .cls-2 {
        fill: #fff;
      }
    </style>
  </defs>
  <g id="Group_150" data-name="Group 150" class="cls-1" transform="translate(-2103.693 -1282)">
    <path id="Path_16" data-name="Path 16" class="cls-2" d="M441.159,157.669l3.2-.312-.408-.312Z" transform="translate(1694.897 1157.428)"/>
    <path id="Path_17" data-name="Path 17" class="cls-2" d="M443.336,157.748l.409.186,1.515-.186Z" transform="translate(1694.425 1157.258)"/>
    <path id="Path_18" data-name="Path 18" class="cls-2" d="M438.325,170.329l1.107,1.653-1.412-2.493Z" transform="translate(1695.969 1153.436)"/>
    <path id="Path_19" data-name="Path 19" class="cls-2" d="M452.214,184.337l1.116.891.668.981h.263l-1.024-1.425Z" transform="translate(1691.917 1148.985)"/>
    <path id="Path_20" data-name="Path 20" class="cls-2" d="M454.781,179.134l1.266.135-2.157-.67Z" transform="translate(1691.432 1150.903)"/>
    <path id="Path_21" data-name="Path 21" class="cls-2" d="M441.443,197.043l.022.075c.046,0,.1-.006.152-.006Z" transform="translate(1695.142 1141.745)"/>
    <path id="Path_22" data-name="Path 22" class="cls-2" d="M443.242,197.755h0Z" transform="translate(1694.662 1141.666)"/>
    <path id="Path_23" data-name="Path 23" class="cls-2" d="M445.534,204.862l.17-.538-.662.794c.159-.092.322-.178.493-.256" transform="translate(1694.09 1140.93)"/>
    <path id="Path_24" data-name="Path 24" class="cls-2" d="M436.851,183.222l.019.034a4.644,4.644,0,0,1-.2-.641,5.95,5.95,0,0,1-.677-.308l.012.007c.755.507.843.908.843.908" transform="translate(1696.586 1149.741)"/>
    <path id="Path_25" data-name="Path 25" class="cls-2" d="M438.163,185.592l.076.142.048.044c-.043-.064-.085-.125-.124-.186" transform="translate(1696.057 1148.862)"/>
    <path id="Path_26" data-name="Path 26" class="cls-2" d="M433.107,178.444h0l0,.007,0-.009" transform="translate(1697.468 1151.042)"/>
    <path id="Path_27" data-name="Path 27" class="cls-2" d="M433.787,179.5l.053.078,0-.012-.051-.066" transform="translate(1697.276 1150.714)"/>
    <path id="Path_28" data-name="Path 28" class="cls-2" d="M448.924,194.095a4.2,4.2,0,0,1-.337-.463,17.307,17.307,0,0,1-2.363-1.486,4.751,4.751,0,0,1-.733-.05l.016.036,2.395,1.236Z" transform="translate(1693.642 1146.596)"/>
    <path id="Path_29" data-name="Path 29" class="cls-2" d="M444.856,201.562h0v0" transform="translate(1694.214 1141.239)"/>
    <path id="Path_30" data-name="Path 30" class="cls-2" d="M449.548,196.01a3.031,3.031,0,0,1,.347.37l.139.024Z" transform="translate(1692.857 1141.861)"/>
    <path id="Path_31" data-name="Path 31" class="cls-2" d="M444.012,205.844l-.086-.587-.038.688c.038-.032.078-.066.124-.1" transform="translate(1694.469 1140.826)"/>
    <path id="Path_32" data-name="Path 32" class="cls-2" d="M447.887,200.558c.048-.048.108-.1.159-.143l-.018-.027Z" transform="translate(1693.357 1141.371)"/>
    <path id="Path_33" data-name="Path 33" class="cls-2" d="M417.643,179.743l1.1.73a16.29,16.29,0,0,0-1.428-1.445,2.767,2.767,0,0,1-.93-1.543c.02.324-.136,1.008-.131,1.219a4.242,4.242,0,0,1,1.389,1.039" transform="translate(1701.995 1150.916)"/>
    <path id="Path_34" data-name="Path 34" class="cls-2" d="M415.995,176.809a1.362,1.362,0,0,0-.208-.493c-.011,0-.02.007-.03.011a2.465,2.465,0,0,1,.242.511l0-.028" transform="translate(1702.262 1151.614)"/>
    <path id="Path_35" data-name="Path 35" class="cls-2" d="M447.441,195.559l-.059-.035-.107.173c.051-.046.109-.091.165-.138" transform="translate(1693.525 1141.916)"/>
    <path id="Path_36" data-name="Path 36" class="cls-2" d="M446.244,197.381l-.032.052.021.031c0-.028.006-.054.011-.083" transform="translate(1693.835 1141.707)"/>
    <path id="Path_37" data-name="Path 37" class="cls-2" d="M450.525,194.849" transform="translate(1692.644 1146.102)"/>
    <path id="Path_38" data-name="Path 38" class="cls-2" d="M444.188,189.21l-.038.01.034,0,0,.01v-.021" transform="translate(1694.406 1147.797)"/>
    <path id="Path_39" data-name="Path 39" class="cls-2" d="M433.97,207.037l.119.054-.4-.436a2.63,2.63,0,0,1,.278.382" transform="translate(1697.272 1140.669)"/>
    <path id="Path_40" data-name="Path 40" class="cls-2" d="M424.4,198.078a.324.324,0,0,1,.029-.049c-.015-.036-.027-.071-.041-.108Z" transform="translate(1699.88 1141.647)"/>
    <path id="Path_41" data-name="Path 41" class="cls-2" d="M421.265,194.435l.156-.089c-.06.025-.124.051-.179.073Z" transform="translate(1700.744 1146.238)"/>
    <path id="Path_42" data-name="Path 42" class="cls-2" d="M442.529,205.253l.047-.194-.01,0Z" transform="translate(1694.854 1140.848)"/>
    <path id="Path_43" data-name="Path 43" class="cls-2" d="M442.3,206.462c0-.013,0-.027.006-.041l-.005.028Z" transform="translate(1694.921 1140.695)"/>
    <path id="Path_44" data-name="Path 44" class="cls-2" d="M441.4,210.836l.008-.052-.012.051Z" transform="translate(1695.173 1140.206)"/>
    <path id="Path_45" data-name="Path 45" class="cls-2" d="M441.786,209.019c.011-.028.018-.06.027-.089l-.015.033Z" transform="translate(1695.062 1140.414)"/>
    <path id="Path_46" data-name="Path 46" class="cls-2" d="M423.848,199.979l-.02-.469-1,1.691,1.025-.694c0-.058,0-.464,0-.527" transform="translate(1700.247 1141.469)"/>
    <path id="Path_47" data-name="Path 47" class="cls-2" d="M425.239,180.781c.014.011.027.023.043.035l-.02-.025Z" transform="translate(1699.645 1150.334)"/>
    <path id="Path_48" data-name="Path 48" class="cls-2" d="M421.735,179.071h0l-.043.044.17.042-.128-.086" transform="translate(1700.619 1150.842)"/>
    <path id="Path_49" data-name="Path 49" class="cls-2" d="M431.464,167.054l.014,0,0,0-.012.005" transform="translate(1697.923 1154.474)"/>
    <path id="Path_50" data-name="Path 50" class="cls-2" d="M421.1,194.538h0l0,0Z" transform="translate(1700.794 1146.196)"/>
    <path id="Path_51" data-name="Path 51" class="cls-2" d="M432.526,190.334a4.469,4.469,0,0,1,1.495,1.229l.271.1-1.516-1.783-.348-.223c.039.09.067.595.1.678" transform="translate(1697.493 1147.34)"/>
    <path id="Path_52" data-name="Path 52" class="cls-2" d="M433.129,174.41l-.054.028,0-.01.051-.018-.336.082c.06.643.007,1.28.026,1.839a7.364,7.364,0,0,0,.31-1.921" transform="translate(1697.524 1152.006)"/>
    <path id="Path_53" data-name="Path 53" class="cls-2" d="M433.11,174.437l.054-.028-.052.019,0,.01" transform="translate(1697.464 1152.254)"/>
    <path id="Path_54" data-name="Path 54" class="cls-2" d="M423.846,170.535l-.12.03-.25,1.656a1.369,1.369,0,0,1,.094-.126l-.141.428-.076.5c-.009-.074-.013-.147-.018-.22l-.493,1.494.414.238s-.185-.037-.454-.117l-.038.117c0-.045.012-.08.018-.123l-.013,0,0,.022-.116-.059a3.256,3.256,0,0,1-1.639-1.02,9.056,9.056,0,0,1-1.05-.324l-.01,0-.007,0a7.494,7.494,0,0,1-1.756-.928h0c-.076-.055-.15-.114-.225-.174a1.338,1.338,0,0,1,.149.333l-1.273-1.268a2.652,2.652,0,0,1,.875.6l-.295-.314.806-.346a3.691,3.691,0,0,1-.443-.17l1.912.334.973-.08h.007c.2-.02.431-.033.69-.037a1.988,1.988,0,0,1,.469-.254l.045-.031.074-.01a4.336,4.336,0,0,1,1.656-.163,6.974,6.974,0,0,1,.242-.739l-.114.747.114.008M411.93,165.86l-.083.388-.011.222-.028-.038-.262,1.225.086-.057c-.031.029-.06.052-.091.08l-.13.605a4.148,4.148,0,0,1-.062-.437,7.061,7.061,0,0,1-1.32.9l.105.13c-.062-.026-.114-.064-.173-.095a4.313,4.313,0,0,1-.423.188l.339-.222-.017-.022a2.87,2.87,0,0,1-1.146-1.349l0,.008,0-.01,0,0v0a3.122,3.122,0,0,1-.148-.431l.18.222.278-1.934a4.609,4.609,0,0,1-.45-1.13l-.131-.3.057-.2a2.192,2.192,0,0,1,.006-.342.865.865,0,0,1-.115-.243l.136.1a1.084,1.084,0,0,1,.106-.322l.091.463.76.543,1.476-.77-.1-.236a1.2,1.2,0,0,1,.241.165l.318-.165c-.093.074-.184.136-.276.2l0,0h0l0,0a2.488,2.488,0,0,1,.667,1.648c.038-.057.076-.115.12-.174l-.068,1.443c.023-.018.043-.039.068-.055m37.632-34.209a2.156,2.156,0,0,0-1.226.142,8.247,8.247,0,0,0-.889.415c-.291.162-.566.354-.842.541a1.041,1.041,0,0,0-.237.233c-.306.419-.622.831-.9,1.267-.195.306-.329.646-.495.971-.064.128-.145.25-.2.382-.122.285-.236.575-.348.866a5.924,5.924,0,0,0-.279.762,2.923,2.923,0,0,0-.138.969.838.838,0,0,1-.1.437,7.721,7.721,0,0,1-.415.7c-.329.515-.663,1.03-.994,1.542a.139.139,0,0,1-.014.022,11.223,11.223,0,0,1-1.518,1.522,2.928,2.928,0,0,0-.835.959c-.1.166-.231.317-.327.484a2.184,2.184,0,0,0-.23.5,5.39,5.39,0,0,1-.505,1.268,5.2,5.2,0,0,0-.336.9,2.156,2.156,0,0,1-.586,1.05c-.373.316-.735.644-1.1.967-.059.051-.118.1-.172.156a1.779,1.779,0,0,1-.895.538,5.929,5.929,0,0,0-.611.214.325.325,0,0,1-.128.027,2.524,2.524,0,0,1-1.2-.291,4.861,4.861,0,0,1-1.436-1.445c-.156-.233-.27-.49-.417-.728a3.778,3.778,0,0,0-.368-.521,5.778,5.778,0,0,1-.631-.953c-.18-.308-.362-.617-.549-.919a.611.611,0,0,0-.186-.208,1.033,1.033,0,0,1-.426-.648.386.386,0,0,0-.306-.3c-.295-.067-.575-.171-.879-.222a14.831,14.831,0,0,1-1.483-.385,5,5,0,0,1-.62-.2,2.742,2.742,0,0,1-1.1-.983c-.172-.233-.322-.481-.493-.713a.98.98,0,0,0-.274-.268,1.393,1.393,0,0,1-.416-.479.212.212,0,0,1,0-.181c.1-.224.095-.292-.112-.4a.293.293,0,0,1-.165-.209,1.646,1.646,0,0,0-.131-.325c-.1-.2-.1-.2.074-.329.012-.008.018-.024.028-.037-.151-.1-.151-.1-.126-.227l-.209-.125c-.1.016-.2.033-.324.05-.006-.133,0-.235.132-.224a.186.186,0,0,0,.216-.133.619.619,0,0,1,.1-.142c.014-.177.026-.3.037-.449l-.287-.267c.033-.1.061-.207.1-.307a.376.376,0,0,0,0-.313c-.076-.163.046-.3.12-.45l.32-.017a.851.851,0,0,1,.358-.576,1.759,1.759,0,0,0,.174-.22c.1-.112.214-.217.323-.324.03-.029.086-.045.1-.078.121-.327.527-.491.535-.88.126-.137.072-.367.26-.475a.116.116,0,0,0,.039-.064c.082-.219.159-.44.247-.657.063-.156.137-.308.211-.46a1.945,1.945,0,0,0,.234-.9c0-.2-.028-.4-.038-.6a1.5,1.5,0,0,1,.013-.277,1.9,1.9,0,0,0,.083-.646.284.284,0,0,1,.062-.163.813.813,0,0,0,.061-.707c-.019-.057-.038-.113-.053-.17a.6.6,0,0,1,.055-.486,1.105,1.105,0,0,0,.107-.994,1.287,1.287,0,0,1-.052-.522c.023-.428.071-.855.1-1.283a5.441,5.441,0,0,1,.233-1.111c.088-.308.149-.624.243-.93.171-.564.339-1.133.543-1.686a16.921,16.921,0,0,0,.611-1.826,6.164,6.164,0,0,1,.293-.755c.02-.055.062-.111.057-.165a1.288,1.288,0,0,1,.191-.564c.128-.339.211-.693.312-1.042.209-.723.276-1.472.422-2.208.036-.181.1-.359.127-.54a11.95,11.95,0,0,0,.168-1.271,7.448,7.448,0,0,0-.047-1.258,3.959,3.959,0,0,0-.227-.747.47.47,0,0,0-.086-.156,2.3,2.3,0,0,0-1.813-.905c-.3,0-.606,0-.906.03a1.05,1.05,0,0,0-.391.129,3.032,3.032,0,0,0-1.252,1.22c-.17.3-.3.625-.454.938a3.936,3.936,0,0,0-.23.481c-.138.415-.26.835-.378,1.255a6.808,6.808,0,0,0-.182.785c-.045.283-.052.57-.084.852-.066.577-.145,1.154-.2,1.731-.03.3-.019.6-.031.905a2.47,2.47,0,0,1-.035.4,10.83,10.83,0,0,0-.208,1.958c-.016.452,0,.9,0,1.358a.478.478,0,0,1-.007.151,5.882,5.882,0,0,0-.151,1.173,1.21,1.21,0,0,1-.212.632.714.714,0,0,1-.22.86c-.141.1-.142.1-.123.332a.944.944,0,0,1,.178.073,1.27,1.27,0,0,1,.16.151c-.176.13-.149.329-.225.492-.062.132-.046.139.129.337a1.4,1.4,0,0,0-.752.319c.009.041.022.086.03.134a.222.222,0,0,1-.154.259c-.32.142-.349.209-.233.517a.271.271,0,0,1-.1.315,2.157,2.157,0,0,1-.194.128.52.52,0,0,0-.191.712c.049.109.1.214.147.323a.308.308,0,0,1-.055.394.27.27,0,0,0-.047.2,2.455,2.455,0,0,1-.032.746,1.576,1.576,0,0,0,.019.45,1.31,1.31,0,0,0,.068.344.327.327,0,0,1-.03.333.321.321,0,0,0-.007.216,7.334,7.334,0,0,1,.16,1.477,1.172,1.172,0,0,0,.25.709.858.858,0,0,1,.184.587,1.788,1.788,0,0,0,.181.8.219.219,0,0,1-.005.163,1.477,1.477,0,0,1-.128.209c.167.119.138.306.14.47a4.213,4.213,0,0,1-.062.524c-.011.1,0,.2-.01.3a2.494,2.494,0,0,1-.089.47.456.456,0,0,0-.024.24.544.544,0,0,1-.025.246c-.047.148-.183.272-.124.449a.025.025,0,0,1-.007.024c-.253.2-.247.621-.645.7a.3.3,0,0,0-.162.118,1.606,1.606,0,0,1-.509.426,3.684,3.684,0,0,0-.316.219.712.712,0,0,1-.543.133c-.164-.018-.327-.037-.491-.061a.649.649,0,0,1-.17-.053c-.114-.051-.225-.109-.375-.182a1.99,1.99,0,0,0-.678-.544,3.585,3.585,0,0,1-.856-.614,1.853,1.853,0,0,0-.283-.221,2.279,2.279,0,0,1-.862-1.115,8.043,8.043,0,0,0-.361-1.023,4.38,4.38,0,0,1-.238-.978c-.036-.17-.047-.346-.078-.517a.645.645,0,0,0-.075-.186,1.662,1.662,0,0,1-.16-.652,3.364,3.364,0,0,1,.151-1.042c.1-.474.2-.951.318-1.423.131-.53.235-1.068.351-1.6a2.82,2.82,0,0,1,.1-.367,1.431,1.431,0,0,0,.052-.846.559.559,0,0,1,.059-.39,1.019,1.019,0,0,0,.112-.563.16.16,0,0,1,0-.075,3.408,3.408,0,0,0-.026-1.5,1.228,1.228,0,0,1-.02-.2c.076-.906.143-1.814.242-2.717.064-.586.176-1.167.275-1.748.063-.374.138-.747.216-1.117.032-.147.108-.288.129-.437.093-.676.322-1.323.457-1.99a2.7,2.7,0,0,0,.031-.552c0-.6.016-1.194-.024-1.788-.047-.712-.119-1.424-.228-2.129a1.972,1.972,0,0,0-.837-1.38,1.674,1.674,0,0,0-.927-.371.242.242,0,0,1-.078-.013,1.489,1.489,0,0,0-1.562.42,3.594,3.594,0,0,0-.558.756,8.72,8.72,0,0,0-.8,1.861c-.1.27-.187.543-.29.812a6.441,6.441,0,0,0-.372,1.827c-.02.268-.082.534-.1.8a2.544,2.544,0,0,0,.43,1.535.527.527,0,0,1,.086.448,6.944,6.944,0,0,0-.178.785c-.041.266-.043.536-.064.8-.015.2-.05.4-.047.6a3.849,3.849,0,0,1-.181.956,2.073,2.073,0,0,0-.014.5c0,.159.02.317.029.477,0,.041.009.1-.014.123a.558.558,0,0,0-.121.489.949.949,0,0,1-.241.576.454.454,0,0,0-.1.375.4.4,0,0,1-.094.378.23.23,0,0,0-.042.184.425.425,0,0,1-.07.334,3.123,3.123,0,0,0-.207.351,1.088,1.088,0,0,0-.109.335,1.578,1.578,0,0,1-.155.632.333.333,0,0,0,.08.4c.046.048.093.1.139.151a.322.322,0,0,1,.093.3.422.422,0,0,0,.047.287.837.837,0,0,1,.15.573c-.217.212-.217.212-.164.637.047,0,.095,0,.144,0,.033.057.067.114.111.188l-.334.163.254.03c-.158.109-.091.353-.3.41a1,1,0,0,1,.1.17.925.925,0,0,1,.023.192c.316.238.343.318.213.62.036.05.076.1.091.128-.012.2-.023.36-.033.523l-.007,0h0l.005-.006a1.43,1.43,0,0,1,.085.151.6.6,0,0,1,.061.186,1.853,1.853,0,0,0,.028.545c.107.263.072.55.2.8a.96.96,0,0,1,.02.36c.173.135.116.3-.035.59.184.046.194.174.158.326a.478.478,0,0,0,.045.4c.06.09.022.238.06.367a1.035,1.035,0,0,0,.054-.313.682.682,0,0,1-.013-.31,2.126,2.126,0,0,0,.031-.376c.166.122.251.207.224.392-.019.126-.082.276.02.413.021.027-.028.109-.054.163-.047.107-.1.212-.157.337-.2,0-.252.131-.256.312,0,.1-.033.2-.033.3a.521.521,0,0,0,.041.261.356.356,0,0,1,0,.4.257.257,0,0,0-.023.259.475.475,0,0,1-.019.239c-.013.07-.039.137-.066.227-.244.058-.26.27-.276.486a1.213,1.213,0,0,1-.235.653c-.058.078-.058.2-.115.276-.127.181-.028.4-.141.6a1.336,1.336,0,0,0-.072.591,3.519,3.519,0,0,0,.022.628c.064.45.156.9.227,1.346.046.291.084.584.116.877a2.643,2.643,0,0,0,.072.346l1.011,1.426,1.433.287.182-.032c.344-.233.756-.494,1.261-.786l-1,.741,1.723-.3a.507.507,0,0,1-.088-.121l.211.1.953-.167c-.263.1-.506.186-.742.266l2.085.979.1.041-.319-.567s.212.212.593.678l.032.039.272.128-.216-.06c.171.214.37.472.6.786a1.506,1.506,0,0,1,.089.163l.117-.6c0,.291,0,.553-.017.791v0c.138.362.191.793.339,1.275l-.393-.7a4.56,4.56,0,0,1-.247,1.053,1.486,1.486,0,0,1,.446.005l-.515.158a1.062,1.062,0,0,1-.178.282l.047-.243-1.69.517-.394,1.953v0l.576.95c0-.05,0-.077,0-.077l1.929,2.281c-.026-.178-.283-1.03-.283-1.03l1.421,3.253,1.057.633c-.175-.1-.731-.254-.867-.346l.662.734,1.5.832,1.43.165a1.6,1.6,0,0,1,.04-.3l.03.311.1.012c-.035.011-.064.013-.1.023l.025.246.648,1.381.4.055c-.069-.068-.1-.11-.1-.11l.218.126.927.128a4.794,4.794,0,0,1-.6.062l.712.412a2.24,2.24,0,0,1-.116-.223l1.887,1.379-.038-.065a2.311,2.311,0,0,1,1.185,1.46l.636.109a2.316,2.316,0,0,1-.569.153,2.526,2.526,0,0,1,.055.522l-.291-.5a2.375,2.375,0,0,1-.325-.013l-.182.025-.083-.065a2.858,2.858,0,0,1-.453-.133,1.92,1.92,0,0,1,.108.218l-1.757-.99-.8,1.422.131.2a4.044,4.044,0,0,1,.884,1.321c.073-.062.135-.124.218-.187l-.185.268c.009.023.021.044.028.067l-.038-.051-1.062,1.547a3.559,3.559,0,0,1-.536,1.214,2.668,2.668,0,0,1,.325-.109l-.412.242c-.018.025-.03.049-.049.074l.018-.057-.541.318-.411.474-.032-.215-.1.06-.009.161c-.02-.042-.027-.087-.043-.13l-.135.079s.049-.044.126-.108a2.621,2.621,0,0,1-.04-1.423v0l0-.006c0-.013,0-.023.008-.034-.034.032-.059.069-.1.1l.7-1.9-.115-.359a2.2,2.2,0,0,1-.142-.367l-.255-.492-1.933-1.157a1.315,1.315,0,0,1,.175-.046,1,1,0,0,1-.164-.193l-.01,0-.491-.737-1.194-.922a.843.843,0,0,1,.139-.055,3.154,3.154,0,0,1-.748-.423l-1.207-.412-.008-.006a2.535,2.535,0,0,1-.737-.332c.009.023.025.043.033.066l-1.228-.991a2.346,2.346,0,0,1,.063.275l-.316-.478-.677-.531s.375.24.532.31l-.42-.638-.1-.1a1.989,1.989,0,0,1-1.081-1,12.747,12.747,0,0,1-1.353-1.043l.194.605s-.328-.507-.527-.913h0a.089.089,0,0,1-.009-.017,3.785,3.785,0,0,1-.621-.878l.512.622a4.934,4.934,0,0,1-.275-1.54l-1.185-1.253-.164-.078a8.259,8.259,0,0,1-1.465-.647l-.391-.093-.272.28-1.073,1.2.22.141a2.415,2.415,0,0,1-.26-.1l-.087.1a.765.765,0,0,1,.033-.121,3.126,3.126,0,0,1-1.048-.753h0l-1.025-.658c0,.243,0,.362,0,.362l-.169-.472-.166-.106s.055.016.145.049l-.567-1.573-.032.018a2.187,2.187,0,0,0-.283.221,8.028,8.028,0,0,1-.969.671.437.437,0,0,1-.3.058c-.429-.093-.86-.193-1.283-.316a3.157,3.157,0,0,1-.5-.257,2.807,2.807,0,0,0-.347-.168c-.339-.121-.685-.224-1.024-.348s-.661-.248-.98-.395a1.1,1.1,0,0,1-.562-.431,1.128,1.128,0,0,1-.087-.257c-.03-.113-.045-.231-.082-.341a1.421,1.421,0,0,1-.139-.735.24.24,0,0,0-.005-.1c-.094-.367-.184-.734-.286-1.1a1.8,1.8,0,0,0-.157-.4.765.765,0,0,0-.369-.407.486.486,0,0,1-.181-.177,3.148,3.148,0,0,1-.591-1.592,1.406,1.406,0,0,0-.361-.876c-.243-.266-.492-.524-.714-.8a5.924,5.924,0,0,1-.447-.68,2.07,2.07,0,0,1-.268-1.187,1.62,1.62,0,0,0-.446-1.208.946.946,0,0,1-.124-.162,4.448,4.448,0,0,0-.833-1,2.564,2.564,0,0,1-.627-.827c-.162-.362-.37-.7-.548-1.06a1.092,1.092,0,0,1-.089-.314.833.833,0,0,0-.717-.763c-.052-.01-.1-.026-.152-.034-.387-.058-.775-.106-1.158-.179a.789.789,0,0,1-.341-.162,1.4,1.4,0,0,0-.425-.235,5.021,5.021,0,0,1-.537-.256,1.8,1.8,0,0,0-1.563-.048,1.312,1.312,0,0,0-.493.44,1.658,1.658,0,0,0-.4,1.2.906.906,0,0,0,.115.3c.158.289.337.568.486.861a1.518,1.518,0,0,1,.134.459,3.168,3.168,0,0,0,.289.8c.189.424.337.866.5,1.3a5.741,5.741,0,0,0,.554,1.1l-.007,0c.033.149.168.247.208.4a2.18,2.18,0,0,0,.213.46c.076.142.164.277.254.411.071.107.144.212.222.311.316.4.618.815.96,1.2a8.325,8.325,0,0,0,.889.816,3.208,3.208,0,0,1,.551.636,3.444,3.444,0,0,0,.258.341c.184.19.389.362.571.555a1.525,1.525,0,0,1,.231.333c.147.277.275.561.425.837a4.711,4.711,0,0,0,.364.581,3.368,3.368,0,0,0,.868.72c.085.055.153.135.235.195.164.119.342.227.505.349a4.966,4.966,0,0,1,.556.457,1.181,1.181,0,0,1,.24,1.093,5.74,5.74,0,0,0-.093.7,7.43,7.43,0,0,0,.031,1.006,5.016,5.016,0,0,0,.493,1.4.8.8,0,0,1,.066.162,3.975,3.975,0,0,0,.46,1.229c.31.52.538,1.077.823,1.6.239.439.372.906.566,1.355.045.1.022.264.193.3.007,0,0,.056,0,.087a.6.6,0,0,0,.385.617,1.575,1.575,0,0,1,.827.728c.043.089.126.158.177.245a1.745,1.745,0,0,1,.1.269l-.293-.111c-.023.151.076.247.118.359a1.359,1.359,0,0,0,.093.148.212.212,0,0,0,.329.09,1.016,1.016,0,0,1,.112-.045l.135.351a.086.086,0,0,1-.155,0c-.066-.091-.132-.094-.244-.076a.826.826,0,0,1-.4-.05,1.547,1.547,0,0,1-.312-.218c-.058.123.076.156.116.229s.143.106.1.212a.055.055,0,0,0,.007.048,5.447,5.447,0,0,1,.454.855,2.4,2.4,0,0,1,.18.388,5.833,5.833,0,0,0,.475.868c.07.114.175.064.286-.048,0,.1-.007.165-.008.226.1.088.21.174.307.268a.325.325,0,0,1,.087.146,1.788,1.788,0,0,0,.337.507.191.191,0,0,1,.047.083,1.094,1.094,0,0,0,.377.634.145.145,0,0,1,.052.086,3.3,3.3,0,0,0,.416.9,2.439,2.439,0,0,0,.289.475,6,6,0,0,0,.627.643,3.015,3.015,0,0,1,.523.657,2.731,2.731,0,0,0,.239.3c.05.058.116.1.166.161a4.022,4.022,0,0,0,.857.808c.134.09.233.226.359.329a1.167,1.167,0,0,0,.239.127c.023.011.068.006.073.017.069.2.279.1.414.2.036-.078.066-.144.1-.211l.523.1a.175.175,0,0,1-.189.118l-.326.053c-.016.029-.032.057-.066.116a.575.575,0,0,0,.181,0,.188.188,0,0,1,.231.02l.233-.145c0,.069.014.128-.008.149-.1.092-.035.139.042.186l0,0c-.007.024-.015.047-.024.072-.083-.03-.163-.036-.183.069-.018.085.048.11.122.129.037.009.095.054.091.071a.179.179,0,0,0,.086.2c.208.151.415.3.623.444.07.05.146.093.233.149.017-.007.056-.023.1-.037a.129.129,0,0,1,.029.034c.023.048.028.124.067.143a2.663,2.663,0,0,0,.43.179c.2.06.415.107.624.153.466.1.932.2,1.4.293a8.491,8.491,0,0,0,.848.127,2.67,2.67,0,0,0,.467-.037,7.855,7.855,0,0,1,1.5.007,2.378,2.378,0,0,1,1.169.5c.173.125.365.226.541.35.2.138.377.3.576.432a2.2,2.2,0,0,0,.856.46.419.419,0,0,1,.153.087.579.579,0,0,0,.407.127c.072-.009.15.055.228.08s.142.119.218.013a.168.168,0,0,1,.126-.231c.124-.046.245-.148.37-.15a1.5,1.5,0,0,1,.432.121c0-.068.01-.151.016-.231a4.377,4.377,0,0,1,.395.25c.142.111.375.015.456.121.14.183.289-.029.405.093.013-.069.022-.108.032-.148l.552.278c-.018.025-.046.069-.075.113h0l-.368.024.21.133-.009.034-.581-.1c-.007.112.006.174.131.164.1-.008.211-.006.338-.008.018.112.034.2.048.284l-.109-.02a.993.993,0,0,0,.467.4,2.112,2.112,0,0,0,.709.23,2.329,2.329,0,0,0,1.445-.149,2.74,2.74,0,0,1,.465-.165,2.408,2.408,0,0,0,1.145-.832c.056-.072.122-.136.185-.207v0c.087-.052.182-.083.219-.2.023-.069.109-.121.171-.177s.106-.08.162-.123l-.232-.212.427-.136c-.07-.225.064-.383.236-.528-.216-.057-.259-.123-.2-.316.066.12.239.053.29.193a.124.124,0,0,0,.093.014c.1-.132.235-.064.387-.058-.042-.059-.071-.1-.1-.148.153-.145.46-.09.481-.337.081-.024.162-.025.2-.064.305-.287.593-.589.9-.871a6.605,6.605,0,0,0,.878-1.093c.42-.589.843-1.173,1.266-1.759.165-.226.326-.457.5-.678.114-.147.251-.277.362-.424s.211-.314.335-.5a.246.246,0,0,0,.226-.176c.059-.142-.119-.146-.14-.238.163-.172.187-.177.448-.074.036-.158.221-.245.189-.444-.009-.051.084-.118.131-.177s.1-.109.133-.154c-.112-.17-.207-.315-.3-.46-.016.007-.034.017-.05.025.034.068.067.135.117.239-.055-.017-.082-.025-.107-.031l0,0c-.146-.072-.152-.071-.2.075h0v.009l.007,0,.154.127c-.089,0-.166.156-.293.029a.266.266,0,0,0-.346-.142c0-.02.006-.039.011-.059a.825.825,0,0,0,.157-.081c.048-.044.08-.107.125-.158.067-.076.108,0,.159.029.026-.054.012-.144.118-.133l0,0,.21-.029c-.012-.1-.021-.177-.03-.261.056-.014.129-.011.168-.045.1-.084.06-.2-.068-.221-.066-.012-.135-.011-.23-.018.139-.076.251-.138.408-.226l-.222-.072c0-.011,0-.02,0-.031l.187-.029a1.992,1.992,0,0,1,.169-.208c.087-.086.166.016.287.073-.036-.1-.05-.139-.07-.187a2.048,2.048,0,0,1,.585-.493c.03.071.057.129.095.217a2.329,2.329,0,0,0,.562-.744c.192-.431.378-.866.566-1.3a.342.342,0,0,0,.035-.146.718.718,0,0,1,.174-.437c.077-.123.16-.242.24-.362.124-.182.239-.369.374-.543a.817.817,0,0,1,.257-.208.61.61,0,0,0,.305-.33,2.823,2.823,0,0,1,.125-.305,1.959,1.959,0,0,1,.256-.4.546.546,0,0,0,.167-.383.633.633,0,0,1,.249-.531,1.934,1.934,0,0,0,.635-1.049c.118-.4.29-.774.438-1.159.012-.033.034-.06.048-.092.094-.214.074-.3-.118-.474.048-.09.1-.185.149-.283s.084-.207-.037-.295c-.026-.018-.06-.055-.058-.08.01-.088.045-.176.048-.264s-.065-.189-.03-.241c.119-.168.037-.319.007-.493l-.22.072a.352.352,0,0,0,.07-.384.368.368,0,0,1,.035-.24.4.4,0,0,0-.264-.61,2.046,2.046,0,0,1,.036-.873.634.634,0,0,0,.021-.274,3.4,3.4,0,0,1-.059-.9c0-.042-.017-.09,0-.125a5.923,5.923,0,0,0,.158-1.263.774.774,0,0,1,.354-.512,1.668,1.668,0,0,0,.685-.741.34.34,0,0,1,.061-.081c.274-.316.556-.623.82-.948a1.7,1.7,0,0,1,.814-.564,2.875,2.875,0,0,0,.606-.292,4.62,4.62,0,0,0,1.161-.927.242.242,0,0,1,.056-.053l1.093-.639a1.812,1.812,0,0,0,.22-.133,7.929,7.929,0,0,0,1.245-1.25c.2-.245.427-.469.621-.715.147-.187.264-.394.4-.592.178-.268.353-.54.54-.8.285-.4.582-.8.87-1.2.178-.248.35-.5.514-.758a3,3,0,0,0,.161-.344,1.08,1.08,0,0,1,.508-.553,1.758,1.758,0,0,0,.863-.976c.1-.243.18-.491.279-.734.08-.2.173-.386.266-.575a11.331,11.331,0,0,1,.844-1.45.708.708,0,0,0,.107-.2,2.222,2.222,0,0,1,.278-.728c.03-.041.016-.11.024-.185,0,0,1.095-2.947-1.593-3.455" transform="translate(1716.61 1171.507)"/>
    <path id="Path_55" data-name="Path 55" class="cls-2" d="M451.971,141.258c.019.257.067.51.091.767a3.375,3.375,0,0,1,.039.992,2.458,2.458,0,0,0,.013.5c0,.207.012.416,0,.622a.816.816,0,0,0,.277.613.365.365,0,0,1,.1.16c.022.13.106.18.228.214a.722.722,0,0,1,.5-.177.155.155,0,0,0,.09-.038c.122-.1.246-.19.361-.3a.839.839,0,0,0,.178-.233c.08-.164.126-.346.217-.5a2.95,2.95,0,0,1,.351-.481c.189-.208.4-.4.591-.6a6.148,6.148,0,0,0,.823-1.13c.06-.1.136-.189.206-.282a.367.367,0,0,0,.074-.1,3.431,3.431,0,0,1,.484-.809,3.93,3.93,0,0,0,.188-.38,3.262,3.262,0,0,1,.522-.667.81.81,0,0,0,.258-.65,2.208,2.208,0,0,1,.341-1.059.664.664,0,0,0,.081-.429,2.587,2.587,0,0,1,.143-1.183c.087-.364.176-.729.276-1.091.07-.257.161-.509.243-.762.159-.483.32-.964.475-1.449.081-.253.152-.51.22-.767a5.539,5.539,0,0,1,.65-1.378,8.579,8.579,0,0,0,.834-1.733,5.728,5.728,0,0,1,.356-.8c.317-.644.642-1.284.963-1.927a11.008,11.008,0,0,0,.712-1.734,4.825,4.825,0,0,0,.227-1.951,3.192,3.192,0,0,0-.213-1.047,3.068,3.068,0,0,0-1.1-1.3,2.005,2.005,0,0,0-1.352-.316,1.971,1.971,0,0,0-.952.336,6.714,6.714,0,0,0-.924.8,5.061,5.061,0,0,0-.82,1.252,2.521,2.521,0,0,0-.175.548c-.117.436-.234.871-.339,1.309q-.195.815-.372,1.635c-.078.358-.14.72-.219,1.078a1.081,1.081,0,0,1-.132.347,3.55,3.55,0,0,0-.423,1.039c-.041.152-.1.3-.15.451a14.165,14.165,0,0,0-.434,1.825c-.062.267-.127.536-.195.8-.079.306-.15.618-.248.918-.091.277-.216.542-.325.812-.182.449-.379.891-.54,1.345a4.418,4.418,0,0,1-.443.811c-.132.22-.287.427-.419.647a1.044,1.044,0,0,0-.111.3,3.366,3.366,0,0,1-.488,1.093,1.677,1.677,0,0,0-.24.6c-.116.623-.235,1.248-.341,1.873a6.591,6.591,0,0,0-.156,1.567" transform="translate(1694.436 1170.459)"/>
    <path id="Path_56" data-name="Path 56" class="cls-2" d="M456.266,199.621l.352.289c.057-.06.139-.152.254-.277l-.586-.064c-.006.018-.012.035-.02.052" transform="translate(1690.974 1141.462)"/>
    <path id="Path_57" data-name="Path 57" class="cls-2" d="M437.972,215.684a.532.532,0,0,0,.322-.2c.008-.042.017-.085.033-.176-.151.115-.332.128-.355.372" transform="translate(1696.087 1139.699)"/>
    <path id="Path_58" data-name="Path 58" class="cls-2" d="M438.335,215.51v.01a.059.059,0,0,1,.013,0l-.009-.016,0,0" transform="translate(1696.02 1139.677)"/>
    <path id="Path_59" data-name="Path 59" class="cls-2" d="M456.1,200.179c.2-.059.275-.118.2-.321-.069.112-.117.186-.2.321" transform="translate(1691.071 1141.43)"/>
    <path id="Path_60" data-name="Path 60" class="cls-2" d="M424.231,146.089c-.132-.043-.264-.087-.415-.138.114.236.152.249.415.138" transform="translate(1700.013 1160.814)"/>
    <path id="Path_61" data-name="Path 61" class="cls-2" d="M418.255,207.748c-.068.081-.138.163-.227.267.26-.018.266-.02.227-.267" transform="translate(1701.631 1140.546)"/>
    <path id="Path_62" data-name="Path 62" class="cls-2" d="M418.284,207.745a.049.049,0,0,0,.012-.012l-.008-.008,0,0v.016" transform="translate(1701.574 1140.549)"/>
    <path id="Path_63" data-name="Path 63" class="cls-2" d="M456.645,198.71c-.1.044-.209.086-.313.131.012.028.023.053.035.082l.311-.134c-.013-.027-.022-.053-.033-.079" transform="translate(1690.99 1141.558)"/>
    <path id="Path_64" data-name="Path 64" class="cls-2" d="M435.025,214.351c-.114-.14-.2-.1-.271.017.1.139.182.072.271-.017" transform="translate(1696.988 1139.817)"/>
    <path id="Path_65" data-name="Path 65" class="cls-2" d="M434.747,214.389l.006-.009,0,0,0,.006Z" transform="translate(1697.014 1139.804)"/>
    <path id="Path_66" data-name="Path 66" class="cls-2" d="M457.207,197.8c.02,0,.043.014.056.007s.016-.035.026-.052c-.026-.005-.05-.009-.075-.012a.415.415,0,0,0-.007.058" transform="translate(1690.783 1141.667)"/>
  </g>
</svg>
