<svg id="Group_250" data-name="Group 250" xmlns="http://www.w3.org/2000/svg" width="376.233" height="440" viewBox="0 0 376.233 440">
  <defs>
    <style>
      .cls-1 {
        fill: #65afbd;
      }

      .cls-2 {
        fill: #2f8ab9;
      }

      .cls-3 {
        fill: #9cd4bc;
      }

      .cls-4 {
        fill: #82c1bd;
      }

      .cls-5 {
        fill: #8dc5c1;
      }

      .cls-6 {
        fill: #63babf;
      }

      .cls-7 {
        fill: #0e88a8;
      }

      .cls-8 {
        fill: #349ec0;
      }

      .cls-9 {
        fill: #41b2c4;
      }

      .cls-10 {
        fill: #b3d698;
      }

      .cls-11 {
        fill: #2373b2;
      }

      .cls-12 {
        fill: #2467ac;
      }

      .cls-13 {
        fill: #1f8abd;
      }

      .cls-14 {
        fill: #8bcfbb;
      }

      .cls-15 {
        fill: #2d79b3;
      }

      .cls-16 {
        fill: #93d4b9;
      }

      .cls-17 {
        fill: #5ebfc1;
      }

      .cls-18 {
        fill: #bae3b6;
      }

      .cls-19 {
        fill: #7fd1c9;
      }
    </style>
  </defs>
  <path id="Path_632" data-name="Path 632" class="cls-1" d="M666.859,1935.475h3.981l1.493,1.991,2.322,1,1.493,1.991,2.654-.5.166,4.977,2.322,1.327-1,3.815,4.147,2.986-.664,1.991,1.493,1.493.332,2.654.166,2.488,1.493,2.156,1.327,1.825-2.654,6.967-3.484,3.649.5,5.143,2.488,3.317-1.394,5.183.664,1.327-1.327,9.511-.774,6.525.332,3.318-1.659,5.751.664.885-.885,1.438-.553,4.092v1.549l-1.438,1.438-1-1.327-2.433.442-5.2-3.871-2.544.332-.664,1.106-1.88-1.548-2.765,4.645,1.106,2.655-.553,2.765-5.751,4.313-3.539-1.88-3.207,1.327-.11-2.323-1.438-1.217v-2.212l-.111-.885-2.212-1.77-1.88-1.659-2.212-4.645,1.991-1.991-1.659-4.534.885-1.659-.664-1,2.212-6.083-.221-6.635,1.327,1.438,1.659-3.981-.664-3.318h-2.212l-2.1-.111.442-5.64,2.765-1.549-1-2.765.663-6.194-.885-1.769-1.991-.774.774-2.654-1.438-3.539h-1l-.885-3.981-3.318.663.221-1.548h-.885l-1.106,1.438-.553-2.1,1.88-2.875-1.88-1.327,2.322-6.3-.442-2.433.885-1.438.553,1.217,1.77,4.2,4.2.221,1,.664,5.2-.885,1.216-2.544,4.535-.774,6.747-8.737,3.1-.111,1.991-1.438-.332-1.77Z" transform="translate(-587.483 -1689.493)"/>
  <g id="Group_249" data-name="Group 249" transform="translate(183.494 370.509)">
    <path id="Path_633" data-name="Path 633" class="cls-2" d="M1561.182,2790.212l4.851-2.622v-2.229l1.049-.262,2.36,4.458,2.885,2.1,4.982-3.278s-.525-1.967-.525-1.573.787.131.787.131l.262-1.7,1.573-.132.787.656,4.589-2.229,1.442,1.049.787,3.016,1.967,1.311,1.7-1.049,1.573.656-.262,2.36,6.556,3.409,6.949-3.147,12.194,1.442,3.016-1.573,6.949-2.36,3.147-3.278.524.918,4.72-1.574,1.442,1.574h2.491l1.18,1.966,4.327-3.409.131-3.016,1.18,2.1,5.245-1.311,3.278-2.36,3.278.918-2.1,1.311-1.18,4.589-7.867,11.669-2.885,5.114.525,1.967-.787,2.36v2.754l-2.622,3.933-.393,6.818,4.458,2.36-1.443,1.443.656,3.8,1.311,1.443,1.311-.394v1.18l-1.049.262.393.918,1.836,1.18-1.967,1.18v1.179l-2.885,1.574-2.884,6.818,1.7,4.327-1.836.786-1.7-2.229-2.885.656-1.442-1.967-3.541,1.442-1.049-.656-1.573.394-1.835-2.622-5.769-1.442-4.2-10.1-7.736-3.409-6.294,1.311-1.311-3.015-3.671.393-5.638-5.638-3.8-1.443-4.982-3.409-2.753-3.933-4.589-.394-3.147-2.884-6.687-.131-1.442,1.573-2.623-4.72-2.491-.524-3.015-6.031,1.573-3.016v-1.573l.656-4.72Z" transform="translate(-1556.724 -2780.247)"/>
  </g>
  <path id="Path_643" data-name="Path 643" class="cls-3" d="M1186.894,426.231l-1-.145-6.156,9.7.541,5.866,1.873.986.286,3.909,2.55.528,6.448,5.117.422,1.521h1.176l.972,1.749,3.831-.207.214,2.249,2.282.79,4.73,3.525.44.393,4.393,1.049.357,1.13,3.739-1.371,2.346-2.044,6.255-.541,3.6.88.994,1.207,1.937.125,2.316-.579,1.236,1.36-.727,1.573.2.382,1.461.071.559,1.117.21.716-.029.078,1.365-.137,2.614-5.429-6.636-5.228.2-3.016-4.022-2.815-.2-2.815.2-3.217,1.005-3.016,4.022-3.217,6.837-2.614,1.206,1.81-2.614.6.4,2.212,13.07-6.837,3.688-.426-.9-2.8-1.3-4.436-1.869.623-.87-1.064-1.627.633-1.621-.9-2.927,2.927-2.083-1.851-2.964-.847-.617-2.984-2.127-1.643-1.613-4.624,1.006-2.013,1.8-.6-.353-1.834-5.814-4.672,2.037-2.291,2.684-1.726,2.218-4.336,1.394-.279,2.849.736.328-.327-1.174-1.175.823-1.482,3.677-1.1-.572-4.321-6.735-1.263-2.872,1.949-1.557,1.446-1.818-.321-4.055,1.248-2.6-2.9-.88.11-1.473,5.1-6.585.871-.04.557,2.666,1.813-1.18,1.7-.762,2.068-1.241.388.847,2.118,2.232.874,2.042,4.083-2.341,2.809-6.071,1.328-.607,5.362-2.993-.285-.672-1.633h-1.636l-3.764,1.751v1.427l-1.734,1.067-2.137-.267-4.339,9.27-3.828-.828-2.6,1.979-3.017-2.388.765-2.951Z" transform="translate(-1051.837 -371.513)"/>
  <path id="Path_644" data-name="Path 644" class="cls-4" d="M954.132,878.911l2.308,4.744,7.127,4.7,5.074.846,2.087-.417,1.74-.454,2.217-3.86,2.128-1.167-.592-2.829,4.139-2.149.6,1.2-.4,1.035.259,1.179-.076.919,1.1.986,1.222-.917,1.006,2.414,1.161.221,1.749-1.539,1.178-3.837-5.126-3.015-7.641-8.245-3.217-14.277-1.408-4.625,1.983-7.211-.428-.815.643-1.392-.237-.26-1.81.453-2.63-.17-1.069-1.3-3.03-.741-5.679.491-2.221,1.934-5.1,1.87-.527-1.67-3.971-.948-.02.023-.042-.037-.525-.125-2.825-.141-5.548.988-1.663-1.134-3.167.068-3.763,1.505-4.994-1.292.3-1.554L923.067,838l-.8,2.415-3.712,1.1-3.812-1.243-.83-1.867-2.315.068-2.653-1.99-6.207.155-.476-3.095-1.492-.8-1.4.932-.971-2.24-.535.321.57,2.659-1.779-.593-1.159.927-1.8-.967-1.142,1.642-2.614-1.005-.477-1.549-1.367.621-.616-.569-.653,1.632-2.218-1.065-1.873.468-3.082,6.9,2.494,1.924-.489,2.737-1.721.688.558,4.3-2.426-.373-1.281,1.076.044,1.138,8.276,1.967,1.01,3.941-1.889,1.8-.383,1.37.911.26,1.64-1.23,4.084.681.709,1.722,2.072-.654,2.316-4.014,5.741,1.392V861.8l7.4,5.3,4.213-.15,1.557,1.868,1.636.595,2.95,3.933,4.1-1.271,6.538,3.127,2.456-3.467,2.453.669v2.218h5.153l-1.028-2.442,6.441-4.068,2.787,3.1,3.253-.3,1.662,1.964,3.812.332-1.088,5.08Z" transform="translate(-793.543 -748.227)"/>
  <path id="Path_645" data-name="Path 645" class="cls-4" d="M1118.777,289.3l.111-.067,2.14,3.535,3.864,1.118.74,4.192-3.15,1.118-.044.664,1.679.691-.854,9.5-2.251,1.126-.984,2.541,1.676,2.421.391,3.811,1.2,1.526,2.418.156,1.1-1.9,6.989,1.015V323l-.61,2.353,1.7,1.344,2.308-1.754,3.44.744,4.3-9.2,2.577.322.82-.5v-1.52l4.682-2.178h2.686l.7,1.706,1.133.108.572-5.05,6.5-1.422,1.588-1.906-1.494-2.989-2.286-.894-1.51-3.775,1.9-.594.613-1.664.589-.85-2.245-1.526.157-2.193,6.773-.9,1.474-5.11,2.263-.283,2.508,2.8,3.606-1.11,1.521.268,1.231-1.133,1.926-1.307-2.389-.448-3.016-3.418-1.207-1.408,1.005-1.005-2.011-2.614-2.614-.2-1.207-5.429,3.217-1.005-1.609-2.212-13.473,4.625-5.027-1.207-2.011,1.005-1.609-1.005-2.614,2.011-.8-1.408-8.043,1.609-2.614,6.435-1.81,1.609-8.244-1.005,2.011-1.408-3.62-1.408-6.434.6-3.016,8.446,3.016,1.005Z" transform="translate(-997.577 -267.052)"/>
  <path id="Path_646" data-name="Path 646" class="cls-5" d="M1557.848,404.619l-4.18,1.254-.159.286,1.379,1.379-1.636,1.637-3.24-.836-.571.114-2.1,4.111-2.816,1.81-1.106,1.245,5.186,4.167.629,3.273-2.321.774-.565,1.131,1.334,3.823,2.195,1.7.561,2.713,2.536.725,1.453,1.292,2.769-2.77,1.915,1.064,1.909-.742.9,1.1,2.256-.752,1.646,5.6.962,3.013.347-.04.8-2.212-1.81-.4,1.408-3.419,2.614.4,7.239,3.016,2.614-.6.6-3.62,6.837,4.424,1.206,2.815-2.212,1.206,4.625-.4,1.005-2.011-7.038-5.429-2.011-.6-1.408-1.005,2.212-5.63L1582.81,427l-1.81.6-2.011-1.207.8-3.217,4.223-2.212-.2-2.614-7.038-1.207-1.609-3.821,7.239-5.228,3.62-.6.2-3.418-8.848-2.212-6.234.6-2.212-.8-6.234-.6-3.619-.2-1.005-1.005-.882-.165Z" transform="translate(-1361.905 -380.145)"/>
  <path id="Path_647" data-name="Path 647" class="cls-6" d="M1552.775,1218.181h1.926l.082-1.9,1.941-.388,1.764-2.822,4.31-.254.5-1.823,6.84-1.945-2.7-8.878-5.027-11.663-1.81-6.837-3.016-2.011-2.011-.2-7.641-4.826-11.864-9.049-.667-.392-1.193,3.888-2.432,2.14-2.351-.448-.667-1.6-.785.589-1.538-1.384-.41.585-2-.273-2.277,1.249-1.893,3.295,3.408,2.13-2.007,2.676-1.419-1.153-.672.616-1.795,1.077.122.691,2.15.806,2.374-.929.567,2.976-1.457.437,1.847.718,2.743-.443,4.046,4.3,2.107-.066,1.6-2.407,2.38.98-1.6,4.7,3.852,6.615-.81,2.187,1.9,2.142.414,5.3,1.6,1.348.073,2.2h.392l.44-1.759,2.159.381,2.926,3.169,3.136-.57v4.334l-1.772.177-.138.669,2.849-.308Z" transform="translate(-1339.693 -1032.792)"/>
  <path id="Path_648" data-name="Path 648" class="cls-7" d="M1711.474,1472.3l-.545,2-4.548.267-1.71,2.737-1.533.307-.092,2.1h-2.676l.063.5,1.381,1.2-.488,2.925-6.185-.273-1.4,1.269,1.149,2.217-.781,1.476,1.169,2.255-.333,1.666,6.119,7.448-2.177,2.72-2.483.414-4.395-1.99-2,2,.692,2.9,2.279.152,8.521,3.848v4.106l4.582,2.411.852.243,2.551-2.2,2.422.991,1.121,1.81,5.97,2.107,0,.01,2.054.8,1.3-1.524,3.666-1.56-1.27-2.963,4.832-2.981,1.86,1.209,1.785-.282,1.4,1.936.834,2.729,1.383-.221,3.9-6.958,3.288-2.951.291-3.086-.924-.5-.2-2.212-7.038-5.429-3.016-3.62-5.429-3.821-7.44-9.451-2.585-8.494Z" transform="translate(-1486.893 -1293.114)"/>
  <path id="Path_649" data-name="Path 649" class="cls-8" d="M1916.121,1705.326l-3.486,3.128-4.087,7.285-2.959.474-1.077-3.524-.86-1.19-1.516.239-1.614-1.049-3.332,2.056,1.335,3.116-4.5,1.914-1.657,1.95-1.864-.721,1.267,3.421.931,1.676-.109,1.644-1.44,2,1.653,2.875,1.478.118.275-.51-1.154-2.131,1.835-2.524,2.8.628,8.663,3.215.669,1.589,3,.525,3.877-1.424,1.09-2.379,2.412,1.005,3.366-1.042.967-.628-.833-.585-.571-4.569.6-1.661,2.481.992,3.085-1.656.272-1.143-1.459-.858.425-2.232,1.4-7.2-2.079-.354-2.212-1.81-6.8-3.708Z" transform="translate(-1657.835 -1490.709)"/>
  <path id="Path_650" data-name="Path 650" class="cls-9" d="M1482.7,1309.581l3.833-.091.829-.738,1.956.533,2.2-.894,1.111-5.385,1.573-.157v-1.855l-2.384.433-3.1-3.354-.685-.121-.4,1.586h-2.452l-.094-2.816-1.577-1.328-.422-5.4-2.11-2.374.863-2.329-3.842-6.6,1.414-4.162-.464-.191-1.406,2.109-3.245.1-3.982-4.231-2.442.394-3.844-1.494.859-1.289,1.367-.41-.1-.537-1.473.576-2.407-.9-1.743,3.213-1.469.147-.06.33,1.939,1.126-2.532,2.681-1.464-.2-.013.029,1.379.356.113,1.246,1.863.847-.286,1.66.4.332,1.525-.789,1.8,1.326-1.707,2.153-3.018,1.147-2.01-.688-.378.168.108,2.064-3.3,1.154.553,3.1,1.6.771-1.52,6.079.6,2.235-1.748,1.165.979,1.826,1.736,2.246-1.585,1.347,2.247,2,3.593-1.225,2.514,1.307,2.393,6.353,4.15.932.916,4,2.528.466,1.8-1.476-.722-1.806,2.092-.9,1.292,1.464,1.262-.354-.158-1.734,4.572-2.54Z" transform="translate(-1284.745 -1120.999)"/>
  <path id="Path_651" data-name="Path 651" class="cls-10" d="M353.912,596.965v3.418l3.385,3.969,2.381-2.381,1.146,1.675,1.169.327,1.5-1.184,3.568-.4,2.625-2.49h1.228l1.119-.56L378.7,600.6l1.933-1.418,2.34-.13L384,597.976l-.049-.246-.615-.888-.1-.89.655-1.7-.086-.4-1.38-.345-.894-9.419-.272.816s-8.848-2.413-9.652-2.614-4.424,3.217-4.424,3.217h-4.022l-3.016,1.609-1.81-.6-1.609,1.005L355.52,584.7l-1.005,2.011-6.837,2.614,2.413,6.033Z" transform="translate(-342.45 -535.835)"/>
  <path id="Path_652" data-name="Path 652" class="cls-11" d="M1902.433,1929.534c.835-1.732,2.186-4.488,4.375-8.9l-3.139-4.427-4.22-3.517-1.814-4.318-1.849-1.294v-2.112l1.1-.392-.158-.592-2.69-2.169-1.2-4.342v-3.5l3.334.686,3.562-3.872-.619-2.846-.378.324-3.725-1.677-3.811-.354-2.977-2.361,1.332-4.08-3.152-1-2.781-3.193,1.408-1.709.065-1.565-3.028-2.125-1.5.976-3.93,1.217-1.756-.732-.82,1.79-4.634,1.7-3.947-.691-.72-1.711-8.147-3.024-1.929-.428-.944,1.3,1.1,2.038-.942,1.748-2.864-.229-1.84-3.2-2.4,1.582.517,1.625-.773,4.251-4.185,2.16,8.544,12.744.5,4.977,1-.166.5-1,3.816.829,2.654-1.161,3.815,3.318,1.161-.5.664,2.488-1.659,1.825-2.488,1v2.488l3.483-1.493,2.157.166,5.2-1.182,3.419-1.81,6.434,12.668-1.609,1.609-1.005,3.82,2.413.6,1.005,2.815h3.016l5.832,6.435,4.021.6,2.212-3.217,2.011-.4,2.815,1.206Z" transform="translate(-1616.761 -1633.094)"/>
  <path id="Path_653" data-name="Path 653" class="cls-12" d="M2296.385,2299.312l-1.408-2.011,1.408-6.435-3.017-2.615-4.625-2.413-4.223-4.022-7.44-1.408-2.212-5.429,5.429-7.44-1.407-5.429.906-1.439-5.323-.275-.637,1.839-1.677,5.03.7,2.4-1.988.918-1.491-1.69-1.324-.463-1.975,1.235-4.263.2-1.079-2.051-.245-1.1-1.519.228-1-1.18-2.29-.071-3.269,2.781,3.35,15.569,4.022,4.222,2.815,15.082,2.011,6.435,2.815,1.005.4,3.016-3.619,5.429-1.609.2-2.815-.6-1.207,1.006-3.016,1.408-.4,2.01,2.815,2.413-3.419,12.468-5.429,1.81.4,3.821-.6,4.223,3.217,4.624,11.663,1.207,1.005-9.853,5.832-6.435,8.043-5.63-1.206-12.668,1.809-3.419,11.06-5.429,3.418.6,2.211-1.005,1.407-3.016-1.809-4.021Z" transform="translate(-1963.385 -1966.478)"/>
  <path id="Path_654" data-name="Path 654" class="cls-13" d="M2193.027,1987.442v1.889l1.057,3.822,2.695,2.173.536,2.013-1.335.477v.667l1.625,1.137,1.834,4.367,4.117,3.431,3.635,5.127-.156.316c-1.545,3.115-3.647,7.379-4.846,9.869l2.012,3.2,3.4-2.893,3.268.1.913,1.079,1.955-.294.449,2.023.658,1.249,3.206-.149,2.194-1.371,2.149.752,1.115,1.263.269-.124-.517-1.774,1.795-5.385.929-2.683,6.867.355,6.4-10.17-1.462-1.3-.547-1.486-1.524-.339-.528-1.056-.507-9.888-3.341-1.162-2.119,1.445-1.151-1.458-1.919,2.753-5.265-4.582-2.39-4.369-2.824.161-4.629-2.315,1.818-.979v-2.235l-4.72-3.869-2.053,1.58-6.409-.173-.541.464.884,4.065-4.428,4.813Z" transform="translate(-1915.719 -1725.108)"/>
  <path id="Path_655" data-name="Path 655" class="cls-14" d="M730.721,425.482l-.712,4.043-3.114,4.926.2,3.22-1.12,2.067,3,2.34-.109,1.746.644,1.565,1.929,5.237,1.69.1,1.465,4.638-2.954,1.2-1.757,3.411-2.361-.278-1.334-2.192-1.487.129-.815,2.935,4.3,9.448,4.583.882,3.051-1.877.714,2.974,2.858,1.376-.53,1.7,2.873,2.586-.087,1.816,2.85.46,1.836,4.428.019.508.989-.831,1.4.216-.474-3.654,1.962-.785.248-1.389-2.663-2.054,3.695-8.273,2.842-.71,1.465.7.821-2.051,1.3,1.2,1.875-.852.7,2.282,1.217.468,1.215-1.747,2.035,1.1,1.051-.841.43.143-.314-1.466,2.411-1.447.944,2.179.812-.541,2.633,1.411.408,2.651,5.58-.139,2.651,1.988,2.694-.079.938,2.111,2.965.967,2.771-.819.963-2.889,3.495.953-.293,1.54,3.551.918,3.6-1.441,3.758-.08,1.578,1.076,5.207-.927,1.721.086-3.46-2.577-2.826-.978-.179-1.877-3.437.186-.993-1.787h-1.378l-.56-2.015-5.928-4.7-3.147-.651-.3-4.145-1.86-.979-.637-6.9,6.089-9.595L793,437.393l-1.064,1.837-3.671-.237-1.742-2.207-.4-3.85-1.86-2.686,1.374-3.548,2.071-1.035.717-7.982-1.66-.684.152-2.283,2.94-1.043-.439-2.487-3.6-1.042-2.378-3.929.064-.039-5.066.175-1.81-2.815-4.223,1.207-.8,6.234,2.011.8,1.609.8-2.212,1.609,1.81,4.424-2.815,1.408-4.826-6.234-6.435.6-.6,2.815-4.022.4-2.815-3.418-2.011-5.228-1.609,1.005-.8-1.207-1.81-.2-.4,2.212,1.609,3.418-3.419,7.239-4.424,3.418.4,1.81-1.81,1.005-1.207,5.228,2.815.6-2.011,3.821-3.016-.8v-4.424l-4.625-3.418,1.609-2.614Z" transform="translate(-663.179 -383.43)"/>
  <path id="Path_656" data-name="Path 656" class="cls-15" d="M2211.4,1808.464l-9.451-7.641-2.413-5.228-16.69-7.44-6.837-6.837-34.788-15.282-6.234-5.429-2.011-5.63,8.646-5.831,1.006-3.62-3.821-4.222-6.635-.2-15.685,1.407-6.21-1.057-1.408,7.222-.269,1.414,1.494.879-.6,2.505-4.036,2.166-1.862-.745-.091.25.471,3.768,5,3.509-.109,2.6-1.024,1.244,1.908,2.191,3.969,1.258-1.447,4.431,2.06,1.634,3.657.34,3.223,1.45,1.712-1.467,6.445.174,2.463-1.895,5.875,4.816v3.5l-.439.236,2.318,1.159,3.255-.186,2.647,4.837,4.115,3.582,2.076-2.979,1.454,1.842,1.7-1.16,4.65,1.617.536,10.435.167.333,1.6.356.668,1.814,1.095.976,1.59-2.525,4.625-3.217,6.234,3.217-1.609,2.212,9.853,5.429,11.461.6,1.207,3.217,3.016,2.815-.2,3.016,1.006,5.228,7.239,4.022,3.016,1.609,2.011-9.049,2.614-4.625Z" transform="translate(-1839.394 -1523.781)"/>
  <path id="Path_657" data-name="Path 657" class="cls-16" d="M579.246,991.825l.521-2.431-.422-.423-1.732.1-.175-2.094-1.356-.143-1-1.311-1.888.5-.287-3.447-4.685-3.535-1.108-2.689-2.94-.49-1.7,1.279-2.6-.743.787-2.811,1.624-1.546-.662-2.582-7.264-1.726.054,1.4-4.267.488-4.2-4.3-1.423.271-.569,1.566.958,1.437-.439,1.9-2.335.425-1.534,1.8-1.61-.537-1.129-2.948-2.279-.194c-.469.877-.947,1.81-1.043,2.058-.06.495-.6.566-1.383.669-.472.063-1.128.135-1.95.215-1,.1-2,.183-2.5.225l-.971,1.8-2.047-.534-2.29-1.748-.174.063-.744,1.636.816,1.5-1.357,1.781-1.472.64-2.057,2.938v3.473l.518.961-.992,2.254-2.157-.139-.215.2.957.453-.774,1.807-4.711-.29-2.7-1.167-.524.225.725,1.318-3.735,1.4-.111-.3-1.009,1.475-1,2.322-1.991.664-2.157,2.82.664,3.981,10.948-1.493,9.787-5.474v-1.824l2.156-2.323.166-4.147,5.806-2.156.5-3.484,5.64-3.815,4.977-2.156,11.944,2.986-.166.829,2.322.83.829-1.493,7.133,4.811,11.944,7.631-.166-2.322,4.147,1.991Z" transform="translate(-471.076 -862.379)"/>
  <path id="Path_658" data-name="Path 658" class="cls-17" d="M1426.832,1553.764l3.79-1.956.617-3.392-.7-2.2,3.582-2.357,1.4-1.946.064-.961-.821-1.493-1.641-4.431-5.841-2.062-1.137-1.838-1.4-.573-2.486,2.143-1.581-.451-5.319-2.8V1525.4l-7.633-3.447-2.933-.2-1.045-4.391,3.04-3.04,4.811,2.179,1.685-.281,1.3-1.622-5.866-7.142.362-1.808-1.262-2.435.781-1.476-1.282-2.474,2.426-2.205,5.627.248.208-1.243-1.224-1.061-.182-1.454-1.177-1.522-2.57.278-.675,3.271-3.153,1.281-1.724-.47-.676.6-3.192.076-.152,2.209-4.46,2.478.177,1.946-2.919.817-1.217-1.379-.25.107.615,1.539-2.886,2.371-3.828-.705-.923-4.03-4.046-.908-2.458-6.526-1.667-.867-3.766,1.284-3.774-3.355,1.761-1.5-1.108-1.433-1.036-1.934-3.731,1.368,2.022,2.311-1.187,2.739v1.544l-3.5,3.5-2.659,1.432,1.222,1.29-.987,2.851-3.482.51-.957,1.874,5.245,3.338,5.806,10.285,2.488.5,6.8,3.816,2.986,7.962,12.276,11.944,9.787,2.986,3.981,7.3,1,.332,1.327-1.824,6.635-1.659,5.474,2.82,1.991.5.332-1.493,4.313-.5Z" transform="translate(-1201.949 -1307.303)"/>
  <path id="Path_659" data-name="Path 659" class="cls-18" d="M346.944,547.041l-.3.439,1.31-.491-.695-1.263,2.186-.937,2.978,1.286,3.677.226h0l-1.5-.708,1.85-1.735,1.844.119.428-.973-.386-.716v-4.141l2.46-3.515,1.5-.65.708-.929-.732-1.343,1.192-2.623,1.245-.453,2.614,1.995.921.24.836-1.552.32-.026c2.116-.17,4.467-.4,5.211-.533.158-.366.5-1.044,1.223-2.386l.184-.34,3.786.322L381,529.473l.326.109,1.291-1.519,1.986-.361.15-.651-1.006-1.51,1-2.756,2.7-.515,4.243,4.341,2.608-.3-.171-4.456-1.5-3.626-3.24-.523.11-2.309-3.02-2.718.452-1.446-2.445-1.178-.465-1.937-2.057,1.266-5.631-1.083-4.733-10.392,1.149-4.137,3.031-.264,1.416,2.326.979.115,1.582-3.072,2.351-.958-.893-2.827-1.65-.1-2.192-5.95-.735-1.785.087-1.4-3.291-2.571,1.434-2.647-.2-3.263,3.193-5.051.7-3.959-4.832-1.487-1.81-3.217-2.212-1.408-.6-1.81,1.006-4.022v-3.217l-5.027,2.011.6,1.408-4.223,3.217-1.408-.4-1.206,2.011,1.81,3.016-1.408,3.418-2.815.4v2.212l-2.011,2.815-2.072.444.914,9.631,1.284.321.314,1.463-.678,1.761.034.309.584.844.217,1.086-1.772,1.856-2.456.136-2.063,1.513-6.784-1.276-1.013.506h-1.036l-2.571,2.439-3.626.4-1.7,1.347-2.161-.6-.586-.857-1.443,1.443,1.679,1.968-2.212,3.016.4,3.016-1.81,1.206-1.81-.2-4.826,3.821-2.614-1.207-4.424,1.81,1.409,3.877,2.156.5.166,3.981,4.147,2.986,1.825-.166,2.157.664,1.493,6.3-2.82,1.327-.664,4.313-2.156.664-.166,1.991,1.659,2.654-1,1.825,3.815,6.138,11.446,4.977,9.29-2.654Z" transform="translate(-312.192 -420.671)"/>
  <path id="Path_660" data-name="Path 660" class="cls-19" d="M1033.512,1107.2l3.375-.494.518-1.5-1.789-1.888,3.864-2.08,3.028-3.028v-1.3l.987-2.279-2.662-3.042,5.758-2.111,1.43-.953-.463-1.713,1.361-5.445-1.28-.616-.834-4.686,3.417-1.193-.1-1.99,1.542-.685,2.045.7,2.317-.881.746-.942-.227-.167-1.569.812-1.522-1.268.247-1.434-1.658-.754-.1-1.1-1.929-.5.948-2.1,1.736.231,1.1-1.16-1.368-.795.367-2.018,1.732-.173,1.592-2.934-.286-1.618,2.387-1.432,1.334-1.224,1.258,1.022.5-.669-2.586-1.616-1.783.465-2.316.463-5.534-.922-7.606-5.02-3-6.158,2.06-.858.679-3.171-2.965-.258-1.58-1.867-3.23.293-2.517-2.8-4.756,3,1.329,3.157H1019.4v-2.5l-.789-.215-2.554,3.6-7.017-3.356-4.449,1.381-3.238-4.317-1.605-.584-1.39-1.668-4.037.144-8.218-5.892v-1.9l-3.983-.965-2.1,3.647-2.413.762.075.182,4.849,3.658.215,2.574,1.289-.339,1.172,1.532,1.822.192.16,1.92,1.112-.065,1.25,1.25-.78,3.642,4.682,3.786,2.654,16.754,3.484,4.313,2.488,4.313,1.327,9.953-2.322,3.484,2.488,1.99,2.654-1.161,4.811,2.986-.663,3.815,5.474,2.654,6.138,7.962,1.327-.166.5,1.99-1,2.986-2.157.166v1.161l2.986,1.991,1.327-1.493,2.157-1,5.121,1.991Z" transform="translate(-879.502 -910.905)"/>
</svg>
