<svg xmlns="http://www.w3.org/2000/svg" width="35.153" height="46.403" viewBox="0 0 35.153 46.403">
  <defs>
    <style>
      .cls-1 {
        fill: #fff;
      }
    </style>
  </defs>
  <path id="Piedmont" class="cls-1" d="M17.547,34.893a.424.424,0,0,1-.126.335c-.084.07-.223.126-.209.209a2.056,2.056,0,0,0,.084.265l-.377.237-.042.377-.279.042a3.78,3.78,0,0,0,.1.572c.042.07.265.335.265.335l-.14.167.07.321-.153.2-.209-.014v.2l-.377.223-.014.209L16,38.6l-.237-.307-.223.182-.432-.028-.126.154-.391.07v.237l-.181.1-.07.349-.725.056s-.14.209-.028.349.1.237-.042.279L13,40.208V40.04l-1.1-.46L11.534,40l-.391-.1-.46.084-.056.265-.307.154-.209.028L10,40.668l.209.307.014.265.223.084-.014.363.168.181v.321l.8.1s.2.014.223.14a1.986,1.986,0,0,1,.028.335l-.14.028v.139l.335.251V43.5l-.251.377.209.056-.182.223.056.307.307.084.153.237h.251l.07.349.7.418.7.112.307-.377a4.176,4.176,0,0,0,.558.335,1.2,1.2,0,0,0,.433.1l.07.321.168.056-.279.558a4.027,4.027,0,0,1,.251.46,3.37,3.37,0,0,1,.028.5,1.218,1.218,0,0,0,.279.419c.084.042.279.126.279.126l.2.628-.265.042-.363-.265-.8.042-.363.684.307.628-.265.056v.181l-.223.167V50.8l-.223.1-.056.223-.474.125-.112.237-.209.181.307.921.419.293.056.307.488.377-.237.084-.056.07-.154-.07-.279.1v.935l-.14.223.516.154.042.363.446.419-.042.307.237.07v.168l.167-.07.181.154.028.684.516.321.5-.14.307.279.628.279.237-.112.167.209.209-.056.056.265.335.349.335-.084.084.307.433.251.349-.056.209.028h.2l.237.474.53-.112.377.251.153-.335.419.07.614-.307.209.084.126-.2h.4l.042-.209.753.167.181-.5.684.014-.181.474s.251-.042-.028.293a3.744,3.744,0,0,0,.223.419l.377.446v.558h.251s-.042-.321.2-.321.279-.126.014-.153a.451.451,0,0,1-.4-.4.6.6,0,0,1,.279-.433c.154-.056.126-.265.684-.028a2.192,2.192,0,0,0,.879.237,1.727,1.727,0,0,1,.516.168c.056.042.1.07.279.042s.237.028.279.07-.042.2.209.07.307-.2.446-.14a2.442,2.442,0,0,0,.377.1l.056-.251a2.389,2.389,0,0,1-.279-.223c-.042-.056-.251-.181-.056-.307s.447-.293.572-.181.111.223.251.2a1.079,1.079,0,0,0,.446-.237c0-.042-.014-.265.07-.307a.516.516,0,0,0,.154-.391,2.821,2.821,0,0,0-.349-.4s-.112.042-.028-.14.2-.418.153-.46-.293-.154-.139-.209.209-.419.209-.419l-.112-.2s-.237-.014-.251-.1-.014-.349.112-.363.321.209.46.126.07-.446.07-.446a.458.458,0,0,1,.153-.028c.084,0,.251-.028.265-.139s.154-.823.154-.823l.181-.125.237-.265.363.014v-.349l.209-.168-.307-.642s-.084-.279.1-.307l.181-.028.042-.558.181-.167s.223-.111.293-.014a1.49,1.49,0,0,1,.126.223l.488.042.293.349.349.028.126.349.433-.2s.125-.349.153-.419.042-.321.279-.2.377.293.4.125.028-.307.126-.321.181-.1.181.028.893.139.893.139l.111.154.181.056.042-.181.125.014v-.307l.461-.349s-.112-.572-.042-.572a.581.581,0,0,1,.2.07l.07-.321a1.063,1.063,0,0,1,.433.1c.1.084.139.209.251.126s.433-.2.5-.126.363.07.39.656a.193.193,0,0,1,.2.265c-.042.168.154.126.154.126l.028.544s.083.377.2.042l.223-.126-.028-.181a.423.423,0,0,1,.154-.377c.182-.111.265-.209.265-.265s-.112-.321.1-.307.293.056.377,0a.148.148,0,0,1,.237.042c.083.111.139.168.251.126s.432-.237.279-.474-.293-.46-.223-.558.112-.028-.042-.265-.182-.418-.084-.46.223-.028.279-.181.083-.446.293-.446a1.086,1.086,0,0,1,.377.07s.126.265.307.223.223-.126.363-.042a.849.849,0,0,1,.321.363s0,.642.126.586.307-.349.432-.154.125.251.223.237.111.084.14.209.181.4.363.432a.785.785,0,0,0,.572-.181c.139-.125-.14-.1.139-.125s.335.014.335-.154a7.247,7.247,0,0,1-.1-1.228c.028-.628.1-.991.1-1.2a1.92,1.92,0,0,1,.083-.474s-.153.042-.377-.181-.125-.433-.209-.6a2.584,2.584,0,0,0-.237-.363,1.1,1.1,0,0,1-.293.084c-.1,0-.167-.07-.223,0s-.154-.112-.209-.167a.25.25,0,0,0-.251-.042c-.111.028-.042.042-.14-.167a2.078,2.078,0,0,0-.265-.4l.265-.377s-.125-.363-.167-.363-.279.056-.334.014-.391-.377-.391-.377l-.1-.279-.377-.446.07-.279-.154-.53a.318.318,0,0,0-.237,0c-.1.056-.209,0-.279-.014s-.307-.028-.307-.446a3.521,3.521,0,0,0-.126-.851s-.251-.084-.335,0-.377.083-.377.083l-.167.14-.07-.056-.139.209-.237.07s.014.2-.056.2a.475.475,0,0,1-.181-.07l-.056.321-.447-.265-.251-.07-.154-.209-.139.167-.112.042-.307-.1-.168.209a3.236,3.236,0,0,1-.335-.753c.014-.139.167-.2.1-.363a1.917,1.917,0,0,0-.251-.391c-.07-.1-.2-.265-.181-.391s.084-.154.084-.154-.321-.07-.321-.112-.028-.363-.14-.377-.293-.07-.335-.168a1.06,1.06,0,0,1-.084-.488c.042-.07.154-.209.154-.209s.544.028-.14-.181c-.377-.265-.4-.293-.363-.391s.167-.209.167-.307-.154-.154-.154-.154l.167-.251-.056-.209s-.056.07-.181-.028a.425.425,0,0,1-.111-.321H35.43l.2-.391.265-.028a1.525,1.525,0,0,0-.042-.363c-.042-.125-.042-.237.042-.279s.307-.126.321-.2.1.111.265.111.4.028.4.028.168-.168.265-.07.111.307.209.391.154,0,.209.223.112.5.112.5a.327.327,0,0,0,.293.07s.321-.1.391-.209,0-.488.14-.544a1.054,1.054,0,0,0,.4-.251c.07-.1.349-.251-.084-.237a2,2,0,0,0-.307-.251s-.237-.181.084-.139a.863.863,0,0,0,.4,0s-.07-.349.223-.223.182.112.293.126.154-.181.154-.181a.773.773,0,0,0,.321,0c.111-.042.167-.1.111-.167a.833.833,0,0,1-.2-.433v-.167l-.321-.07s.181-.084-.014-.307-.237-.237-.2-.419a.318.318,0,0,0-.167-.363c-.1-.042-.544-.14-.628-.251a1.565,1.565,0,0,1-.223-.6,3.387,3.387,0,0,0-.07-.614.75.75,0,0,0-.2-.154.2.2,0,0,1,.056-.223c.112-.126,0-.363-.07-.5s-.126-.265-.265-.265-.265-.335-.126-.293.293.084.293.028-.167-.446-.167-.5.084-.335-.126-.279-.321,0-.279-.181.126-.446.056-.544a1.318,1.318,0,0,0-.544-.279c-.2-.056-.363-.349-.474-.516,0,0-.335-.67-.279-.8s.265-.168.335-.265a.65.65,0,0,0,.223-.712,3.026,3.026,0,0,1-.251-.962,1.849,1.849,0,0,1,.474-.656,15.444,15.444,0,0,0,1.116-1.214c.056-.1.432-.516.432-.516a1.478,1.478,0,0,0-.056-.53,6.118,6.118,0,0,1-.167-.739,2.089,2.089,0,0,1,.1-.279l-.767-.321-.14-.2-.53.042v-.265l-.223-.167.14-.167-.279-.14a1.17,1.17,0,0,1-.209-.4c0-.126-.237-.237-.335-.307s-.126-.084-.111-.293-.056-.126-.419-.251-.419-.251-.474-.349-.126-.042-.237-.1-.251-.181-.07-.293.209-.2.014-.349-.377-.391-.251-.446.2-.279.2-.279l.251-.307.028-.446s.14-.167.1-.279-.167-.237-.083-.349.181-.1.1-.209-.1-.14-.084-.237-.084-.153-.1-.223a1.521,1.521,0,0,1,.07-.363c.014-.056-.014-.4-.154-.447a.837.837,0,0,0-.46-.028,3.089,3.089,0,0,1-.586.167c-.181,0-.684.516-.684.516l-.307.014-.181.363.377.209-.1.391-.321.251h-.307l.014.377-.572.279-.14.474s-.391.265-.572.223a4.975,4.975,0,0,0-.53-.07l-.628.572-.042.307s.251.014.335.154a.951.951,0,0,0,.279.377.761.761,0,0,0,.209.1,1.545,1.545,0,0,0,.1.446,3.957,3.957,0,0,0,.209.4l-.237.321.042.5-.488.14-.084.418-.949.181-.237.488.167.642-.293.209.056.363-.168.056-.167.237-1.116.056s-.2.4-.363.433a2.168,2.168,0,0,1-.2.67l.111.181-.209.251.07.656a1.139,1.139,0,0,1,.07.558c-.07.167-.112.223-.07.335s.154.209.056.293-.1.684-.1.684.154.042.251.307.07.377.265.446.363.126.377.349.042.349-.1.474c0,0-.363.349-.223.572s.391.614.391.614.084.167-.056.181-.377.223-.377.349-.042.53-.042.53-.168-.209-.307-.153a.328.328,0,0,1-.307,0c-.056-.042-.209-.042-.377.084s-1.032.712-1.032.712-.07.111-.293.014a.675.675,0,0,0-.5.056.677.677,0,0,1-.474-.126c-.14-.125-.349-.209-.446-.154s-.167.2-.237.028a.941.941,0,0,0-.432-.391c-.1-.028-.321-.167-.377-.028s-.237.279-.6.167a.527.527,0,0,0-.67.237.933.933,0,0,1-.5.432c-.181.028.111.112-.084.167s-.293.349-.293.349-.167.153-.237,0-.14-.153-.209-.1a.98.98,0,0,1-.4.14c-.14.014-.46.014-.544.028s-.293-.1-.279.056.028.237-.111.321a.555.555,0,0,0-.293.321c-.056.167-.181.154-.321.07a1.306,1.306,0,0,0-.46-.112c-.209-.042-.209-.167-.307-.042s-.251.2-.209-.154.07-.7-.112-.391a1.9,1.9,0,0,0-.209.725l-.209.251s.056.14.126.293a.786.786,0,0,1,.07.293,1.326,1.326,0,0,0,.349.167c.14.028.181.181.335.223S17.533,34.823,17.547,34.893Z" transform="translate(-10 -14.171)"/>
</svg>
