<svg xmlns="http://www.w3.org/2000/svg" width="29.657" height="35.614" viewBox="0 0 29.657 35.614">
  <g id="Group_304" data-name="Group 304" transform="translate(-730.766 -161.234)">
    <path id="Path_664" data-name="Path 664" d="M743.732,163.381l.186.025a1.648,1.648,0,0,0,.889.515l0,0c.161.166.393.168.589.252a.871.871,0,0,1,.518.445,2.263,2.263,0,0,0,.923,1.011,1.56,1.56,0,0,1,.794.958.605.605,0,0,0,.754.525c.323-.083.448.148.618.329a1.016,1.016,0,0,0,1.262.289c.2-.166.295-.451.542-.587.312.049.664-.31.942.091l.128.145a2.113,2.113,0,0,0,2.364.039c.437-.3.608.032.8.318a1.741,1.741,0,0,0-.015,1.018c.124.339.353.577.642.55.527-.05.993.258,1.515.168.4-.069.55.161.533.536a1.149,1.149,0,0,0,.337,1.079l0,0c.193.437.654.437,1.01.6a2.933,2.933,0,0,0,.461.132c.619.332.7.471.557,1.151a11.037,11.037,0,0,0,.078,1.81,4.851,4.851,0,0,1-.044.744.545.545,0,0,1-.07.152,1.419,1.419,0,0,1-.2.182c-.557.49-.556.5-.025,1.015.7.68.752.949.355,1.87a1.615,1.615,0,0,0-.13.355c-.045.432.095.935-.481,1.155-.159.061-.3.137-.456.025-.353-.255-.651-.068-.951.108-.479.282-.879.678-1.385.931a.708.708,0,0,0-.423.8c-.215.477-.114,1.052-.461,1.489a.382.382,0,0,0-.067.147,1.919,1.919,0,0,0,.972,1.52c1,.195,1.26.528,1.186,1.541-.013.175-.1.358.071.506a1.784,1.784,0,0,1,1.239,1.8c.019.232.16.436.188.673a2.718,2.718,0,0,1-1.049,2.247c-.347.359-.839.535-1.154.931a.433.433,0,0,1-.114.111,1.531,1.531,0,0,0-.716.348c-.5.542-1.228.387-1.841.583-.131.042-.344.037-.41-.072-.312-.518-.877-.756-1.256-1.191-.067-.076-.076-.193-.2-.226a3.065,3.065,0,0,0-1.258.37c-.1.115-.038.2.052.273a.6.6,0,0,1,.1.119,3.524,3.524,0,0,1,.424,1.585c-.012.337-.159.466-.47.412-.231-.04-.384-.026-.4.263-.012.247-.22.291-.413.357-.272.094-.58.037-.832.2-.041.032-.083.064-.124.1a.968.968,0,0,1-.961.64.537.537,0,0,1-.4-.129c-.531-.636-1.418-.911-1.756-1.74a.983.983,0,0,1,.079-.57c.047-.157.1-.344.016-.466a5.337,5.337,0,0,1-.512-1.487.845.845,0,0,0-.5-.381,2.361,2.361,0,0,1-1.406-.912.567.567,0,0,0-.613-.237.631.631,0,0,1-.156,0,2.754,2.754,0,0,1-1.271-.621c-.2-.221-.613-.157-.927-.234a.356.356,0,0,1-.125-.095,2.482,2.482,0,0,0-.8-1.837.935.935,0,0,1-.1-.113,3.234,3.234,0,0,1-.793-1.616,1.354,1.354,0,0,0-.426-.672,1.31,1.31,0,0,1-.1-.108,1.086,1.086,0,0,1-.251-.692,1.185,1.185,0,0,0-.661-1.078.791.791,0,0,1-.408-.338c-.438-.493-1.088-.506-1.647-.726a2.257,2.257,0,0,0-1.276-.984,1.006,1.006,0,0,1-.688-.735,2.276,2.276,0,0,0-.467-.7.689.689,0,0,1-.118-.214,2.987,2.987,0,0,0-.684-1.9l0,0a9.682,9.682,0,0,0-.709-1.11.378.378,0,0,0-.5-.177c-.269.1-.386-.047-.419-.315a1.694,1.694,0,0,0-.361-1.077.438.438,0,0,1,.241-.69.712.712,0,0,0,.448-.553h0a.979.979,0,0,0,.177-1.111,2.617,2.617,0,0,0-.122-.3c-.3-.633-.293-.648.363-.89.121-.045.282-.1.294-.211a7.916,7.916,0,0,0,.308-1.5,1.375,1.375,0,0,1,.236-.956c.13-.2.275-.39.113-.637-.163-.269-.242-.519.2-.57.221-.025.27-.213.387-.339h0a1.592,1.592,0,0,0,.54-.438c.033-.169.274-.221.24-.427.28-.226.14-.474.039-.721-.09-.223-.3-.417-.169-.694v.007c.181-.3.073-.692.281-.988.084-.173.176-.322.377-.117a9.907,9.907,0,0,1,1.1.294c.293.133.413-.141.259-.6-.305-.311-.2-.661-.1-1.012a.7.7,0,0,0,.063-.41c-.027-.194.027-.362.272-.361.267,0,.291-.212.359-.389l0,0c.155-.166.29-.358.575-.272a.317.317,0,0,0,.359-.174c.18-.324.343-.2.517,0a1.174,1.174,0,0,0,1.437-.085c.481-.327.852-.269,1.115.273.188.388.325.8.814.92a1.066,1.066,0,0,1,.582.1,1.274,1.274,0,0,0,1.064.522A.971.971,0,0,1,743.732,163.381Z" transform="translate(0)" fill="#fff"/>
  </g>
</svg>
