<svg xmlns="http://www.w3.org/2000/svg" width="23.58" height="21.787" viewBox="0 0 23.58 21.787">
  <g id="ABRUZZO" transform="translate(-639.161 -283.758)">
    <path id="Path_663" data-name="Path 663" d="M1699.332,1471.3l-.237.867-1.974.116-.743,1.188-.666.133-.04.912h-1.161l.027.218.6.52-.212,1.27-2.685-.119-.606.551.5.962-.339.641.508.979-.145.723,2.657,3.234-.945,1.181-1.078.18-1.908-.864-.867.867.3,1.261.989.066,3.7,1.671v1.783l1.989,1.047.37.106,1.108-.955,1.051.43.487.786,2.592.915,0,0,.892.345.562-.662,1.592-.677-.552-1.287,2.1-1.294.808.525.775-.122.607.84.362,1.185.6-.1,1.695-3.021,1.427-1.281.127-1.34-.4-.219-.087-.961-3.056-2.357-1.31-1.572-2.357-1.659-3.23-4.1-1.122-3.687Z" transform="translate(-1050.856 -1186.774)" fill="#fff"/>
  </g>
</svg>
