<svg xmlns="http://www.w3.org/2000/svg" width="20.069" height="21.909" viewBox="0 0 20.069 21.909">
  <g id="BASILICATA" transform="translate(-284.367 -450.187)">
    <path id="Path_654" data-name="Path 654" d="M2193.028,1981.66v.82l.459,1.659,1.17.943.233.874-.579.207v.29l.705.494.8,1.9,1.788,1.49,1.577,2.226-.068.137c-.671,1.352-1.583,3.2-2.1,4.285l.874,1.387,1.476-1.256,1.419.044.4.468.849-.128.2.878.285.542,1.392-.065.952-.6.933.327.484.548.117-.054-.225-.77.779-2.338.4-1.165,2.981.154,2.78-4.415-.635-.566-.238-.645-.662-.147-.228-.458-.22-4.293-1.451-.5-.919.627-.5-.633-.833,1.2-2.285-1.989-1.038-1.9-1.226.07-2.01-1.005.789-.425v-.97l-2.049-1.68-.891.686-2.783-.075-.234.2.383,1.765-1.922,2.09Z" transform="translate(-1908.66 -1527.036)" fill="#fff"/>
  </g>
</svg>
