<svg xmlns="http://www.w3.org/2000/svg" width="21.039" height="40.553" viewBox="0 0 21.039 40.553">
  <g id="CALABRIA" transform="translate(-480.943 -440.337)">
    <path id="Path_653" data-name="Path 653" d="M2269.532,2277.292l-.611-.873.611-2.794-1.31-1.135-2.008-1.047-1.833-1.746-3.23-.611-.96-2.357,2.357-3.23-.611-2.357.393-.625-2.311-.119-.276.8-.729,2.184.3,1.04-.863.4-.648-.734-.574-.2-.858.536-1.851.085-.469-.89-.106-.479-.66.1-.434-.513-.994-.031-1.419,1.207,1.454,6.759,1.746,1.833,1.222,6.548.873,2.793,1.222.437.175,1.309-1.571,2.357-.7.088-1.222-.262-.524.437-1.309.611-.175.872,1.222,1.048-1.484,5.413-2.357.786.175,1.659-.262,1.833,1.4,2.007,5.063.524.437-4.278,2.531-2.794,3.492-2.444-.523-5.5.786-1.484,4.8-2.357,1.484.262.961-.437.611-1.309-.786-1.746Z" transform="translate(-1767.986 -1820.06)" fill="#fff"/>
  </g>
</svg>
