<svg xmlns="http://www.w3.org/2000/svg" width="27.986" height="27.069" viewBox="0 0 27.986 27.069">
  <g id="CAMPANIA" transform="translate(-454.912 -363.282)">
    <path id="Path_652" data-name="Path 652" d="M1868.433,1895.453c.362-.752.949-1.948,1.9-3.864l-1.363-1.922-1.832-1.527-.787-1.875-.8-.562v-.917l.476-.17-.069-.257-1.168-.942-.521-1.885v-1.517l1.448.3,1.547-1.681-.269-1.236-.164.141-1.618-.728-1.654-.154-1.293-1.025.579-1.771-1.369-.434-1.208-1.386.612-.742.028-.68-1.314-.922-.653.424-1.706.528-.762-.318-.356.777-2.012.739-1.714-.3-.313-.743-3.537-1.313-.837-.186-.41.563.479.885-.409.759-1.243-.1-.8-1.389-1.044.687.224.705-.335,1.845-1.817.938,3.709,5.533.216,2.161.432-.072.216-.432,1.656.36,1.152-.5,1.656,1.44.5-.216.288,1.08-.72.792-1.08.432v1.08l1.512-.648.936.072,2.257-.513,1.484-.786,2.793,5.5-.7.7-.437,1.659,1.048.262.436,1.222h1.31l2.532,2.794,1.746.262.96-1.4.873-.175,1.222.524Z" transform="translate(-1387.435 -1506.022)" fill="#fff"/>
  </g>
</svg>
