<svg xmlns="http://www.w3.org/2000/svg" width="48.349" height="25.083" viewBox="0 0 48.349 25.083">
  <g id="EMILIA_ROMAGNA" data-name="EMILIA ROMAGNA" transform="translate(-512 -204)">
    <path id="Path_644" data-name="Path 644" d="M910.368,852.043l1,2.06,3.094,2.042,2.2.367.906-.181.755-.2.963-1.676.924-.507-.257-1.228,1.8-.933.261.521-.174.449.112.512-.033.4.476.428.531-.4.437,1.048.5.1.759-.668.511-1.666-2.225-1.309-3.317-3.579-1.4-6.2-.611-2.008.861-3.131-.186-.354.279-.6-.1-.113-.786.2-1.142-.074-.464-.563-1.316-.322-2.465.213-.964.84-2.215.812-.229-.725-1.724-.412-.009.01-.018-.016-.228-.054-1.227-.061-2.409.429-.722-.492-1.375.029-1.634.654-2.168-.561.129-.675-.594-.162-.349,1.048-1.611.476-1.655-.54-.36-.811-1.005.03-1.152-.864-2.695.068-.207-1.344L887.2,832l-.607.4-.421-.973-.232.139.247,1.155-.772-.257-.5.4-.779-.42-.5.713-1.135-.437-.207-.672-.593.27-.268-.247-.284.709-.963-.462-.813.2-1.338,3,1.083.835-.212,1.188-.747.3.242,1.868-1.053-.162-.556.467.019.494,3.593.854.439,1.711-.82.781-.166.595.4.113.712-.534,1.773.3.308.748.9-.284,1.005-1.743,2.493.6v.965l3.212,2.3,1.829-.065.676.811.71.258,1.281,1.708,1.778-.552,2.838,1.357,1.066-1.505,1.065.29v.963h2.237l-.446-1.06,2.8-1.766,1.21,1.344,1.412-.128.721.853,1.655.144-.472,2.205Z" transform="translate(-364.79 -627.429)" fill="#fff"/>
  </g>
</svg>
