<svg xmlns="http://www.w3.org/2000/svg" width="21.119" height="18.929" viewBox="0 0 21.119 18.929">
  <g id="FRIULI" transform="translate(-680 -130.216)">
    <path id="Path_646" data-name="Path 646" d="M1549.681,401.828l-1.815.544-.069.124.6.6-.71.711-1.407-.363-.247.05-.913,1.785-1.222.786-.481.54,2.252,1.809.273,1.421-1.008.336-.245.491.579,1.66.953.736.244,1.178,1.1.315.631.561,1.2-1.2.831.462.828-.322.39.476.98-.327.714,2.429.418,1.308.15-.017.349-.96-.786-.175.611-1.484,1.135.175,3.143,1.31,1.135-.262.262-1.571,2.969,1.921.524,1.222-.96.524,2.008-.175.437-.873-3.055-2.357-.873-.262-.611-.436.96-2.444-.436-.524-.785.262-.873-.524.349-1.4,1.833-.96-.087-1.135-3.055-.524-.7-1.659,3.143-2.27,1.572-.262.087-1.484-3.841-.96-2.706.262-.961-.349-2.706-.262-1.572-.087-.436-.436-.383-.072Z" transform="translate(-863.414 -269.47)" fill="#fff"/>
  </g>
</svg>
