<svg xmlns="http://www.w3.org/2000/svg" width="34.634" height="29.466" viewBox="0 0 34.634 29.466">
  <g id="LAZIO" transform="translate(-101.773 -363.825)">
    <path id="Path_658" data-name="Path 658" d="M1386.645,1516.087l1.645-.849.268-1.472-.3-.953,1.555-1.023.608-.845.028-.417-.357-.648-.712-1.923-2.536-.9-.494-.8-.608-.249-1.079.93-.686-.2-2.309-1.215v-1.761l-3.314-1.5-1.273-.085-.454-1.906,1.32-1.32,2.089.946.731-.122.563-.7-2.547-3.1.157-.785-.548-1.058.339-.641-.557-1.074,1.053-.957,2.443.108.09-.54-.531-.46-.079-.631-.511-.661-1.116.121-.293,1.42-1.369.556-.749-.2-.293.261-1.386.033-.066.958-1.936,1.076.077.845-1.268.355-.528-.6-.109.047.267.668-1.253,1.03-1.662-.306-.4-1.75-1.756-.394-1.067-2.833-.724-.376-1.635.558-1.639-1.457.764-.65-.481-.623-.45-.839-1.62.594.878,1-.515,1.189v.67l-1.517,1.517-1.155.622.53.56-.429,1.238-1.512.221-.415.814,2.277,1.449,2.521,4.465,1.08.216,2.953,1.656,1.3,3.457,5.33,5.186,4.249,1.3,1.729,3.169.432.144.576-.792,2.88-.72,2.377,1.224.864.216.144-.648,1.873-.216Z" transform="translate(-1254.038 -1123.354)" fill="#fff"/>
  </g>
</svg>
