<svg xmlns="http://www.w3.org/2000/svg" width="35.269" height="15.818" viewBox="0 0 35.269 15.818">
  <g id="LIGURIA" transform="translate(-108 -289.422)">
    <path id="Path_657" data-name="Path 657" d="M533.572,976.824l.226-1.055-.183-.184-.752.044-.076-.909-.589-.062-.435-.569-.82.216-.125-1.5-2.034-1.535-.481-1.167-1.277-.213-.74.555-1.129-.323.342-1.221.7-.671-.288-1.121-3.154-.749.023.607-1.853.212-1.825-1.868-.618.118-.247.68.416.624-.191.826-1.014.184-.666.784-.7-.233-.49-1.28-.989-.084c-.2.381-.411.786-.453.894-.026.215-.259.246-.6.291-.205.027-.49.059-.847.094-.432.042-.868.079-1.084.1l-.422.783-.889-.232-.994-.759-.076.028-.323.711.354.65-.589.773-.639.278-.893,1.275v1.508l.225.417-.431.979-.936-.061-.093.088.415.2-.336.785-2.046-.126-1.173-.506-.228.1.315.572-1.621.608-.048-.129-.438.64-.432,1.008-.864.288-.936,1.224.288,1.729,4.753-.648,4.249-2.377v-.792l.936-1.008.072-1.8,2.521-.936.216-1.512,2.449-1.656,2.161-.936,5.185,1.3-.072.36,1.008.36.36-.648,3.1,2.088,5.185,3.313-.072-1.008,1.8.864Z" transform="translate(-390.529 -675.893)" fill="#fff"/>
  </g>
</svg>
