<svg xmlns="http://www.w3.org/2000/svg" width="39.359" height="35.309" viewBox="0 0 39.359 35.309">
  <g id="LOMBARDIA" transform="translate(-304 -200.462)">
    <path id="Path_655" data-name="Path 655" d="M726.848,413.065l-.309,1.755-1.352,2.138.085,1.4-.486.9,1.3,1.016-.048.758.28.679.838,2.273.734.043.636,2.013-1.282.522-.763,1.481-1.025-.12-.579-.952-.646.056-.354,1.274,1.868,4.1,1.99.383,1.325-.815.31,1.291,1.241.6-.23.737,1.248,1.123-.038.788,1.237.2.8,1.923.008.22.43-.361.61.094-.206-1.586.852-.341.108-.6-1.156-.892,1.6-3.592,1.234-.308.636.305.356-.891.564.521.814-.37.3.991.528.2.527-.758.884.476.456-.365.187.062-.136-.636,1.047-.628.41.946.352-.235,1.143.613.177,1.151,2.422-.061,1.151.863,1.169-.034.407.916,1.287.42,1.2-.355.418-1.254,1.517.414-.127.668,1.542.4,1.564-.626,1.631-.035.685.467,2.26-.4.747.037-1.5-1.119-1.227-.425-.078-.815-1.492.081-.431-.776h-.6l-.243-.875-2.574-2.042-1.366-.283-.132-1.8-.807-.425-.277-3,2.643-4.165-1.265-.184-.462.8-1.594-.1-.756-.958L750.9,416.3l-.807-1.166.6-1.54.9-.45.311-3.465-.721-.3.066-.991,1.276-.453-.19-1.08-1.563-.453-1.033-1.706.028-.017-2.2.076-.786-1.222-1.833.524-.349,2.706.873.349.7.349-.96.7.786,1.921-1.222.611-2.1-2.706-2.794.262-.262,1.222-1.746.175-1.222-1.484-.873-2.27-.7.437-.349-.524-.786-.087-.175.96.7,1.484-1.484,3.143-1.921,1.484.175.786-.786.436-.524,2.27,1.222.262-.873,1.659-1.31-.349v-1.921l-2.008-1.484.7-1.135Z" transform="translate(-419.875 -203.076)" fill="#fff"/>
  </g>
</svg>
