<svg xmlns="http://www.w3.org/2000/svg" width="22.911" height="23.003" viewBox="0 0 22.911 23.003">
  <g id="MARCHE" transform="translate(-708.11 -205.216)">
    <path id="Path_647" data-name="Path 647" d="M1532.738,1188.2h.836l.036-.823.843-.169.766-1.225,1.871-.11.216-.791,2.97-.844-1.173-3.855-2.182-5.063-.786-2.968-1.309-.873-.873-.087-3.317-2.1-5.151-3.929-.289-.17-.518,1.688-1.056.929-1.021-.195-.29-.695-.341.256-.668-.6-.178.254-.87-.119-.989.542-.822,1.43,1.479.925-.871,1.162-.616-.5-.292.268-.779.467.053.3.933.35,1.031-.4.246,1.292-.633.19.8.312,1.191-.192,1.756,1.867.915-.029.7-1.045,1.033.425-.693,2.041,1.672,2.872-.352.95.827.93.18,2.3.7.585.032.955h.17l.191-.763.937.165,1.27,1.376,1.361-.247v1.882l-.769.077-.06.291,1.237-.134Z" transform="translate(-809.254 -959.982)" fill="#fff"/>
  </g>
</svg>
