<svg xmlns="http://www.w3.org/2000/svg" width="16.058" height="12.697" viewBox="0 0 16.058 12.697">
  <g id="MOLISE" transform="translate(-650.989 -370.587)">
    <path id="Path_649" data-name="Path 649" d="M1901.628,1703.605l-1.513,1.358-1.774,3.163-1.285.206-.467-1.53-.373-.517-.658.1-.7-.455-1.446.892.579,1.353-1.953.831-.719.846-.809-.313.55,1.486.4.727-.047.714-.625.868.718,1.249.642.051.119-.221-.5-.925.8-1.1,1.215.273,3.761,1.4.291.69,1.3.228,1.683-.618.473-1.033,1.047.436,1.461-.452.42-.273-.362-.254-.248-1.984.262-.721,1.077.431,1.34-.719.118-.5-.633-.372.185-.969.609-3.125-.9-.153-.96-.786-2.952-1.61Z" transform="translate(-1239.519 -1331.697)" fill="#fff"/>
  </g>
</svg>
