<svg xmlns="http://www.w3.org/2000/svg" width="35.646" height="43.53" viewBox="0 0 35.646 43.53">
  <g id="PIEMONTE" transform="translate(-106 -194.256)">
    <path id="Path_661" data-name="Path 661" d="M327.279,490.553l-.13.191.569-.213-.3-.549.949-.407,1.293.558,1.6.1h0l-.649-.307.8-.753.8.052.186-.422-.168-.311v-1.8l1.068-1.526.65-.282.307-.4-.318-.583.517-1.139.541-.2,1.135.866.4.1.363-.674.139-.011c.919-.074,1.939-.174,2.262-.231.069-.159.216-.453.531-1.036l.08-.147,1.643.14.518,1.354.142.047.56-.659.862-.157.065-.283-.437-.655.435-1.2,1.173-.223,1.842,1.885,1.132-.129-.074-1.934-.653-1.574-1.407-.227.048-1-1.311-1.18.2-.628-1.062-.511-.2-.841-.893.55-2.445-.47-2.055-4.512.5-1.8,1.316-.114.615,1.01.425.05.687-1.334,1.021-.416-.388-1.227-.716-.042-.952-2.583-.319-.775.038-.606-1.429-1.116.623-1.149-.086-1.417,1.387-2.193.3-1.719-2.1-.645-.786-1.4-.96-.611-.262-.786.437-1.746v-1.4l-2.183.873.262.611-1.833,1.4-.611-.175-.524.873.786,1.31-.611,1.484-1.222.175v.96l-.873,1.222-.9.193.4,4.181.558.139.136.635-.294.765.015.134.254.366.094.472-.769.806-1.066.059-.9.657-2.945-.554-.44.22h-.45l-1.116,1.059-1.574.175-.739.585-.938-.263-.254-.372-.626.626.729.854-.96,1.309.175,1.31-.786.524-.786-.087-2.1,1.659-1.135-.524-1.921.786.612,1.683.936.216.072,1.728,1.8,1.3.792-.072.936.288.648,2.737-1.224.576-.288,1.873-.936.288-.072.864.72,1.152-.432.792,1.656,2.665,4.969,2.161,4.033-1.152Z" transform="translate(-206.192 -252.958)" fill="#fff"/>
  </g>
</svg>
