<svg xmlns="http://www.w3.org/2000/svg" width="48.674" height="39.11" viewBox="0 0 48.674 39.11">
  <g id="PUGLIA" transform="translate(-99.642 -440.081)">
    <path id="Path_656" data-name="Path 656" d="M2150.355,1770.347l-4.1-3.317-1.047-2.27-7.247-3.23-2.968-2.968-15.1-6.635-2.706-2.357-.873-2.445,3.754-2.532.436-1.572-1.659-1.833-2.881-.087-6.81.611-2.7-.459-.612,3.135-.117.614.648.381-.259,1.088-1.752.94-.809-.323-.039.109.2,1.636,2.172,1.523-.048,1.13-.444.54.829.951,1.723.547-.627,1.923.894.709,1.588.148,1.4.63.743-.637,2.8.076,1.07-.822,2.551,2.09v1.518l-.191.1,1.007.5,1.413-.081,1.149,2.1,1.787,1.555.9-1.293.631.8.739-.5,2.019.7.233,4.53.072.145.7.155.29.787.476.424.689-1.1,2.008-1.4,2.706,1.4-.7.96,4.279,2.357,4.975.262.524,1.4,1.31,1.222-.087,1.309.437,2.27,3.143,1.746,1.31.7.873-3.928,1.135-2.008Z" transform="translate(-2003.873 -1301.02)" fill="#fff"/>
  </g>
</svg>
