<svg xmlns="http://www.w3.org/2000/svg" width="23.244" height="43.326" viewBox="0 0 23.244 43.326">
  <g id="SARDEGNA" transform="translate(-260.626 -355.525)">
    <path id="Path_632" data-name="Path 632" d="M648.859,1935.475h1.729l.648.865,1.008.432.648.864,1.152-.216.072,2.161,1.008.576-.432,1.656,1.8,1.3-.288.864.648.648.144,1.153.072,1.08.648.936.576.792-1.152,3.025-1.512,1.584.216,2.233,1.08,1.44-.605,2.25.288.576-.576,4.129-.336,2.833.144,1.44-.72,2.5.288.384-.384.624-.24,1.776v.672l-.624.624-.432-.576-1.056.192-2.257-1.68-1.1.144-.288.48-.816-.672-1.2,2.016.48,1.153-.24,1.2-2.5,1.872-1.536-.816-1.393.576-.048-1.008-.624-.528v-.96l-.048-.384-.96-.768-.816-.72-.96-2.016.864-.864-.72-1.969.384-.72-.288-.432.96-2.641-.1-2.881.576.624.72-1.729-.288-1.44h-.96l-.912-.048.192-2.449,1.2-.672-.432-1.2.288-2.689-.384-.768-.864-.336.336-1.152-.624-1.536h-.432l-.384-1.729-1.441.288.1-.672h-.384l-.48.624-.24-.912.816-1.248-.816-.576,1.008-2.737-.192-1.056.384-.624.24.528.768,1.825,1.824.1.432.288,2.257-.384.528-1.1,1.969-.336,2.929-3.793,1.344-.048.864-.624-.144-.768Z" transform="translate(-374.424 -1579.95)" fill="#fff"/>
  </g>
</svg>
