<svg xmlns="http://www.w3.org/2000/svg" width="44.23" height="30.17" viewBox="0 0 44.23 30.17">
  <g id="SICILIA" transform="translate(-656.638 -448.587)">
    <path id="Path_633" data-name="Path 633" d="M1558.659,2784.573l2.106-1.138v-.967l.455-.114,1.025,1.936,1.252.911,2.163-1.423s-.227-.854-.227-.684.342.057.342.057l.114-.739.683-.058.341.284,1.993-.967.626.455.342,1.309.854.569.74-.455.683.285-.114,1.024,2.846,1.48,3.017-1.366,5.294.625,1.309-.682,3.017-1.025,1.366-1.423.228.4,2.049-.683.626.683h1.082l.512.854,1.879-1.48.057-1.309.512.911,2.277-.569,1.423-1.024,1.423.4-.911.569-.512,1.993-3.416,5.066-1.252,2.22.228.854-.342,1.025v1.2l-1.138,1.707-.171,2.96,1.935,1.024-.626.627.285,1.65.569.626.569-.171v.512l-.455.115.171.4.8.512-.854.513v.512l-1.253.683-1.252,2.96.74,1.878-.8.342-.74-.969-1.252.285-.626-.854-1.537.626-.456-.285-.683.171-.8-1.138-2.5-.627-1.821-4.382-3.359-1.48-2.732.569-.569-1.309-1.594.17-2.448-2.448-1.651-.626-2.163-1.48-1.2-1.708-1.992-.171-1.366-1.252-2.9-.056-.626.684-1.138-2.05-1.082-.228-1.309-2.618.683-1.309v-.683l.284-2.049Z" transform="translate(-900.086 -2331.66)" fill="#fff"/>
  </g>
</svg>
