<svg xmlns="http://www.w3.org/2000/svg" width="36.339" height="38.175" viewBox="0 0 36.339 38.175">
  <g id="TOSCANA" transform="translate(-290 -279.069)">
    <path id="Path_660" data-name="Path 660" d="M1001.877,1059.128l1.465-.215.225-.65-.777-.82,1.677-.9,1.314-1.314v-.564l.429-.99-1.156-1.32,2.5-.917.621-.414-.2-.744.591-2.364-.556-.267-.362-2.034,1.484-.518-.045-.864.669-.3.888.3,1.006-.382.324-.409-.1-.073-.681.352-.661-.551.107-.622-.72-.327-.044-.478-.837-.216.411-.914.754.1.476-.5-.594-.345.159-.876.752-.075.691-1.274-.124-.7,1.036-.622.579-.531.546.444.218-.291-1.123-.7-.774.2-1.005.2-2.4-.4-3.3-2.179-1.3-2.673.894-.373.295-1.376-1.287-.112-.686-.811-1.4.127-1.093-1.214-2.065,1.3.577,1.371h-3.519v-1.084l-.342-.093-1.109,1.565-3.046-1.457-1.931.6-1.406-1.874-.7-.254-.6-.724-1.753.062-3.568-2.558v-.826l-1.729-.419-.914,1.583-1.048.331.032.079,2.105,1.588.093,1.117.56-.147.509.665.791.083.07.834.483-.029.543.543-.339,1.581,2.033,1.643,1.152,7.274,1.512,1.872,1.08,1.873.576,4.321-1.008,1.513,1.08.864,1.152-.5,2.089,1.3-.288,1.656,2.377,1.152,2.665,3.457.576-.072.216.864-.432,1.3-.936.072v.5l1.3.864.576-.648.936-.432,2.223.864Z" transform="translate(-687.606 -743.174)" fill="#fff"/>
  </g>
</svg>
