<svg xmlns="http://www.w3.org/2000/svg" width="29.148" height="25.897" viewBox="0 0 29.148 25.897">
  <g id="TRENTINO" transform="translate(-320 -127)">
    <path id="Path_662" data-name="Path 662" d="M1117.26,276.709l.048-.029.929,1.535,1.677.486.321,1.82-1.367.485-.019.288.729.3-.37,4.125-.977.489-.427,1.1.728,1.051.17,1.654.523.662,1.05.068.476-.823,3.034.44v.979l-.265,1.021.737.584,1-.761,1.494.323,1.869-3.992,1.119.14.356-.219v-.66l2.033-.946h1.166l.3.741.492.047.248-2.192,2.822-.617.69-.827-.649-1.3-.993-.388-.655-1.639.826-.258.266-.723.255-.369-.975-.663.068-.952,2.941-.389.64-2.219.982-.123,1.089,1.214,1.565-.482.661.117.534-.492.836-.567-1.037-.194-1.309-1.484-.524-.611.436-.437-.873-1.135-1.135-.087-.524-2.357,1.4-.436-.7-.96-5.849,2.008-2.182-.524-.873.437-.7-.437-1.135.873-.349-.611-3.492.7-1.135,2.794-.786.7-3.579-.437.873-.611-1.572-.611-2.793.262-1.309,3.667,1.309.436Z" transform="translate(-796.095 -140.052)" fill="#fff"/>
  </g>
</svg>
