<svg xmlns="http://www.w3.org/2000/svg" width="17.925" height="22.101" viewBox="0 0 17.925 22.101">
  <g id="UMBRIA" transform="translate(-473.983 -283.837)">
    <path id="Path_650" data-name="Path 650" d="M1465.842,1286.423l1.665-.039.36-.32.849.231.955-.388.482-2.338.682-.068v-.8l-1.035.188-1.344-1.456-.3-.052-.172.689h-1.064l-.041-1.223-.685-.577-.183-2.345-.916-1.031.374-1.011-1.668-2.865.614-1.807-.2-.083-.611.915-1.408.044-1.729-1.837-1.06.171-1.669-.649.373-.559.594-.178-.044-.233-.639.25-1.045-.392-.757,1.395-.638.064-.026.143.841.489-1.1,1.164-.636-.085-.006.013.6.155.049.541.809.367-.124.721.173.144.662-.342.781.576-.741.934-1.31.5-.873-.3-.164.073.047.9-1.435.5.24,1.347.7.335-.66,2.639.262.97-.759.506.425.793.753.975-.688.585.976.868,1.56-.532,1.091.568,1.039,2.758,1.8.4.4,1.736,1.1.2.78-.641-.314-.784.908-.389.561.636.548-.153-.068-.753,1.985-1.1Z" transform="translate(-978.927 -984.819)" fill="#fff"/>
  </g>
</svg>
