<svg xmlns="http://www.w3.org/2000/svg" width="15.769" height="9.584" viewBox="0 0 15.769 9.584">
  <g id="VALLE_D_AOSTA" data-name="VALLE D&apos;AOSTA" transform="translate(-102 -136)">
    <path id="Path_651" data-name="Path 651" d="M350.384,588.654v1.484l1.47,1.723,1.034-1.034.5.727.508.142.649-.514,1.549-.172,1.139-1.081h.533l.486-.243,2.9.545.839-.616,1.016-.056.445-.467-.021-.107-.267-.385-.043-.387.284-.739-.037-.174-.6-.15-.388-4.089-.118.354s-3.841-1.048-4.19-1.135-1.921,1.4-1.921,1.4H354.4l-1.31.7-.786-.262-.7.437-.524-1.222-.437.873-2.968,1.135,1.048,2.619Z" transform="translate(-245.678 -446.277)" fill="#fff"/>
  </g>
</svg>
