<svg xmlns="http://www.w3.org/2000/svg" width="32.887" height="33.778" viewBox="0 0 32.887 33.778">
  <g id="VENETO" transform="translate(-509 -123.568)">
    <path id="Path_643" data-name="Path 643" d="M1182.846,405.482l-.433-.063-2.673,4.212.235,2.547.813.428.124,1.7,1.107.229,2.8,2.222.183.66h.51l.422.759,1.663-.09.093.976.99.343,2.054,1.531.191.17,1.907.455.155.49,1.623-.6,1.019-.887,2.716-.235,1.563.382.432.524.841.054,1.005-.251.537.59-.315.683.087.166.634.031.242.485.092.311-.012.034.593-.059,1.135-2.357-2.881-2.27.087-1.31-1.746-1.222-.087-1.222.087-1.4.436-1.31,1.746-1.4,2.968-1.135.524.786-1.135.262.175.96,5.674-2.968,1.6-.185-.389-1.218-.566-1.926-.811.27-.378-.462-.706.275-.7-.391-1.271,1.271-.9-.8-1.287-.368-.268-1.3-.923-.713-.7-2.007.437-.874.783-.261-.153-.8-2.524-2.029.884-.995,1.166-.749.963-1.882.6-.121,1.237.319.142-.142-.51-.51.357-.643,1.6-.479-.248-1.876-2.924-.548-1.247.846-.676.628-.789-.139-1.76.542-1.129-1.259-.382.048-.639,2.216-2.859.378-.017.242,1.158.787-.512.74-.331.9-.539.168.368.92.969.379.886,1.773-1.016,1.219-2.636.577-.263,2.328-1.3-.124-.292-.709h-.71l-1.634.76v.619l-.753.463-.928-.116-1.884,4.024-1.662-.359-1.13.859-1.31-1.037.332-1.281Z" transform="translate(-670.74 -265.994)" fill="#fff"/>
  </g>
</svg>
